<?xml version="1.0" encoding="UTF-8" standalone="no"?>
<svg
   xmlns:dc="http://purl.org/dc/elements/1.1/"
   xmlns:cc="http://creativecommons.org/ns#"
   xmlns:rdf="http://www.w3.org/1999/02/22-rdf-syntax-ns#"
   xmlns:svg="http://www.w3.org/2000/svg"
   xmlns="http://www.w3.org/2000/svg"
   xmlns:sodipodi="http://sodipodi.sourceforge.net/DTD/sodipodi-0.dtd"
   xmlns:inkscape="http://www.inkscape.org/namespaces/inkscape"
   width="37.990002"
   height="96.5"
   viewBox="0 0 37.990002 96.5"
   version="1.2"
   id="svg4141"
   sodipodi:docname="32nd-rest.svg"
   inkscape:version="0.92.4 (5da689c313, 2019-01-14)">
  <metadata
     id="metadata4147">
    <rdf:RDF>
      <cc:Work
         rdf:about="">
        <dc:format>image/svg+xml</dc:format>
        <dc:type
           rdf:resource="http://purl.org/dc/dcmitype/StillImage" />
        <dc:title>Untitled-2</dc:title>
      </cc:Work>
    </rdf:RDF>
  </metadata>
  <defs
     id="defs4145" />
  <sodipodi:namedview
     pagecolor="#ffffff"
     bordercolor="#666666"
     borderopacity="1"
     objecttolerance="10"
     gridtolerance="10"
     guidetolerance="10"
     inkscape:pageopacity="0"
     inkscape:pageshadow="2"
     inkscape:window-width="1920"
     inkscape:window-height="1017"
     id="namedview4143"
     showgrid="false"
     inkscape:zoom="0.85656566"
     inkscape:cx="-515.11872"
     inkscape:cy="50.94637"
     inkscape:window-x="-8"
     inkscape:window-y="-8"
     inkscape:window-maximized="1"
     inkscape:current-layer="svg4141"
     fit-margin-top="0"
     fit-margin-left="0"
     fit-margin-right="0"
     fit-margin-bottom="0" />
  <title
     id="title3931">Untitled-2</title>
  <desc
     id="desc3933">Generated by MuseScore 3.0.5</desc>
  <path
     class="Rest"
     d="m 20.91,0 c 1.88,0 3.32,0.521 4.29,1.562 0.97,1.177 1.49,2.287 1.57,3.328 0.12,0.98 0.44,2.084 0.97,3.313 0.58,1.042 1.33,1.562 2.25,1.562 0.58,0 1.52,-0.781 2.82,-2.343 1.18,-1.688 1.96,-2.99 2.35,-3.907 0.32,-0.645 0.78,-0.968 1.37,-0.968 h 0.1 c 0.64,0.062 1.1,0.385 1.36,0.968 l -21.58,92 c -0.65,0.657 -1.59,0.985 -2.83,0.985 -1.1,0 -2.02,-0.328 -2.73,-0.985 L 19.44,62.797 C 15.33,64.359 11.75,65.14 8.69,65.14 6.41,65.14 4.36,64.396 2.53,62.906 0.85,61.406 0,59.515 0,57.234 c 0,-2.021 0.71,-3.713 2.14,-5.078 1.38,-1.427 3.04,-2.141 4.99,-2.141 1.89,0 3.32,0.521 4.29,1.563 1.04,1.104 1.6,2.208 1.68,3.312 0.18,1.303 0.51,2.412 0.96,3.329 0.46,1.041 1.21,1.562 2.25,1.562 0.72,0 1.83,-0.911 3.32,-2.734 1.37,-1.823 2.22,-3.256 2.54,-4.297 L 26.08,37.797 C 21.71,39.359 18.17,40.14 15.44,40.14 13.1,40.14 11.07,39.39 9.38,37.89 7.62,36.463 6.74,34.578 6.74,32.234 6.74,30.213 7.45,28.521 8.89,27.156 10.32,25.719 12.04,25 14.06,25 c 1.96,0 3.36,0.521 4.21,1.562 0.9,1.115 1.46,2.224 1.65,3.328 0.2,1.303 0.53,2.407 0.99,3.313 0.45,1.042 1.16,1.562 2.14,1.562 0.72,0 1.76,-0.911 3.12,-2.734 1.37,-1.625 2.22,-2.958 2.55,-4 l 4,-15.141 c -4.1,1.5 -7.56,2.25 -10.36,2.25 -2.27,0 -4.32,-0.75 -6.14,-2.25 -1.7,-1.489 -2.55,-3.375 -2.55,-5.656 0,-2.021 0.72,-3.713 2.16,-5.078 C 17.19,0.719 18.89,0 20.91,0"
     id="path4111"
     inkscape:connector-curvature="0" />
</svg>
