<?xml version="1.0" encoding="UTF-8" standalone="no"?>
<svg
   xmlns:dc="http://purl.org/dc/elements/1.1/"
   xmlns:cc="http://creativecommons.org/ns#"
   xmlns:rdf="http://www.w3.org/1999/02/22-rdf-syntax-ns#"
   xmlns:svg="http://www.w3.org/2000/svg"
   xmlns="http://www.w3.org/2000/svg"
   xmlns:sodipodi="http://sodipodi.sourceforge.net/DTD/sodipodi-0.dtd"
   xmlns:inkscape="http://www.inkscape.org/namespaces/inkscape"
   width="53.700001"
   height="127.91415"
   viewBox="0 0 53.700001 127.91415"
   version="1.2"
   id="svg4141"
   sodipodi:docname="32nd-note.svg"
   inkscape:version="0.92.4 (5da689c313, 2019-01-14)">
  <metadata
     id="metadata4147">
    <rdf:RDF>
      <cc:Work
         rdf:about="">
        <dc:format>image/svg+xml</dc:format>
        <dc:type
           rdf:resource="http://purl.org/dc/dcmitype/StillImage" />
        <dc:title>Untitled-2</dc:title>
      </cc:Work>
    </rdf:RDF>
  </metadata>
  <defs
     id="defs4145" />
  <sodipodi:namedview
     pagecolor="#ffffff"
     bordercolor="#666666"
     borderopacity="1"
     objecttolerance="10"
     gridtolerance="10"
     guidetolerance="10"
     inkscape:pageopacity="0"
     inkscape:pageshadow="2"
     inkscape:window-width="1920"
     inkscape:window-height="1017"
     id="namedview4143"
     showgrid="false"
     inkscape:zoom="0.42828283"
     inkscape:cx="191.28603"
     inkscape:cy="88.104999"
     inkscape:window-x="-8"
     inkscape:window-y="-8"
     inkscape:window-maximized="1"
     inkscape:current-layer="svg4141"
     fit-margin-top="0"
     fit-margin-left="0"
     fit-margin-right="0"
     fit-margin-bottom="0" />
  <title
     id="title3931">Untitled-2</title>
  <desc
     id="desc3933">Generated by MuseScore 3.0.5</desc>
  <polyline
     class="Stem"
     points="1605.21,374.537 1605.21,266.732"
     id="polyline4023"
     transform="translate(-1573.92,-265.08386)"
     style="fill:none;stroke:#000000;stroke-width:3.25;stroke-linecap:round;stroke-linejoin:bevel" />
  <path
     class="Note"
     d="m 21.97,100.38314 c 3.13,0 5.77,0.812 7.92,2.437 2.01,1.761 3.02,3.974 3.02,6.641 0,4.49 -2.31,8.687 -6.92,12.594 -4.69,3.906 -9.71,5.859 -15.05,5.859 -3.13,0 -5.76,-0.812 -7.91,-2.437 -2.02,-1.761 -3.03,-3.974 -3.03,-6.641 0,-4.49 2.35,-8.688 7.03,-12.594 4.57,-3.906 9.54,-5.859 14.94,-5.859"
     id="path4033"
     inkscape:connector-curvature="0" />
  <path
     class="Hook"
     d="m 32.79,22.836142 v 0.5 c 0,2.864 0.52,5.562 1.56,8.094 1.24,3.198 2.35,5.51 3.33,6.937 1.69,2.542 3.38,4.953 5.08,7.234 2.14,3.125 3.71,5.37 4.69,6.735 0.26,-0.844 0.39,-1.953 0.39,-3.328 0,-2.865 -0.91,-6.084 -2.74,-9.657 -1.89,-3.718 -3.68,-6.583 -5.37,-8.593 -2.35,-2.865 -4.66,-5.505 -6.94,-7.922 m 0,-21.188 c 0,3.323 0.65,6.646 1.95,9.969 1.24,3.125 2.87,6.25 4.89,9.375 l 5.66,8.781 c 1.96,2.927 3.59,6.052 4.89,9.375 1.3,3.386 1.95,6.672 1.95,9.86 0,2.677 -0.65,5.411 -1.95,8.203002 1.95,3.979 2.92,7.755 2.92,11.328 0,3.458 -0.81,6.943 -2.43,10.453 2.02,3.781 3.03,7.557 3.03,11.328 0,5.792 -1.4,11.619996 -4.21,17.484996 -0.45,0.843 -1.07,1.265 -1.86,1.265 -0.64,0 -1.23,-0.26 -1.75,-0.781 -0.39,-0.521 -0.59,-1.042 -0.59,-1.563 0,0 0,-0.13 0,-0.39 2.8,-5.333 4.2,-10.671996 4.2,-16.015996 0,-4.104 -1.56,-8.109 -4.68,-12.015 -3.19,-3.969 -7.2,-7.938 -12.02,-11.907 v 10.25 H 29.67 V 1.648142 h 3.12 m 0,42.969 v 0.484 c 0,2.542 0.55,5.277 1.66,8.204 1.17,3.000002 2.31,5.312002 3.42,6.937002 0.72,1.042 2.48,3.453 5.28,7.234 2.34,3.188 3.94,5.402 4.78,6.641 0.58,-1.823 0.88,-3.682 0.88,-5.578 0,-2.792 -0.95,-5.818 -2.83,-9.078 -1.7,-2.99 -3.62,-5.594002 -5.77,-7.813002 -2.08,-2.208 -4.56,-4.552 -7.42,-7.031"
     id="path4135"
     inkscape:connector-curvature="0" />
</svg>
