<?xml version="1.0" encoding="UTF-8" standalone="no"?>
<svg
   xmlns:dc="http://purl.org/dc/elements/1.1/"
   xmlns:cc="http://creativecommons.org/ns#"
   xmlns:rdf="http://www.w3.org/1999/02/22-rdf-syntax-ns#"
   xmlns:svg="http://www.w3.org/2000/svg"
   xmlns="http://www.w3.org/2000/svg"
   xmlns:sodipodi="http://sodipodi.sourceforge.net/DTD/sodipodi-0.dtd"
   xmlns:inkscape="http://www.inkscape.org/namespaces/inkscape"
   width="25.299999"
   height="46.5"
   viewBox="0 0 25.299999 46.5"
   version="1.2"
   id="svg4141"
   sodipodi:docname="eighth-rest.svg"
   inkscape:version="0.92.4 (5da689c313, 2019-01-14)">
  <metadata
     id="metadata4147">
    <rdf:RDF>
      <cc:Work
         rdf:about="">
        <dc:format>image/svg+xml</dc:format>
        <dc:type
           rdf:resource="http://purl.org/dc/dcmitype/StillImage" />
        <dc:title>Untitled-2</dc:title>
      </cc:Work>
    </rdf:RDF>
  </metadata>
  <defs
     id="defs4145" />
  <sodipodi:namedview
     pagecolor="#ffffff"
     bordercolor="#666666"
     borderopacity="1"
     objecttolerance="10"
     gridtolerance="10"
     guidetolerance="10"
     inkscape:pageopacity="0"
     inkscape:pageshadow="2"
     inkscape:window-width="1920"
     inkscape:window-height="1017"
     id="namedview4143"
     showgrid="false"
     inkscape:zoom="0.42828283"
     inkscape:cx="-1060.2433"
     inkscape:cy="124.57567"
     inkscape:window-x="-8"
     inkscape:window-y="-8"
     inkscape:window-maximized="1"
     inkscape:current-layer="svg4141"
     fit-margin-top="0"
     fit-margin-left="0"
     fit-margin-right="0"
     fit-margin-bottom="0" />
  <title
     id="title3931">Untitled-2</title>
  <desc
     id="desc3933">Generated by MuseScore 3.0.5</desc>
  <path
     class="Rest"
     d="m 7.33,0 c 1.89,0 3.32,0.521 4.3,1.562 0.98,1.177 1.5,2.287 1.56,3.328 0.14,0.98 0.46,2.084 0.98,3.313 0.59,1.042 1.33,1.562 2.24,1.562 0.72,0 1.8,-0.812 3.23,-2.437 1.31,-1.427 2.25,-2.698 2.83,-3.813 0.32,-0.645 0.78,-0.968 1.36,-0.968 h 0.11 c 0.65,0.062 1.1,0.385 1.36,0.968 l -12.3,42 C 12.35,46.172 11.43,46.5 10.26,46.5 9.09,46.5 8.18,46.172 7.53,45.515 L 19.25,12.89 c -4.16,1.5 -7.68,2.25 -10.54,2.25 -2.35,0 -4.37,-0.75 -6.07,-2.25 C 0.88,11.463 0,9.578 0,7.234 0,5.213 0.72,3.521 2.16,2.156 3.59,0.719 5.31,0 7.33,0"
     id="path4125"
     inkscape:connector-curvature="0" />
</svg>
