<?xml version="1.0" encoding="UTF-8" standalone="no"?>
<svg
   xmlns:dc="http://purl.org/dc/elements/1.1/"
   xmlns:cc="http://creativecommons.org/ns#"
   xmlns:rdf="http://www.w3.org/1999/02/22-rdf-syntax-ns#"
   xmlns:svg="http://www.w3.org/2000/svg"
   xmlns="http://www.w3.org/2000/svg"
   xmlns:sodipodi="http://sodipodi.sourceforge.net/DTD/sodipodi-0.dtd"
   xmlns:inkscape="http://www.inkscape.org/namespaces/inkscape"
   width="53.698002"
   height="96.664146"
   viewBox="0 0 53.698002 96.664146"
   version="1.2"
   id="svg4141"
   sodipodi:docname="eighth-note.svg"
   inkscape:version="0.92.4 (5da689c313, 2019-01-14)">
  <metadata
     id="metadata4147">
    <rdf:RDF>
      <cc:Work
         rdf:about="">
        <dc:format>image/svg+xml</dc:format>
        <dc:type
           rdf:resource="http://purl.org/dc/dcmitype/StillImage" />
        <dc:title>Untitled-2</dc:title>
      </cc:Work>
    </rdf:RDF>
  </metadata>
  <defs
     id="defs4145" />
  <sodipodi:namedview
     pagecolor="#ffffff"
     bordercolor="#666666"
     borderopacity="1"
     objecttolerance="10"
     gridtolerance="10"
     guidetolerance="10"
     inkscape:pageopacity="0"
     inkscape:pageshadow="2"
     inkscape:window-width="1920"
     inkscape:window-height="1017"
     id="namedview4143"
     showgrid="false"
     inkscape:zoom="1.7131313"
     inkscape:cx="97.921075"
     inkscape:cy="-92.609629"
     inkscape:window-x="-8"
     inkscape:window-y="-8"
     inkscape:window-maximized="1"
     inkscape:current-layer="svg4141"
     fit-margin-top="0"
     fit-margin-left="0"
     fit-margin-right="0"
     fit-margin-bottom="0" />
  <title
     id="title3931">Untitled-2</title>
  <desc
     id="desc3933">Generated by MuseScore 3.0.5</desc>
  <polyline
     class="Stem"
     points="1006.2,374.537 1006.2,297.982"
     id="polyline4027"
     transform="translate(-974.91199,-296.33386)"
     style="fill:none;stroke:#000000;stroke-width:3.25;stroke-linecap:round;stroke-linejoin:bevel" />
  <path
     class="Note"
     d="m 21.969,69.133144 c 3.129,0 5.769,0.812 7.919,2.437 2.01,1.761 3.02,3.974 3.02,6.641 0,4.49 -2.31,8.687 -6.92,12.594 -4.691,3.906 -9.707,5.859 -15.051,5.859 -3.125,0 -5.76,-0.812 -7.906,-2.437 -2.021,-1.761 -3.031,-3.974 -3.031,-6.641 0,-4.49 2.344,-8.688 7.031,-12.594 4.563,-3.906 9.542,-5.859 14.938,-5.859"
     id="path4037"
     inkscape:connector-curvature="0" />
  <path
     class="Hook"
     d="m 29.668,26.648148 v -25 h 3.12 c 0,3.709 0.72,7.422 2.16,11.141 1.56,4.031 3.28,7.547 5.17,10.547 1.36,2.146 3.42,5.432 6.16,9.859 2.08,3.386 3.84,6.933 5.27,10.641 1.43,3.708 2.15,7.421996 2.15,11.140996 0,6.77 -1.4,13.671 -4.21,20.703 -0.52,0.781 -1.14,1.172 -1.86,1.172 -0.64,0 -1.22,-0.261 -1.75,-0.782 -0.39,-0.396 -0.59,-0.885 -0.59,-1.468 v -0.485 c 2.8,-6.448 4.2,-12.828 4.2,-19.14 0,-3.261 -0.98,-6.776996 -2.93,-10.546996 -1.95,-3.844 -3.94,-6.907 -5.96,-9.188 -2.28,-2.667 -4.88,-5.531 -7.81,-8.594 h -3.12"
     id="path4139"
     inkscape:connector-curvature="0" />
</svg>
