<?xml version="1.0" encoding="UTF-8" standalone="no"?>
<svg
   xmlns:dc="http://purl.org/dc/elements/1.1/"
   xmlns:cc="http://creativecommons.org/ns#"
   xmlns:rdf="http://www.w3.org/1999/02/22-rdf-syntax-ns#"
   xmlns:svg="http://www.w3.org/2000/svg"
   xmlns="http://www.w3.org/2000/svg"
   xmlns:sodipodi="http://sodipodi.sourceforge.net/DTD/sodipodi-0.dtd"
   xmlns:inkscape="http://www.inkscape.org/namespaces/inkscape"
   width="34.764999"
   height="96.664146"
   viewBox="0 0 34.764999 96.664146"
   version="1.2"
   id="svg4141"
   sodipodi:docname="half-note.svg"
   inkscape:version="0.92.4 (5da689c313, 2019-01-14)">
  <metadata
     id="metadata4147">
    <rdf:RDF>
      <cc:Work
         rdf:about="">
        <dc:format>image/svg+xml</dc:format>
        <dc:type
           rdf:resource="http://purl.org/dc/dcmitype/StillImage" />
        <dc:title>Untitled-2</dc:title>
      </cc:Work>
    </rdf:RDF>
  </metadata>
  <defs
     id="defs4145" />
  <sodipodi:namedview
     pagecolor="#ffffff"
     bordercolor="#666666"
     borderopacity="1"
     objecttolerance="10"
     gridtolerance="10"
     guidetolerance="10"
     inkscape:pageopacity="0"
     inkscape:pageshadow="2"
     inkscape:window-width="1920"
     inkscape:window-height="1017"
     id="namedview4143"
     showgrid="false"
     inkscape:zoom="0.85656566"
     inkscape:cx="583.26423"
     inkscape:cy="-72.83428"
     inkscape:window-x="-8"
     inkscape:window-y="-8"
     inkscape:window-maximized="1"
     inkscape:current-layer="svg4141"
     fit-margin-top="0"
     fit-margin-left="0"
     fit-margin-right="0"
     fit-margin-bottom="0" />
  <title
     id="title3931">Untitled-2</title>
  <desc
     id="desc3933">Generated by MuseScore 3.0.5</desc>
  <polyline
     class="Stem"
     points="645.717,375.392 645.717,297.982"
     id="polyline4031"
     transform="translate(-612.62401,-296.33386)"
     style="fill:none;stroke:#000000;stroke-width:3.25;stroke-linecap:round;stroke-linejoin:bevel" />
  <path
     class="Note"
     d="m 31.547,76.352144 c 0,-1.105 -0.422,-2.047 -1.266,-2.829 -0.854,-0.843 -1.833,-1.265 -2.938,-1.265 -1.948,0 -5.885,1.953 -11.812,5.859 -6.125,3.969 -9.87,6.802 -11.234,8.5 -0.719,0.906 -1.079,1.849 -1.079,2.828 0,1.104 0.427,2.047 1.282,2.828 0.781,0.844 1.755,1.266 2.922,1.266 1.885,0 5.859,-1.953 11.921,-5.859 5.99,-3.907 9.698,-6.74 11.125,-8.5 0.719,-0.844 1.079,-1.787 1.079,-2.828 m -5.172,-7.219 c 5.593,0 8.39,2.406 8.39,7.219 0,2.343 -0.682,5.078 -2.047,8.203 -1.364,3.062 -3.187,5.406 -5.468,7.031 -5.011,3.385 -11.292,5.078 -18.844,5.078 -5.604,0 -8.406,-2.406 -8.406,-7.219 0,-2.146 0.682,-4.849 2.047,-8.109 1.302,-3.125 3.125,-5.5 5.468,-7.125 5.021,-3.385 11.308,-5.078 18.86,-5.078"
     id="path4041"
     inkscape:connector-curvature="0" />
</svg>
