<?xml version="1.0" encoding="UTF-8" standalone="no"?>
<svg width="3060px" height="3960px" viewBox="0 0 3060 3960"
 xmlns="http://www.w3.org/2000/svg" xmlns:xlink="http://www.w3.org/1999/xlink" version="1.2" baseProfile="tiny">
<title>measures</title>
<desc>Generated by MuseScore 3.0.5</desc>
<polyline class="StaffLines" fill="none" stroke="#000000" stroke-width="2.00" stroke-linejoin="bevel" points="141.732,316.732 2918.27,316.732"/>
<polyline class="StaffLines" fill="none" stroke="#000000" stroke-width="2.00" stroke-linejoin="bevel" points="141.732,341.732 2918.27,341.732"/>
<polyline class="StaffLines" fill="none" stroke="#000000" stroke-width="2.00" stroke-linejoin="bevel" points="141.732,366.732 2918.27,366.732"/>
<polyline class="StaffLines" fill="none" stroke="#000000" stroke-width="2.00" stroke-linejoin="bevel" points="141.732,391.732 2918.27,391.732"/>
<polyline class="StaffLines" fill="none" stroke="#000000" stroke-width="2.00" stroke-linejoin="bevel" points="141.732,416.732 2918.27,416.732"/>
<polyline class="BarLine" fill="none" stroke="#000000" stroke-width="4.00" stroke-linejoin="bevel" points="2893.77,315.732 2893.77,417.732"/>
<polyline class="BarLine" fill="none" stroke="#000000" stroke-width="12.50" stroke-linejoin="bevel" points="2912.02,315.732 2912.02,417.732"/>
<polyline class="BarLine" fill="none" stroke="#000000" stroke-width="4.00" stroke-linejoin="bevel" points="2260.49,315.732 2260.49,417.732"/>
<polyline class="BarLine" fill="none" stroke="#000000" stroke-width="4.00" stroke-linejoin="bevel" points="1627.21,315.732 1627.21,417.732"/>
<polyline class="BarLine" fill="none" stroke="#000000" stroke-width="4.00" stroke-linejoin="bevel" points="993.939,315.732 993.939,417.732"/>
<polyline class="Stem" fill="none" stroke="#000000" stroke-width="3.25" stroke-linecap="round" stroke-linejoin="bevel" points="2771.99,399.537 2771.99,316.732"/>
<polyline class="Stem" fill="none" stroke="#000000" stroke-width="3.25" stroke-linecap="round" stroke-linejoin="bevel" points="2620.92,387.037 2620.92,307.357"/>
<polyline class="Stem" fill="none" stroke="#000000" stroke-width="3.25" stroke-linecap="round" stroke-linejoin="bevel" points="2469.85,374.537 2469.85,297.982"/>
<polyline class="Stem" fill="none" stroke="#000000" stroke-width="3.25" stroke-linecap="round" stroke-linejoin="bevel" points="2289.12,371.428 2289.12,444.857"/>
<polyline class="Stem" fill="none" stroke="#000000" stroke-width="3.25" stroke-linecap="round" stroke-linejoin="bevel" points="2109.05,358.928 2109.05,435.482"/>
<polyline class="Stem" fill="none" stroke="#000000" stroke-width="3.25" stroke-linecap="round" stroke-linejoin="bevel" points="1957.98,346.428 1957.98,426.107"/>
<polyline class="Stem" fill="none" stroke="#000000" stroke-width="3.25" stroke-linecap="round" stroke-linejoin="bevel" points="1806.91,333.928 1806.91,416.732"/>
<polyline class="Stem" fill="none" stroke="#000000" stroke-width="3.25" stroke-linecap="round" stroke-linejoin="bevel" points="1655.84,321.428 1655.84,404.232"/>
<polyline class="Stem" fill="none" stroke="#000000" stroke-width="3.25" stroke-linecap="round" stroke-linejoin="bevel" points="1475.77,321.428 1475.77,404.232"/>
<polyline class="Stem" fill="none" stroke="#000000" stroke-width="3.25" stroke-linecap="round" stroke-linejoin="bevel" points="1324.7,333.928 1324.7,416.732"/>
<polyline class="Stem" fill="none" stroke="#000000" stroke-width="3.25" stroke-linecap="round" stroke-linejoin="bevel" points="1173.63,346.428 1173.63,426.107"/>
<polyline class="Stem" fill="none" stroke="#000000" stroke-width="3.25" stroke-linecap="round" stroke-linejoin="bevel" points="1022.56,358.928 1022.56,435.482"/>
<polyline class="Stem" fill="none" stroke="#000000" stroke-width="3.25" stroke-linecap="round" stroke-linejoin="bevel" points="842.494,371.428 842.494,444.857"/>
<polyline class="Stem" fill="none" stroke="#000000" stroke-width="3.25" stroke-linecap="round" stroke-linejoin="bevel" points="721.089,374.537 721.089,297.982"/>
<polyline class="Stem" fill="none" stroke="#000000" stroke-width="3.25" stroke-linecap="round" stroke-linejoin="bevel" points="570.02,387.037 570.02,307.357"/>
<polyline class="Stem" fill="none" stroke="#000000" stroke-width="3.25" stroke-linecap="round" stroke-linejoin="bevel" points="418.951,399.537 418.951,316.732"/>
<path class="Note" d="M2762.67,390.467 C2765.79,390.467 2768.43,391.279 2770.59,392.904 C2772.6,394.665 2773.6,396.878 2773.6,399.545 C2773.6,404.035 2771.3,408.232 2766.68,412.139 C2762,416.045 2756.98,417.998 2751.64,417.998 C2748.51,417.998 2745.88,417.186 2743.73,415.561 C2741.71,413.8 2740.7,411.587 2740.7,408.92 C2740.7,404.43 2743.04,400.232 2747.73,396.326 C2752.29,392.42 2757.27,390.467 2762.67,390.467"/>
<path class="Note" d="M2611.6,377.967 C2614.72,377.967 2617.36,378.779 2619.52,380.404 C2621.53,382.165 2622.54,384.378 2622.54,387.045 C2622.54,391.535 2620.23,395.732 2615.61,399.639 C2610.93,403.545 2605.91,405.498 2600.57,405.498 C2597.44,405.498 2594.81,404.686 2592.66,403.061 C2590.64,401.3 2589.63,399.087 2589.63,396.42 C2589.63,391.93 2591.97,387.732 2596.66,383.826 C2601.22,379.92 2606.2,377.967 2611.6,377.967"/>
<path class="Note" d="M2460.53,365.467 C2463.65,365.467 2466.29,366.279 2468.45,367.904 C2470.46,369.665 2471.47,371.878 2471.47,374.545 C2471.47,379.035 2469.16,383.232 2464.54,387.139 C2459.86,391.045 2454.84,392.998 2449.5,392.998 C2446.37,392.998 2443.74,392.186 2441.59,390.561 C2439.57,388.8 2438.56,386.587 2438.56,383.92 C2438.56,379.43 2440.9,375.232 2445.59,371.326 C2450.15,367.42 2455.13,365.467 2460.53,365.467"/>
<path class="Note" d="M2309.46,352.967 C2312.59,352.967 2315.23,353.779 2317.38,355.404 C2319.39,357.165 2320.4,359.378 2320.4,362.045 C2320.4,366.535 2318.09,370.732 2313.48,374.639 C2308.79,378.545 2303.77,380.498 2298.43,380.498 C2295.3,380.498 2292.67,379.686 2290.52,378.061 C2288.5,376.3 2287.49,374.087 2287.49,371.42 C2287.49,366.93 2289.84,362.732 2294.52,358.826 C2299.09,354.92 2304.06,352.967 2309.46,352.967"/>
<path class="Note" d="M2129.39,340.467 C2132.52,340.467 2135.16,341.279 2137.31,342.904 C2139.32,344.665 2140.33,346.878 2140.33,349.545 C2140.33,354.035 2138.02,358.232 2133.41,362.139 C2128.72,366.045 2123.7,367.998 2118.36,367.998 C2115.23,367.998 2112.6,367.186 2110.45,365.561 C2108.43,363.8 2107.42,361.587 2107.42,358.92 C2107.42,354.43 2109.77,350.232 2114.45,346.326 C2119.02,342.42 2124,340.467 2129.39,340.467"/>
<path class="Note" d="M1978.32,327.967 C1981.45,327.967 1984.09,328.779 1986.24,330.404 C1988.25,332.165 1989.26,334.378 1989.26,337.045 C1989.26,341.534 1986.95,345.732 1982.34,349.639 C1977.65,353.545 1972.63,355.498 1967.29,355.498 C1964.17,355.498 1961.53,354.686 1959.38,353.061 C1957.36,351.3 1956.35,349.087 1956.35,346.42 C1956.35,341.93 1958.7,337.732 1963.38,333.826 C1967.95,329.92 1972.93,327.967 1978.32,327.967"/>
<path class="Note" d="M1827.25,315.467 C1830.38,315.467 1833.02,316.279 1835.17,317.904 C1837.19,319.665 1838.19,321.878 1838.19,324.545 C1838.19,329.034 1835.88,333.232 1831.27,337.139 C1826.58,341.045 1821.57,342.998 1816.22,342.998 C1813.1,342.998 1810.46,342.186 1808.32,340.561 C1806.29,338.8 1805.28,336.587 1805.28,333.92 C1805.28,329.43 1807.63,325.232 1812.32,321.326 C1816.88,317.42 1821.86,315.467 1827.25,315.467"/>
<path class="Note" d="M1676.18,302.967 C1679.31,302.967 1681.95,303.779 1684.11,305.404 C1686.12,307.165 1687.12,309.378 1687.12,312.045 C1687.12,316.534 1684.81,320.732 1680.2,324.639 C1675.51,328.545 1670.5,330.498 1665.15,330.498 C1662.03,330.498 1659.39,329.686 1657.25,328.061 C1655.23,326.3 1654.21,324.087 1654.21,321.42 C1654.21,316.93 1656.56,312.732 1661.25,308.826 C1665.81,304.92 1670.79,302.967 1676.18,302.967"/>
<path class="Note" d="M1496.11,302.967 C1499.24,302.967 1501.88,303.779 1504.04,305.404 C1506.05,307.165 1507.05,309.378 1507.05,312.045 C1507.05,316.534 1504.74,320.732 1500.13,324.639 C1495.44,328.545 1490.43,330.498 1485.08,330.498 C1481.96,330.498 1479.32,329.686 1477.18,328.061 C1475.16,326.3 1474.15,324.087 1474.15,321.42 C1474.15,316.93 1476.49,312.732 1481.18,308.826 C1485.74,304.92 1490.72,302.967 1496.11,302.967"/>
<path class="Note" d="M1345.05,315.467 C1348.17,315.467 1350.81,316.279 1352.97,317.904 C1354.98,319.665 1355.98,321.878 1355.98,324.545 C1355.98,329.034 1353.68,333.232 1349.06,337.139 C1344.37,341.045 1339.36,342.998 1334.01,342.998 C1330.89,342.998 1328.25,342.186 1326.11,340.561 C1324.09,338.8 1323.08,336.587 1323.08,333.92 C1323.08,329.43 1325.42,325.232 1330.11,321.326 C1334.67,317.42 1339.65,315.467 1345.05,315.467"/>
<path class="Note" d="M1193.98,327.967 C1197.1,327.967 1199.74,328.779 1201.9,330.404 C1203.91,332.165 1204.91,334.378 1204.91,337.045 C1204.91,341.534 1202.61,345.732 1197.99,349.639 C1193.3,353.545 1188.29,355.498 1182.95,355.498 C1179.82,355.498 1177.18,354.686 1175.04,353.061 C1173.02,351.3 1172.01,349.087 1172.01,346.42 C1172.01,341.93 1174.35,337.732 1179.04,333.826 C1183.6,329.92 1188.58,327.967 1193.98,327.967"/>
<path class="Note" d="M1042.91,340.467 C1046.03,340.467 1048.67,341.279 1050.83,342.904 C1052.84,344.665 1053.84,346.878 1053.84,349.545 C1053.84,354.035 1051.54,358.232 1046.92,362.139 C1042.24,366.045 1037.22,367.998 1031.88,367.998 C1028.75,367.998 1026.12,367.186 1023.97,365.561 C1021.95,363.8 1020.94,361.587 1020.94,358.92 C1020.94,354.43 1023.28,350.232 1027.97,346.326 C1032.53,342.42 1037.51,340.467 1042.91,340.467"/>
<path class="Note" d="M862.838,352.967 C865.963,352.967 868.604,353.779 870.76,355.404 C872.77,357.165 873.776,359.378 873.776,362.045 C873.776,366.535 871.468,370.732 866.854,374.639 C862.166,378.545 857.151,380.498 851.807,380.498 C848.682,380.498 846.046,379.686 843.901,378.061 C841.88,376.3 840.869,374.087 840.869,371.42 C840.869,366.93 843.213,362.732 847.901,358.826 C852.463,354.92 857.442,352.967 862.838,352.967"/>
<path class="Note" d="M711.769,365.467 C714.894,365.467 717.535,366.279 719.691,367.904 C721.701,369.665 722.707,371.878 722.707,374.545 C722.707,379.035 720.399,383.232 715.785,387.139 C711.097,391.045 706.082,392.998 700.738,392.998 C697.613,392.998 694.977,392.186 692.832,390.561 C690.811,388.8 689.8,386.587 689.8,383.92 C689.8,379.43 692.144,375.232 696.832,371.326 C701.394,367.42 706.373,365.467 711.769,365.467"/>
<path class="Note" d="M560.7,377.967 C563.825,377.967 566.466,378.779 568.622,380.404 C570.632,382.165 571.637,384.378 571.637,387.045 C571.637,391.535 569.33,395.732 564.716,399.639 C560.028,403.545 555.012,405.498 549.669,405.498 C546.544,405.498 543.908,404.686 541.762,403.061 C539.742,401.3 538.731,399.087 538.731,396.42 C538.731,391.93 541.075,387.732 545.762,383.826 C550.325,379.92 555.304,377.967 560.7,377.967"/>
<path class="Note" d="M409.631,390.467 C412.756,390.467 415.397,391.279 417.553,392.904 C419.563,394.665 420.568,396.878 420.568,399.545 C420.568,404.035 418.261,408.232 413.647,412.139 C408.959,416.045 403.943,417.998 398.6,417.998 C395.475,417.998 392.839,417.186 390.693,415.561 C388.673,413.8 387.662,411.587 387.662,408.92 C387.662,404.43 390.006,400.232 394.693,396.326 C399.256,392.42 404.235,390.467 409.631,390.467"/>
<path class="Clef" d="M198.451,366.139 C198.451,366.139 198.649,366.139 199.045,366.139 C199.305,366.076 199.529,366.045 199.717,366.045 C207.008,366.045 212.998,368.618 217.685,373.764 C222.373,378.837 224.717,384.758 224.717,391.529 C224.717,399.936 221.238,406.774 214.279,412.045 C212.456,413.482 210.076,414.654 207.139,415.561 C207.472,419.79 207.639,423.206 207.639,425.811 C207.639,426.331 207.571,428.222 207.435,431.482 C207.175,437.535 205.092,442.774 201.185,447.201 C197.415,451.566 192.727,453.748 187.123,453.748 C181.852,453.748 177.363,451.894 173.654,448.186 C169.935,444.404 168.076,439.847 168.076,434.514 C168.076,431.712 169.154,429.331 171.31,427.373 C173.519,425.425 176.086,424.451 179.014,424.451 C181.618,424.451 183.8,425.462 185.56,427.482 C187.383,429.368 188.295,431.712 188.295,434.514 C188.295,437.045 187.383,439.222 185.56,441.045 C183.738,442.868 181.555,443.779 179.014,443.779 C177.972,443.779 176.967,443.587 175.998,443.201 C178.863,447.43 182.67,449.545 187.42,449.545 C191.909,449.545 195.586,447.722 198.451,444.076 C201.451,440.305 203.081,435.91 203.342,430.889 C203.467,427.764 203.529,425.977 203.529,425.529 C203.529,421.883 203.399,418.889 203.139,416.545 C199.889,417.066 196.993,417.326 194.451,417.326 C185.399,417.326 177.685,413.743 171.31,406.576 C165.06,399.347 161.935,390.753 161.935,380.795 C161.935,378.712 162.128,376.597 162.514,374.451 C162.909,372.691 163.399,370.769 163.982,368.686 C164.305,367.508 165.185,365.618 166.623,363.014 C167.144,362.232 167.73,361.256 168.381,360.084 C169.032,358.912 169.488,358.133 169.748,357.748 C170.394,356.446 171.659,354.686 173.545,352.467 C174.066,351.883 174.605,351.235 175.162,350.522 C175.719,349.808 176.193,349.222 176.584,348.764 C176.974,348.305 177.266,347.946 177.459,347.686 C177.652,347.425 179.118,345.701 181.857,342.514 C182.503,341.857 183.136,341.157 183.756,340.412 C184.376,339.667 184.881,339.081 185.271,338.654 C185.662,338.227 185.956,337.92 186.154,337.732 C183.81,329.982 182.342,323.795 181.748,319.17 C181.3,315.462 181.076,310.383 181.076,303.936 C181.076,298.269 182.378,292.962 184.982,288.014 C187.514,282.878 191.06,278.68 195.623,275.42 C195.883,275.222 196.206,275.123 196.592,275.123 C197.05,275.123 197.378,275.222 197.576,275.42 C201.086,279.649 204.113,285.149 206.654,291.92 C209.258,298.691 210.56,304.847 210.56,310.389 C210.56,316.639 209.066,322.498 206.076,327.967 C202.691,333.758 198.326,339.748 192.982,345.936 C194.347,350.227 196.17,356.962 198.451,366.139 M206.748,411.561 C210.133,410.321 212.774,408.206 214.67,405.217 C216.753,402.352 217.795,399.128 217.795,395.545 C217.795,390.92 216.232,386.816 213.107,383.232 C209.909,379.524 205.836,377.441 200.889,376.982 C203.691,390.722 205.644,402.248 206.748,411.561 M168.967,388.998 C168.967,395.446 171.571,401.113 176.779,405.998 C182.113,410.748 188.102,413.123 194.748,413.123 C197.477,413.123 200.144,412.925 202.748,412.529 C201.706,402.633 199.654,390.785 196.592,376.982 C192.883,377.378 189.925,378.68 187.717,380.889 C185.56,383.17 184.482,385.743 184.482,388.607 C184.482,393.555 187.123,397.561 192.404,400.623 C192.852,401.081 193.076,401.571 193.076,402.092 C193.076,402.613 192.852,403.097 192.404,403.545 C192.008,404.003 191.519,404.232 190.935,404.232 C190.873,404.232 190.581,404.17 190.06,404.045 C186.342,402.024 183.477,399.42 181.467,396.232 C179.571,392.837 178.623,389.415 178.623,385.967 C178.623,381.477 180.024,377.41 182.826,373.764 C185.753,370.118 189.56,367.774 194.248,366.732 C192.425,359.441 190.93,353.743 189.764,349.639 C188.722,350.816 187.469,352.232 186.006,353.889 C184.542,355.545 183.68,356.54 183.42,356.873 C181.076,359.925 179.284,362.3 178.045,363.998 C175.826,367.061 174.196,369.696 173.154,371.904 C172.05,374.383 171.076,377.087 170.232,380.014 C169.389,382.816 168.967,385.811 168.967,388.998 M201.576,289.686 C196.691,292.092 192.852,295.54 190.06,300.029 C187.196,304.654 185.764,309.633 185.764,314.967 C185.764,319.654 186.935,325.972 189.279,333.92 C193.967,328.253 197.482,323.014 199.826,318.201 C202.295,313.118 203.529,307.811 203.529,302.279 C203.529,298.113 202.878,293.915 201.576,289.686"/>
<path class="KeySig" d="M254.85,362.623 L254.85,370.342 C254.85,373.081 254.98,375.264 255.24,376.889 C257.386,375.066 258.917,373.701 259.834,372.795 C260.876,371.753 261.917,370.318 262.959,368.49 C264.001,366.662 264.521,364.837 264.521,363.014 C264.521,361.191 264.131,359.628 263.35,358.326 C262.568,357.024 261.527,356.373 260.225,356.373 C258.662,356.373 257.36,356.962 256.318,358.139 C255.339,359.441 254.85,360.936 254.85,362.623 M250.74,380.498 L249.475,321.029 C250.391,320.508 251.305,320.248 252.217,320.248 C253.128,320.248 254.037,320.508 254.943,321.029 L254.162,355.498 C256.829,353.217 259.891,352.076 263.35,352.076 C265.881,352.076 267.993,353.118 269.685,355.201 C271.378,357.285 272.225,359.665 272.225,362.342 C272.225,364.029 271.672,365.821 270.568,367.717 C269.527,369.467 268.422,370.831 267.256,371.811 C266.6,372.331 264.938,373.633 262.271,375.717 C261.49,376.3 260.563,376.982 259.49,377.764 C258.417,378.545 257.751,379.035 257.49,379.232 C257.032,379.493 256.605,380.014 256.209,380.795 C255.761,381.451 255.24,382.003 254.646,382.451 C254.198,382.847 253.649,383.045 252.998,383.045 C252.347,383.045 251.823,382.816 251.428,382.357 C250.969,381.899 250.74,381.279 250.74,380.498"/>
<path class="TimeSig" d="M320.225,317.912 C322.172,317.912 323.831,317.686 325.201,317.232 C326.571,316.779 327.449,316.553 327.834,316.553 C328.292,316.553 328.652,316.683 328.912,316.943 C329.11,317.131 329.24,317.355 329.303,317.615 C329.303,317.751 329.235,317.949 329.1,318.209 L300.693,351.225 L317.381,351.225 L317.381,338.131 C317.381,337.287 317.61,336.568 318.068,335.975 C318.85,335.329 319.501,334.938 320.021,334.803 C320.865,334.417 321.907,333.506 323.146,332.068 C324.188,330.902 325.428,328.855 326.865,325.928 C327.053,325.532 327.344,325.334 327.74,325.334 C328.521,325.334 328.975,325.792 329.1,326.709 L329.1,351.225 L336.24,351.225 C337.146,351.225 337.667,351.709 337.803,352.678 C337.803,353.657 337.282,354.146 336.24,354.146 L329.1,354.146 L329.1,354.928 C329.1,357.532 329.751,359.745 331.053,361.568 C332.553,363.391 334.313,364.303 336.334,364.303 C337.115,364.303 337.506,364.693 337.506,365.475 C337.506,366.256 337.115,366.646 336.334,366.646 C334.969,366.646 332.756,366.454 329.693,366.068 C326.891,365.61 324.709,365.381 323.146,365.381 C321.521,365.381 319.339,365.61 316.6,366.068 C313.672,366.454 311.495,366.646 310.068,366.646 C309.287,366.646 308.896,366.256 308.896,365.475 C308.896,364.693 309.287,364.303 310.068,364.303 C312.079,364.303 313.834,363.391 315.334,361.568 C316.699,359.683 317.381,357.469 317.381,354.928 L317.381,354.146 L300.693,354.146 C299.579,354.146 298.797,353.886 298.35,353.365 C297.818,352.98 297.553,352.459 297.553,351.803 C297.553,351.605 298.042,350.923 299.021,349.756 C300.136,348.454 301.308,346.86 302.537,344.975 C303.975,342.756 305.344,340.475 306.646,338.131 C308.074,335.464 309.214,332.402 310.068,328.943 C311.037,325.433 311.521,321.855 311.521,318.209 C311.521,317.167 311.98,316.646 312.896,316.646 C313.094,316.646 313.516,316.745 314.162,316.943 C314.36,317.006 314.769,317.102 315.389,317.232 C316.008,317.363 316.511,317.49 316.896,317.615 C318.074,317.813 319.183,317.912 320.225,317.912"/>
<path class="TimeSig" d="M320.225,368.084 C322.172,368.084 323.831,367.857 325.201,367.404 C326.571,366.951 327.449,366.725 327.834,366.725 C328.292,366.725 328.652,366.855 328.912,367.115 C329.11,367.303 329.24,367.527 329.303,367.787 C329.303,367.923 329.235,368.12 329.1,368.381 L300.693,401.397 L317.381,401.397 L317.381,388.303 C317.381,387.459 317.61,386.74 318.068,386.147 C318.85,385.501 319.501,385.11 320.021,384.975 C320.865,384.589 321.907,383.678 323.146,382.24 C324.188,381.074 325.428,379.027 326.865,376.1 C327.053,375.704 327.344,375.506 327.74,375.506 C328.521,375.506 328.975,375.964 329.1,376.881 L329.1,401.397 L336.24,401.397 C337.146,401.397 337.667,401.881 337.803,402.85 C337.803,403.829 337.282,404.318 336.24,404.318 L329.1,404.318 L329.1,405.1 C329.1,407.704 329.751,409.917 331.053,411.74 C332.553,413.563 334.313,414.475 336.334,414.475 C337.115,414.475 337.506,414.865 337.506,415.647 C337.506,416.428 337.115,416.818 336.334,416.818 C334.969,416.818 332.756,416.626 329.693,416.24 C326.891,415.782 324.709,415.553 323.146,415.553 C321.521,415.553 319.339,415.782 316.6,416.24 C313.672,416.626 311.495,416.818 310.068,416.818 C309.287,416.818 308.896,416.428 308.896,415.647 C308.896,414.865 309.287,414.475 310.068,414.475 C312.079,414.475 313.834,413.563 315.334,411.74 C316.699,409.855 317.381,407.641 317.381,405.1 L317.381,404.318 L300.693,404.318 C299.579,404.318 298.797,404.058 298.35,403.537 C297.818,403.152 297.553,402.631 297.553,401.975 C297.553,401.777 298.042,401.094 299.021,399.928 C300.136,398.626 301.308,397.032 302.537,395.147 C303.975,392.928 305.344,390.647 306.646,388.303 C308.074,385.636 309.214,382.574 310.068,379.115 C311.037,375.605 311.521,372.027 311.521,368.381 C311.521,367.339 311.98,366.818 312.896,366.818 C313.094,366.818 313.516,366.917 314.162,367.115 C314.36,367.178 314.769,367.274 315.389,367.404 C316.008,367.535 316.511,367.662 316.896,367.787 C318.074,367.985 319.183,368.084 320.225,368.084"/>
<path class="StaffText" d="M2479.35,535.451 L2466.54,564.108 L2465.84,564.108 L2453.29,536.608 L2453.29,556.764 C2453.29,559.295 2453.59,560.97 2454.19,561.787 C2454.79,562.605 2456.05,563.061 2457.99,563.154 L2457.99,564.108 L2446.24,564.108 L2446.24,563.154 C2448.3,563.019 2449.63,562.561 2450.21,561.779 C2450.79,560.998 2451.09,559.326 2451.09,556.764 L2451.09,536.451 C2451.09,534.618 2450.81,533.443 2450.26,532.928 C2449.72,532.412 2448.41,532.087 2446.34,531.951 L2446.34,530.998 L2456.24,530.998 L2467.79,556.264 L2478.85,530.998 L2488.79,530.998 L2488.79,531.951 C2486.92,532.118 2485.73,532.47 2485.22,533.006 C2484.7,533.542 2484.44,534.691 2484.44,536.451 L2484.44,558.654 C2484.44,560.425 2484.71,561.584 2485.24,562.131 C2485.77,562.678 2486.96,563.019 2488.79,563.154 L2488.79,564.108 L2474.79,564.108 L2474.79,563.154 C2476.76,563.019 2478.01,562.66 2478.55,562.076 C2479.08,561.493 2479.35,560.17 2479.35,558.108 L2479.35,535.451 M2494.34,550.264 C2494.41,552.358 2494.69,554.162 2495.19,555.678 C2495.69,557.193 2496.34,558.326 2497.14,559.076 C2497.94,559.826 2498.74,560.36 2499.56,560.678 C2500.38,560.996 2501.24,561.154 2502.15,561.154 C2503.74,561.154 2505.13,560.756 2506.31,559.959 C2507.49,559.162 2508.69,557.811 2509.9,555.904 L2510.69,556.264 C2509.66,558.962 2508.23,561.027 2506.4,562.459 C2504.56,563.891 2502.46,564.608 2500.09,564.608 C2497.22,564.608 2494.95,563.6 2493.26,561.584 C2491.58,559.568 2490.74,556.842 2490.74,553.404 C2490.74,549.706 2491.72,546.733 2493.66,544.483 C2495.61,542.233 2498.12,541.108 2501.19,541.108 C2503.73,541.108 2505.69,541.865 2507.09,543.381 C2508.49,544.897 2509.38,547.191 2509.74,550.264 L2494.34,550.264 M2494.44,548.764 L2504.65,548.764 C2504.31,546.597 2503.8,545.097 2503.09,544.264 C2502.39,543.43 2501.27,543.014 2499.74,543.014 C2496.74,543.014 2494.98,544.93 2494.44,548.764 M2512.74,559.17 C2512.74,558.576 2512.81,558.022 2512.94,557.506 C2513.08,556.99 2513.31,556.509 2513.65,556.061 C2513.98,555.613 2514.3,555.206 2514.59,554.842 C2514.89,554.477 2515.34,554.105 2515.94,553.725 C2516.54,553.345 2517.04,553.029 2517.44,552.779 C2517.84,552.529 2518.45,552.23 2519.26,551.881 C2520.08,551.532 2520.71,551.266 2521.14,551.084 C2521.57,550.902 2522.25,550.628 2523.19,550.264 C2524.12,549.899 2524.8,549.634 2525.24,549.467 L2525.24,546.436 C2525.24,543.686 2523.98,542.311 2521.44,542.311 C2520.44,542.311 2519.59,542.553 2518.89,543.037 C2518.19,543.522 2517.84,544.097 2517.84,544.764 C2517.84,545.024 2517.88,545.389 2517.96,545.858 C2518.04,546.326 2518.09,546.628 2518.09,546.764 C2518.09,547.326 2517.86,547.816 2517.41,548.233 C2516.97,548.649 2516.44,548.858 2515.84,548.858 C2515.27,548.858 2514.78,548.641 2514.34,548.209 C2513.91,547.777 2513.69,547.274 2513.69,546.701 C2513.69,545.139 2514.5,543.816 2516.12,542.733 C2517.73,541.649 2519.72,541.108 2522.09,541.108 C2524.82,541.108 2526.71,541.764 2527.74,543.076 C2528.77,544.389 2529.29,546.389 2529.29,549.076 L2529.29,558.779 C2529.29,559.873 2529.4,560.626 2529.62,561.037 C2529.84,561.449 2530.23,561.654 2530.79,561.654 C2531.49,561.654 2532.22,561.342 2532.99,560.717 L2532.99,562.014 C2532.13,563.014 2531.37,563.696 2530.72,564.061 C2530.07,564.425 2529.32,564.608 2528.49,564.608 C2527.46,564.608 2526.7,564.316 2526.22,563.733 C2525.73,563.149 2525.42,562.191 2525.29,560.858 C2522.42,563.358 2519.99,564.608 2517.99,564.608 C2516.46,564.608 2515.2,564.1 2514.22,563.084 C2513.23,562.068 2512.74,560.764 2512.74,559.17 M2525.24,557.873 L2525.24,550.67 C2522.24,551.764 2520.14,552.824 2518.94,553.85 C2517.75,554.876 2517.15,556.118 2517.15,557.576 C2517.15,558.941 2517.48,559.954 2518.15,560.615 C2518.81,561.277 2519.53,561.608 2520.29,561.608 C2521.42,561.608 2522.64,561.227 2523.94,560.467 C2524.48,560.165 2524.82,559.847 2524.99,559.514 C2525.16,559.18 2525.24,558.634 2525.24,557.873 M2546.9,542.108 C2546.93,542.108 2547.19,541.941 2547.69,541.608 L2548.24,541.608 L2548.44,548.404 L2547.69,548.404 C2547.12,546.175 2546.42,544.595 2545.59,543.662 C2544.75,542.73 2543.62,542.264 2542.19,542.264 C2541.06,542.264 2540.13,542.579 2539.41,543.209 C2538.69,543.839 2538.34,544.654 2538.34,545.654 C2538.34,547.092 2539.05,548.227 2540.49,549.061 L2545.9,552.264 C2547.4,553.16 2548.47,554.066 2549.12,554.983 C2549.76,555.899 2550.09,556.972 2550.09,558.201 C2550.09,559.941 2549.4,561.443 2548.01,562.709 C2546.63,563.975 2544.98,564.608 2543.04,564.608 C2542.21,564.608 2541.09,564.456 2539.69,564.154 C2538.29,563.852 2537.42,563.701 2537.09,563.701 C2536.59,563.701 2536.21,563.904 2535.94,564.311 L2535.29,564.311 L2535.29,556.514 L2536.09,556.514 C2536.63,558.847 2537.26,560.493 2537.99,561.451 C2539.05,562.826 2540.54,563.514 2542.44,563.514 C2543.71,563.514 2544.71,563.188 2545.46,562.537 C2546.21,561.886 2546.59,561.009 2546.59,559.904 C2546.59,558.404 2545.72,557.154 2543.99,556.154 L2541.09,554.514 C2538.96,553.305 2537.46,552.152 2536.57,551.053 C2535.68,549.954 2535.24,548.706 2535.24,547.311 C2535.24,545.509 2535.88,544.032 2537.16,542.881 C2538.44,541.73 2540.07,541.154 2542.04,541.154 C2543.14,541.154 2544.18,541.313 2545.14,541.631 C2546.1,541.949 2546.69,542.108 2546.9,542.108 M2575.49,561.514 L2575.49,562.201 C2572.89,562.941 2570.61,563.727 2568.65,564.561 L2568.44,564.451 L2568.44,560.217 C2568.34,560.311 2568.05,560.608 2567.56,561.108 C2567.08,561.608 2566.74,561.954 2566.54,562.147 C2566.34,562.339 2566,562.634 2565.51,563.029 C2565.03,563.425 2564.61,563.709 2564.24,563.881 C2563.88,564.053 2563.41,564.217 2562.84,564.373 C2562.28,564.529 2561.71,564.608 2561.15,564.608 C2559.31,564.608 2557.85,564.009 2556.74,562.811 C2555.64,561.613 2555.09,560.019 2555.09,558.029 L2555.09,545.483 C2555.09,544.326 2554.87,543.524 2554.44,543.076 C2554,542.628 2553.19,542.373 2551.99,542.311 L2551.99,541.608 L2559.29,541.608 L2559.29,557.826 C2559.29,558.858 2559.64,559.746 2560.34,560.49 C2561.05,561.235 2561.88,561.608 2562.84,561.608 C2563.21,561.608 2563.65,561.558 2564.15,561.459 C2564.65,561.36 2565.22,561.17 2565.87,560.889 C2566.51,560.608 2567.06,560.16 2567.51,559.545 C2567.97,558.93 2568.19,558.175 2568.19,557.279 L2568.19,545.592 C2568.19,544.363 2567.97,543.55 2567.51,543.154 C2567.06,542.759 2566.05,542.524 2564.49,542.451 L2564.49,541.608 L2572.4,541.608 L2572.4,558.67 C2572.4,559.837 2572.58,560.602 2572.94,560.967 C2573.31,561.331 2574.07,561.514 2575.24,561.514 L2575.49,561.514 M2591.54,546.014 C2591.04,546.014 2590.42,545.722 2589.69,545.139 C2588.95,544.555 2588.47,544.264 2588.24,544.264 C2587.57,544.264 2586.82,544.746 2585.99,545.709 C2585.16,546.673 2584.74,547.555 2584.74,548.358 L2584.74,559.608 C2584.74,561.045 2585.03,562.014 2585.59,562.514 C2586.16,563.014 2587.29,563.295 2588.99,563.358 L2588.99,564.108 L2576.99,564.108 L2576.99,563.358 C2578.6,563.055 2579.59,562.722 2579.97,562.358 C2580.35,561.993 2580.54,561.175 2580.54,559.904 L2580.54,547.404 C2580.54,546.311 2580.41,545.537 2580.16,545.084 C2579.91,544.631 2579.47,544.404 2578.84,544.404 C2578.3,544.404 2577.72,544.472 2577.09,544.608 L2577.09,543.811 C2579.75,542.946 2582.22,542.045 2584.49,541.108 L2584.74,541.201 L2584.74,545.811 C2585.97,544.04 2587.02,542.813 2587.89,542.131 C2588.76,541.449 2589.71,541.108 2590.74,541.108 C2591.61,541.108 2592.28,541.342 2592.76,541.811 C2593.25,542.279 2593.49,542.93 2593.49,543.764 C2593.49,544.462 2593.32,545.011 2592.97,545.412 C2592.62,545.813 2592.14,546.014 2591.54,546.014 M2598.34,550.264 C2598.41,552.358 2598.69,554.162 2599.19,555.678 C2599.69,557.193 2600.34,558.326 2601.14,559.076 C2601.94,559.826 2602.74,560.36 2603.56,560.678 C2604.38,560.996 2605.24,561.154 2606.15,561.154 C2607.74,561.154 2609.13,560.756 2610.31,559.959 C2611.49,559.162 2612.69,557.811 2613.9,555.904 L2614.69,556.264 C2613.66,558.962 2612.23,561.027 2610.4,562.459 C2608.56,563.891 2606.46,564.608 2604.09,564.608 C2601.22,564.608 2598.95,563.6 2597.26,561.584 C2595.58,559.568 2594.74,556.842 2594.74,553.404 C2594.74,549.706 2595.72,546.733 2597.66,544.483 C2599.61,542.233 2602.12,541.108 2605.19,541.108 C2607.73,541.108 2609.69,541.865 2611.09,543.381 C2612.49,544.897 2613.38,547.191 2613.74,550.264 L2598.34,550.264 M2598.44,548.764 L2608.65,548.764 C2608.31,546.597 2607.8,545.097 2607.09,544.264 C2606.39,543.43 2605.27,543.014 2603.74,543.014 C2600.74,543.014 2598.98,544.93 2598.44,548.764"/>
<path class="StaffText" d="M1846.07,535.451 L1833.26,564.108 L1832.56,564.108 L1820.01,536.608 L1820.01,556.764 C1820.01,559.295 1820.31,560.97 1820.91,561.787 C1821.51,562.605 1822.78,563.061 1824.72,563.154 L1824.72,564.108 L1812.97,564.108 L1812.97,563.154 C1815.03,563.019 1816.35,562.561 1816.93,561.779 C1817.52,560.998 1817.81,559.326 1817.81,556.764 L1817.81,536.451 C1817.81,534.618 1817.54,533.443 1816.99,532.928 C1816.44,532.412 1815.13,532.087 1813.06,531.951 L1813.06,530.998 L1822.97,530.998 L1834.51,556.264 L1845.57,530.998 L1855.51,530.998 L1855.51,531.951 C1853.65,532.118 1852.46,532.47 1851.94,533.006 C1851.43,533.542 1851.17,534.691 1851.17,536.451 L1851.17,558.654 C1851.17,560.425 1851.43,561.584 1851.97,562.131 C1852.5,562.678 1853.68,563.019 1855.51,563.154 L1855.51,564.108 L1841.51,564.108 L1841.51,563.154 C1843.48,563.019 1844.73,562.66 1845.27,562.076 C1845.81,561.493 1846.07,560.17 1846.07,558.108 L1846.07,535.451 M1861.06,550.264 C1861.13,552.358 1861.42,554.162 1861.92,555.678 C1862.42,557.193 1863.07,558.326 1863.86,559.076 C1864.66,559.826 1865.47,560.36 1866.29,560.678 C1867.1,560.996 1867.97,561.154 1868.87,561.154 C1870.47,561.154 1871.85,560.756 1873.04,559.959 C1874.22,559.162 1875.41,557.811 1876.62,555.904 L1877.42,556.264 C1876.39,558.962 1874.95,561.027 1873.12,562.459 C1871.29,563.891 1869.18,564.608 1866.81,564.608 C1863.94,564.608 1861.67,563.6 1859.99,561.584 C1858.31,559.568 1857.47,556.842 1857.47,553.404 C1857.47,549.706 1858.44,546.733 1860.39,544.483 C1862.33,542.233 1864.85,541.108 1867.92,541.108 C1870.45,541.108 1872.42,541.865 1873.82,543.381 C1875.22,544.897 1876.1,547.191 1876.47,550.264 L1861.06,550.264 M1861.17,548.764 L1871.37,548.764 C1871.04,546.597 1870.52,545.097 1869.82,544.264 C1869.11,543.43 1868,543.014 1866.47,543.014 C1863.47,543.014 1861.7,544.93 1861.17,548.764 M1879.47,559.17 C1879.47,558.576 1879.53,558.022 1879.67,557.506 C1879.8,556.99 1880.04,556.509 1880.37,556.061 C1880.7,555.613 1881.02,555.206 1881.32,554.842 C1881.61,554.477 1882.06,554.105 1882.66,553.725 C1883.26,553.345 1883.76,553.029 1884.16,552.779 C1884.56,552.529 1885.17,552.23 1885.99,551.881 C1886.81,551.532 1887.43,551.266 1887.86,551.084 C1888.3,550.902 1888.98,550.628 1889.91,550.264 C1890.84,549.899 1891.53,549.634 1891.97,549.467 L1891.97,546.436 C1891.97,543.686 1890.7,542.311 1888.17,542.311 C1887.17,542.311 1886.32,542.553 1885.61,543.037 C1884.91,543.522 1884.56,544.097 1884.56,544.764 C1884.56,545.024 1884.6,545.389 1884.68,545.858 C1884.77,546.326 1884.81,546.628 1884.81,546.764 C1884.81,547.326 1884.58,547.816 1884.14,548.233 C1883.69,548.649 1883.16,548.858 1882.56,548.858 C1882,548.858 1881.5,548.641 1881.07,548.209 C1880.63,547.777 1880.42,547.274 1880.42,546.701 C1880.42,545.139 1881.23,543.816 1882.84,542.733 C1884.45,541.649 1886.44,541.108 1888.81,541.108 C1891.55,541.108 1893.43,541.764 1894.47,543.076 C1895.5,544.389 1896.01,546.389 1896.01,549.076 L1896.01,558.779 C1896.01,559.873 1896.12,560.626 1896.34,561.037 C1896.56,561.449 1896.95,561.654 1897.51,561.654 C1898.21,561.654 1898.94,561.342 1899.72,560.717 L1899.72,562.014 C1898.85,563.014 1898.09,563.696 1897.44,564.061 C1896.79,564.425 1896.05,564.608 1895.22,564.608 C1894.18,564.608 1893.43,564.316 1892.94,563.733 C1892.46,563.149 1892.15,562.191 1892.01,560.858 C1889.15,563.358 1886.72,564.608 1884.72,564.608 C1883.18,564.608 1881.93,564.1 1880.94,563.084 C1879.96,562.068 1879.47,560.764 1879.47,559.17 M1891.97,557.873 L1891.97,550.67 C1888.97,551.764 1886.87,552.824 1885.67,553.85 C1884.47,554.876 1883.87,556.118 1883.87,557.576 C1883.87,558.941 1884.2,559.954 1884.87,560.615 C1885.54,561.277 1886.25,561.608 1887.01,561.608 C1888.15,561.608 1889.37,561.227 1890.67,560.467 C1891.2,560.165 1891.55,559.847 1891.72,559.514 C1891.88,559.18 1891.97,558.634 1891.97,557.873 M1913.62,542.108 C1913.65,542.108 1913.92,541.941 1914.42,541.608 L1914.97,541.608 L1915.17,548.404 L1914.42,548.404 C1913.85,546.175 1913.14,544.595 1912.31,543.662 C1911.48,542.73 1910.35,542.264 1908.92,542.264 C1907.78,542.264 1906.86,542.579 1906.14,543.209 C1905.42,543.839 1905.06,544.654 1905.06,545.654 C1905.06,547.092 1905.78,548.227 1907.22,549.061 L1912.62,552.264 C1914.12,553.16 1915.19,554.066 1915.84,554.983 C1916.49,555.899 1916.81,556.972 1916.81,558.201 C1916.81,559.941 1916.12,561.443 1914.74,562.709 C1913.36,563.975 1911.7,564.608 1909.76,564.608 C1908.93,564.608 1907.81,564.456 1906.41,564.154 C1905.01,563.852 1904.14,563.701 1903.81,563.701 C1903.31,563.701 1902.93,563.904 1902.67,564.311 L1902.01,564.311 L1902.01,556.514 L1902.81,556.514 C1903.35,558.847 1903.99,560.493 1904.72,561.451 C1905.78,562.826 1907.26,563.514 1909.17,563.514 C1910.43,563.514 1911.43,563.188 1912.18,562.537 C1912.93,561.886 1913.31,561.009 1913.31,559.904 C1913.31,558.404 1912.44,557.154 1910.72,556.154 L1907.81,554.514 C1905.68,553.305 1904.18,552.152 1903.29,551.053 C1902.41,549.954 1901.97,548.706 1901.97,547.311 C1901.97,545.509 1902.61,544.032 1903.89,542.881 C1905.17,541.73 1906.79,541.154 1908.76,541.154 C1909.87,541.154 1910.9,541.313 1911.86,541.631 C1912.83,541.949 1913.41,542.108 1913.62,542.108 M1942.22,561.514 L1942.22,562.201 C1939.61,562.941 1937.33,563.727 1935.37,564.561 L1935.17,564.451 L1935.17,560.217 C1935.06,560.311 1934.77,560.608 1934.29,561.108 C1933.8,561.608 1933.46,561.954 1933.26,562.147 C1933.06,562.339 1932.72,562.634 1932.24,563.029 C1931.75,563.425 1931.33,563.709 1930.97,563.881 C1930.6,564.053 1930.13,564.217 1929.57,564.373 C1929,564.529 1928.43,564.608 1927.87,564.608 C1926.04,564.608 1924.57,564.009 1923.47,562.811 C1922.36,561.613 1921.81,560.019 1921.81,558.029 L1921.81,545.483 C1921.81,544.326 1921.59,543.524 1921.16,543.076 C1920.73,542.628 1919.91,542.373 1918.72,542.311 L1918.72,541.608 L1926.01,541.608 L1926.01,557.826 C1926.01,558.858 1926.36,559.746 1927.07,560.49 C1927.77,561.235 1928.6,561.608 1929.56,561.608 C1929.93,561.608 1930.37,561.558 1930.87,561.459 C1931.37,561.36 1931.94,561.17 1932.59,560.889 C1933.24,560.608 1933.79,560.16 1934.24,559.545 C1934.69,558.93 1934.92,558.175 1934.92,557.279 L1934.92,545.592 C1934.92,544.363 1934.69,543.55 1934.24,543.154 C1933.79,542.759 1932.78,542.524 1931.22,542.451 L1931.22,541.608 L1939.12,541.608 L1939.12,558.67 C1939.12,559.837 1939.3,560.602 1939.67,560.967 C1940.03,561.331 1940.8,561.514 1941.97,561.514 L1942.22,561.514 M1958.26,546.014 C1957.76,546.014 1957.14,545.722 1956.41,545.139 C1955.68,544.555 1955.19,544.264 1954.97,544.264 C1954.3,544.264 1953.55,544.746 1952.72,545.709 C1951.88,546.673 1951.47,547.555 1951.47,548.358 L1951.47,559.608 C1951.47,561.045 1951.75,562.014 1952.32,562.514 C1952.88,563.014 1954.02,563.295 1955.72,563.358 L1955.72,564.108 L1943.72,564.108 L1943.72,563.358 C1945.32,563.055 1946.31,562.722 1946.69,562.358 C1947.07,561.993 1947.26,561.175 1947.26,559.904 L1947.26,547.404 C1947.26,546.311 1947.14,545.537 1946.89,545.084 C1946.64,544.631 1946.19,544.404 1945.56,544.404 C1945.03,544.404 1944.44,544.472 1943.81,544.608 L1943.81,543.811 C1946.48,542.946 1948.94,542.045 1951.22,541.108 L1951.47,541.201 L1951.47,545.811 C1952.69,544.04 1953.74,542.813 1954.61,542.131 C1955.48,541.449 1956.43,541.108 1957.47,541.108 C1958.33,541.108 1959,541.342 1959.49,541.811 C1959.97,542.279 1960.22,542.93 1960.22,543.764 C1960.22,544.462 1960.04,545.011 1959.69,545.412 C1959.34,545.813 1958.87,546.014 1958.26,546.014 M1965.06,550.264 C1965.13,552.358 1965.42,554.162 1965.92,555.678 C1966.42,557.193 1967.07,558.326 1967.86,559.076 C1968.66,559.826 1969.47,560.36 1970.29,560.678 C1971.1,560.996 1971.97,561.154 1972.87,561.154 C1974.47,561.154 1975.85,560.756 1977.04,559.959 C1978.22,559.162 1979.41,557.811 1980.62,555.904 L1981.42,556.264 C1980.39,558.962 1978.95,561.027 1977.12,562.459 C1975.29,563.891 1973.18,564.608 1970.81,564.608 C1967.94,564.608 1965.67,563.6 1963.99,561.584 C1962.31,559.568 1961.47,556.842 1961.47,553.404 C1961.47,549.706 1962.44,546.733 1964.39,544.483 C1966.33,542.233 1968.85,541.108 1971.92,541.108 C1974.45,541.108 1976.42,541.865 1977.82,543.381 C1979.22,544.897 1980.1,547.191 1980.47,550.264 L1965.06,550.264 M1965.17,548.764 L1975.37,548.764 C1975.04,546.597 1974.52,545.097 1973.82,544.264 C1973.11,543.43 1972,543.014 1970.47,543.014 C1967.47,543.014 1965.7,544.93 1965.17,548.764"/>
<path class="StaffText" d="M1212.8,535.451 L1199.99,564.108 L1199.28,564.108 L1186.74,536.608 L1186.74,556.764 C1186.74,559.295 1187.04,560.97 1187.63,561.787 C1188.23,562.605 1189.5,563.061 1191.44,563.154 L1191.44,564.108 L1179.69,564.108 L1179.69,563.154 C1181.75,563.019 1183.07,562.561 1183.66,561.779 C1184.24,560.998 1184.53,559.326 1184.53,556.764 L1184.53,536.451 C1184.53,534.618 1184.26,533.443 1183.71,532.928 C1183.17,532.412 1181.86,532.087 1179.78,531.951 L1179.78,530.998 L1189.69,530.998 L1201.24,556.264 L1212.3,530.998 L1222.24,530.998 L1222.24,531.951 C1220.37,532.118 1219.18,532.47 1218.67,533.006 C1218.15,533.542 1217.89,534.691 1217.89,536.451 L1217.89,558.654 C1217.89,560.425 1218.16,561.584 1218.69,562.131 C1219.22,562.678 1220.4,563.019 1222.24,563.154 L1222.24,564.108 L1208.24,564.108 L1208.24,563.154 C1210.2,563.019 1211.46,562.66 1211.99,562.076 C1212.53,561.493 1212.8,560.17 1212.8,558.108 L1212.8,535.451 M1227.78,550.264 C1227.86,552.358 1228.14,554.162 1228.64,555.678 C1229.14,557.193 1229.79,558.326 1230.59,559.076 C1231.38,559.826 1232.19,560.36 1233.01,560.678 C1233.83,560.996 1234.69,561.154 1235.59,561.154 C1237.19,561.154 1238.58,560.756 1239.76,559.959 C1240.94,559.162 1242.14,557.811 1243.34,555.904 L1244.14,556.264 C1243.11,558.962 1241.68,561.027 1239.84,562.459 C1238.01,563.891 1235.91,564.608 1233.53,564.608 C1230.67,564.608 1228.39,563.6 1226.71,561.584 C1225.03,559.568 1224.19,556.842 1224.19,553.404 C1224.19,549.706 1225.16,546.733 1227.11,544.483 C1229.06,542.233 1231.57,541.108 1234.64,541.108 C1237.17,541.108 1239.14,541.865 1240.54,543.381 C1241.94,544.897 1242.82,547.191 1243.19,550.264 L1227.78,550.264 M1227.89,548.764 L1238.09,548.764 C1237.76,546.597 1237.24,545.097 1236.54,544.264 C1235.84,543.43 1234.72,543.014 1233.19,543.014 C1230.19,543.014 1228.42,544.93 1227.89,548.764 M1246.19,559.17 C1246.19,558.576 1246.26,558.022 1246.39,557.506 C1246.53,556.99 1246.76,556.509 1247.09,556.061 C1247.43,555.613 1247.74,555.206 1248.04,554.842 C1248.34,554.477 1248.79,554.105 1249.38,553.725 C1249.98,553.345 1250.48,553.029 1250.88,552.779 C1251.29,552.529 1251.89,552.23 1252.71,551.881 C1253.53,551.532 1254.15,551.266 1254.59,551.084 C1255.02,550.902 1255.7,550.628 1256.63,550.264 C1257.57,549.899 1258.25,549.634 1258.69,549.467 L1258.69,546.436 C1258.69,543.686 1257.42,542.311 1254.89,542.311 C1253.89,542.311 1253.04,542.553 1252.34,543.037 C1251.63,543.522 1251.28,544.097 1251.28,544.764 C1251.28,545.024 1251.32,545.389 1251.41,545.858 C1251.49,546.326 1251.53,546.628 1251.53,546.764 C1251.53,547.326 1251.31,547.816 1250.86,548.233 C1250.41,548.649 1249.89,548.858 1249.28,548.858 C1248.72,548.858 1248.22,548.641 1247.79,548.209 C1247.36,547.777 1247.14,547.274 1247.14,546.701 C1247.14,545.139 1247.95,543.816 1249.56,542.733 C1251.18,541.649 1253.17,541.108 1255.53,541.108 C1258.27,541.108 1260.16,541.764 1261.19,543.076 C1262.22,544.389 1262.74,546.389 1262.74,549.076 L1262.74,558.779 C1262.74,559.873 1262.84,560.626 1263.06,561.037 C1263.28,561.449 1263.67,561.654 1264.24,561.654 C1264.93,561.654 1265.67,561.342 1266.44,560.717 L1266.44,562.014 C1265.57,563.014 1264.82,563.696 1264.17,564.061 C1263.51,564.425 1262.77,564.608 1261.94,564.608 C1260.91,564.608 1260.15,564.316 1259.67,563.733 C1259.18,563.149 1258.87,562.191 1258.74,560.858 C1255.87,563.358 1253.44,564.608 1251.44,564.608 C1249.91,564.608 1248.65,564.1 1247.67,563.084 C1246.68,562.068 1246.19,560.764 1246.19,559.17 M1258.69,557.873 L1258.69,550.67 C1255.69,551.764 1253.59,552.824 1252.39,553.85 C1251.19,554.876 1250.59,556.118 1250.59,557.576 C1250.59,558.941 1250.93,559.954 1251.59,560.615 C1252.26,561.277 1252.98,561.608 1253.74,561.608 C1254.87,561.608 1256.09,561.227 1257.39,560.467 C1257.92,560.165 1258.27,559.847 1258.44,559.514 C1258.61,559.18 1258.69,558.634 1258.69,557.873 M1280.34,542.108 C1280.38,542.108 1280.64,541.941 1281.14,541.608 L1281.69,541.608 L1281.89,548.404 L1281.14,548.404 C1280.57,546.175 1279.87,544.595 1279.03,543.662 C1278.2,542.73 1277.07,542.264 1275.64,542.264 C1274.51,542.264 1273.58,542.579 1272.86,543.209 C1272.14,543.839 1271.78,544.654 1271.78,545.654 C1271.78,547.092 1272.5,548.227 1273.94,549.061 L1279.34,552.264 C1280.84,553.16 1281.92,554.066 1282.56,554.983 C1283.21,555.899 1283.53,556.972 1283.53,558.201 C1283.53,559.941 1282.84,561.443 1281.46,562.709 C1280.08,563.975 1278.42,564.608 1276.49,564.608 C1275.65,564.608 1274.54,564.456 1273.13,564.154 C1271.73,563.852 1270.87,563.701 1270.53,563.701 C1270.03,563.701 1269.65,563.904 1269.39,564.311 L1268.74,564.311 L1268.74,556.514 L1269.53,556.514 C1270.07,558.847 1270.71,560.493 1271.44,561.451 C1272.5,562.826 1273.99,563.514 1275.89,563.514 C1277.15,563.514 1278.16,563.188 1278.91,562.537 C1279.66,561.886 1280.03,561.009 1280.03,559.904 C1280.03,558.404 1279.17,557.154 1277.44,556.154 L1274.53,554.514 C1272.41,553.305 1270.9,552.152 1270.02,551.053 C1269.13,549.954 1268.69,548.706 1268.69,547.311 C1268.69,545.509 1269.33,544.032 1270.61,542.881 C1271.89,541.73 1273.52,541.154 1275.49,541.154 C1276.59,541.154 1277.62,541.313 1278.59,541.631 C1279.55,541.949 1280.14,542.108 1280.34,542.108 M1308.94,561.514 L1308.94,562.201 C1306.33,562.941 1304.05,563.727 1302.09,564.561 L1301.89,564.451 L1301.89,560.217 C1301.79,560.311 1301.49,560.608 1301.01,561.108 C1300.52,561.608 1300.18,561.954 1299.99,562.147 C1299.79,562.339 1299.45,562.634 1298.96,563.029 C1298.48,563.425 1298.05,563.709 1297.69,563.881 C1297.32,564.053 1296.86,564.217 1296.29,564.373 C1295.72,564.529 1295.16,564.608 1294.59,564.608 C1292.76,564.608 1291.29,564.009 1290.19,562.811 C1289.08,561.613 1288.53,560.019 1288.53,558.029 L1288.53,545.483 C1288.53,544.326 1288.32,543.524 1287.88,543.076 C1287.45,542.628 1286.64,542.373 1285.44,542.311 L1285.44,541.608 L1292.74,541.608 L1292.74,557.826 C1292.74,558.858 1293.09,559.746 1293.79,560.49 C1294.49,561.235 1295.32,561.608 1296.28,561.608 C1296.66,561.608 1297.09,561.558 1297.59,561.459 C1298.09,561.36 1298.67,561.17 1299.31,560.889 C1299.96,560.608 1300.51,560.16 1300.96,559.545 C1301.42,558.93 1301.64,558.175 1301.64,557.279 L1301.64,545.592 C1301.64,544.363 1301.42,543.55 1300.96,543.154 C1300.51,542.759 1299.5,542.524 1297.94,542.451 L1297.94,541.608 L1305.84,541.608 L1305.84,558.67 C1305.84,559.837 1306.03,560.602 1306.39,560.967 C1306.76,561.331 1307.52,561.514 1308.69,561.514 L1308.94,561.514 M1324.99,546.014 C1324.49,546.014 1323.87,545.722 1323.13,545.139 C1322.4,544.555 1321.92,544.264 1321.69,544.264 C1321.02,544.264 1320.27,544.746 1319.44,545.709 C1318.61,546.673 1318.19,547.555 1318.19,548.358 L1318.19,559.608 C1318.19,561.045 1318.47,562.014 1319.04,562.514 C1319.61,563.014 1320.74,563.295 1322.44,563.358 L1322.44,564.108 L1310.44,564.108 L1310.44,563.358 C1312.04,563.055 1313.04,562.722 1313.42,562.358 C1313.8,561.993 1313.99,561.175 1313.99,559.904 L1313.99,547.404 C1313.99,546.311 1313.86,545.537 1313.61,545.084 C1313.36,544.631 1312.92,544.404 1312.28,544.404 C1311.75,544.404 1311.17,544.472 1310.53,544.608 L1310.53,543.811 C1313.2,542.946 1315.67,542.045 1317.94,541.108 L1318.19,541.201 L1318.19,545.811 C1319.42,544.04 1320.47,542.813 1321.34,542.131 C1322.21,541.449 1323.16,541.108 1324.19,541.108 C1325.05,541.108 1325.73,541.342 1326.21,541.811 C1326.7,542.279 1326.94,542.93 1326.94,543.764 C1326.94,544.462 1326.76,545.011 1326.42,545.412 C1326.07,545.813 1325.59,546.014 1324.99,546.014 M1331.78,550.264 C1331.86,552.358 1332.14,554.162 1332.64,555.678 C1333.14,557.193 1333.79,558.326 1334.59,559.076 C1335.38,559.826 1336.19,560.36 1337.01,560.678 C1337.83,560.996 1338.69,561.154 1339.59,561.154 C1341.19,561.154 1342.58,560.756 1343.76,559.959 C1344.94,559.162 1346.14,557.811 1347.34,555.904 L1348.14,556.264 C1347.11,558.962 1345.68,561.027 1343.84,562.459 C1342.01,563.891 1339.91,564.608 1337.53,564.608 C1334.67,564.608 1332.39,563.6 1330.71,561.584 C1329.03,559.568 1328.19,556.842 1328.19,553.404 C1328.19,549.706 1329.16,546.733 1331.11,544.483 C1333.06,542.233 1335.57,541.108 1338.64,541.108 C1341.17,541.108 1343.14,541.865 1344.54,543.381 C1345.94,544.897 1346.82,547.191 1347.19,550.264 L1331.78,550.264 M1331.89,548.764 L1342.09,548.764 C1341.76,546.597 1341.24,545.097 1340.54,544.264 C1339.84,543.43 1338.72,543.014 1337.19,543.014 C1334.19,543.014 1332.42,544.93 1331.89,548.764"/>
<path class="StaffText" d="M579.522,535.451 L566.709,564.108 L566.006,564.108 L553.459,536.608 L553.459,556.764 C553.459,559.295 553.759,560.97 554.358,561.787 C554.957,562.605 556.225,563.061 558.162,563.154 L558.162,564.108 L546.412,564.108 L546.412,563.154 C548.475,563.019 549.798,562.561 550.381,561.779 C550.964,560.998 551.256,559.326 551.256,556.764 L551.256,536.451 C551.256,534.618 550.983,533.443 550.436,532.928 C549.889,532.412 548.579,532.087 546.506,531.951 L546.506,530.998 L556.412,530.998 L567.959,556.264 L579.022,530.998 L588.959,530.998 L588.959,531.951 C587.095,532.118 585.904,532.47 585.389,533.006 C584.873,533.542 584.615,534.691 584.615,536.451 L584.615,558.654 C584.615,560.425 584.881,561.584 585.412,562.131 C585.944,562.678 587.126,563.019 588.959,563.154 L588.959,564.108 L574.959,564.108 L574.959,563.154 C576.928,563.019 578.181,562.66 578.717,562.076 C579.253,561.493 579.522,560.17 579.522,558.108 L579.522,535.451 M594.506,550.264 C594.579,552.358 594.865,554.162 595.365,555.678 C595.865,557.193 596.514,558.326 597.311,559.076 C598.108,559.826 598.915,560.36 599.733,560.678 C600.55,560.996 601.412,561.154 602.319,561.154 C603.912,561.154 605.3,560.756 606.483,559.959 C607.665,559.162 608.86,557.811 610.069,555.904 L610.865,556.264 C609.834,558.962 608.402,561.027 606.569,562.459 C604.735,563.891 602.631,564.608 600.256,564.608 C597.391,564.608 595.118,563.6 593.436,561.584 C591.753,559.568 590.912,556.842 590.912,553.404 C590.912,549.706 591.886,546.733 593.834,544.483 C595.782,542.233 598.292,541.108 601.365,541.108 C603.897,541.108 605.863,541.865 607.264,543.381 C608.665,544.897 609.548,547.191 609.912,550.264 L594.506,550.264 M594.615,548.764 L604.819,548.764 C604.485,546.597 603.967,545.097 603.264,544.264 C602.561,543.43 601.444,543.014 599.912,543.014 C596.912,543.014 595.147,544.93 594.615,548.764 M612.912,559.17 C612.912,558.576 612.98,558.022 613.115,557.506 C613.251,556.99 613.485,556.509 613.819,556.061 C614.152,555.613 614.467,555.206 614.764,554.842 C615.061,554.477 615.509,554.105 616.108,553.725 C616.707,553.345 617.207,553.029 617.608,552.779 C618.009,552.529 618.618,552.23 619.436,551.881 C620.253,551.532 620.878,551.266 621.311,551.084 C621.743,550.902 622.425,550.628 623.358,550.264 C624.29,549.899 624.975,549.634 625.412,549.467 L625.412,546.436 C625.412,543.686 624.147,542.311 621.615,542.311 C620.615,542.311 619.764,542.553 619.061,543.037 C618.358,543.522 618.006,544.097 618.006,544.764 C618.006,545.024 618.048,545.389 618.131,545.858 C618.214,546.326 618.256,546.628 618.256,546.764 C618.256,547.326 618.032,547.816 617.584,548.233 C617.136,548.649 616.61,548.858 616.006,548.858 C615.444,548.858 614.946,548.641 614.514,548.209 C614.082,547.777 613.865,547.274 613.865,546.701 C613.865,545.139 614.673,543.816 616.287,542.733 C617.902,541.649 619.891,541.108 622.256,541.108 C624.996,541.108 626.881,541.764 627.912,543.076 C628.944,544.389 629.459,546.389 629.459,549.076 L629.459,558.779 C629.459,559.873 629.569,560.626 629.787,561.037 C630.006,561.449 630.397,561.654 630.959,561.654 C631.657,561.654 632.391,561.342 633.162,560.717 L633.162,562.014 C632.298,563.014 631.54,563.696 630.889,564.061 C630.238,564.425 629.496,564.608 628.662,564.608 C627.631,564.608 626.873,564.316 626.389,563.733 C625.904,563.149 625.595,562.191 625.459,560.858 C622.595,563.358 620.162,564.608 618.162,564.608 C616.631,564.608 615.373,564.1 614.389,563.084 C613.404,562.068 612.912,560.764 612.912,559.17 M625.412,557.873 L625.412,550.67 C622.412,551.764 620.313,552.824 619.115,553.85 C617.917,554.876 617.319,556.118 617.319,557.576 C617.319,558.941 617.652,559.954 618.319,560.615 C618.985,561.277 619.699,561.608 620.459,561.608 C621.595,561.608 622.813,561.227 624.115,560.467 C624.647,560.165 624.996,559.847 625.162,559.514 C625.329,559.18 625.412,558.634 625.412,557.873 M647.069,542.108 C647.1,542.108 647.365,541.941 647.865,541.608 L648.412,541.608 L648.615,548.404 L647.865,548.404 C647.292,546.175 646.589,544.595 645.756,543.662 C644.923,542.73 643.792,542.264 642.365,542.264 C641.23,542.264 640.303,542.579 639.584,543.209 C638.865,543.839 638.506,544.654 638.506,545.654 C638.506,547.092 639.225,548.227 640.662,549.061 L646.069,552.264 C647.569,553.16 648.641,554.066 649.287,554.983 C649.933,555.899 650.256,556.972 650.256,558.201 C650.256,559.941 649.566,561.443 648.186,562.709 C646.806,563.975 645.147,564.608 643.209,564.608 C642.376,564.608 641.259,564.456 639.858,564.154 C638.457,563.852 637.589,563.701 637.256,563.701 C636.756,563.701 636.376,563.904 636.115,564.311 L635.459,564.311 L635.459,556.514 L636.256,556.514 C636.798,558.847 637.433,560.493 638.162,561.451 C639.225,562.826 640.709,563.514 642.615,563.514 C643.876,563.514 644.881,563.188 645.631,562.537 C646.381,561.886 646.756,561.009 646.756,559.904 C646.756,558.404 645.891,557.154 644.162,556.154 L641.256,554.514 C639.131,553.305 637.626,552.152 636.74,551.053 C635.855,549.954 635.412,548.706 635.412,547.311 C635.412,545.509 636.053,544.032 637.334,542.881 C638.615,541.73 640.24,541.154 642.209,541.154 C643.313,541.154 644.347,541.313 645.311,541.631 C646.274,541.949 646.86,542.108 647.069,542.108 M675.662,561.514 L675.662,562.201 C673.058,562.941 670.777,563.727 668.819,564.561 L668.615,564.451 L668.615,560.217 C668.511,560.311 668.217,560.608 667.733,561.108 C667.248,561.608 666.907,561.954 666.709,562.147 C666.511,562.339 666.17,562.634 665.686,563.029 C665.201,563.425 664.777,563.709 664.412,563.881 C664.048,564.053 663.582,564.217 663.014,564.373 C662.446,564.529 661.881,564.608 661.319,564.608 C659.485,564.608 658.016,564.009 656.912,562.811 C655.808,561.613 655.256,560.019 655.256,558.029 L655.256,545.483 C655.256,544.326 655.04,543.524 654.608,543.076 C654.175,542.628 653.36,542.373 652.162,542.311 L652.162,541.608 L659.459,541.608 L659.459,557.826 C659.459,558.858 659.811,559.746 660.514,560.49 C661.217,561.235 662.048,561.608 663.006,561.608 C663.381,561.608 663.819,561.558 664.319,561.459 C664.819,561.36 665.391,561.17 666.037,560.889 C666.683,560.608 667.233,560.16 667.686,559.545 C668.139,558.93 668.365,558.175 668.365,557.279 L668.365,545.592 C668.365,544.363 668.139,543.55 667.686,543.154 C667.233,542.759 666.225,542.524 664.662,542.451 L664.662,541.608 L672.569,541.608 L672.569,558.67 C672.569,559.837 672.751,560.602 673.115,560.967 C673.48,561.331 674.246,561.514 675.412,561.514 L675.662,561.514 M691.709,546.014 C691.209,546.014 690.592,545.722 689.858,545.139 C689.123,544.555 688.641,544.264 688.412,544.264 C687.746,544.264 686.996,544.746 686.162,545.709 C685.329,546.673 684.912,547.555 684.912,548.358 L684.912,559.608 C684.912,561.045 685.196,562.014 685.764,562.514 C686.332,563.014 687.464,563.295 689.162,563.358 L689.162,564.108 L677.162,564.108 L677.162,563.358 C678.766,563.055 679.759,562.722 680.139,562.358 C680.519,561.993 680.709,561.175 680.709,559.904 L680.709,547.404 C680.709,546.311 680.584,545.537 680.334,545.084 C680.084,544.631 679.641,544.404 679.006,544.404 C678.475,544.404 677.891,544.472 677.256,544.608 L677.256,543.811 C679.923,542.946 682.391,542.045 684.662,541.108 L684.912,541.201 L684.912,545.811 C686.141,544.04 687.191,542.813 688.061,542.131 C688.931,541.449 689.881,541.108 690.912,541.108 C691.777,541.108 692.451,541.342 692.936,541.811 C693.42,542.279 693.662,542.93 693.662,543.764 C693.662,544.462 693.488,545.011 693.139,545.412 C692.79,545.813 692.313,546.014 691.709,546.014 M698.506,550.264 C698.579,552.358 698.865,554.162 699.365,555.678 C699.865,557.193 700.514,558.326 701.311,559.076 C702.108,559.826 702.915,560.36 703.733,560.678 C704.55,560.996 705.412,561.154 706.319,561.154 C707.912,561.154 709.3,560.756 710.483,559.959 C711.665,559.162 712.86,557.811 714.069,555.904 L714.865,556.264 C713.834,558.962 712.402,561.027 710.569,562.459 C708.735,563.891 706.631,564.608 704.256,564.608 C701.391,564.608 699.118,563.6 697.436,561.584 C695.753,559.568 694.912,556.842 694.912,553.404 C694.912,549.706 695.886,546.733 697.834,544.483 C699.782,542.233 702.292,541.108 705.365,541.108 C707.897,541.108 709.863,541.865 711.264,543.381 C712.665,544.897 713.548,547.191 713.912,550.264 L698.506,550.264 M698.615,548.764 L708.819,548.764 C708.485,546.597 707.967,545.097 707.264,544.264 C706.561,543.43 705.444,543.014 703.912,543.014 C700.912,543.014 699.147,544.93 698.615,548.764"/>
<polyline class="PedalSegment" fill="none" stroke="#000000" stroke-width="3.75" stroke-linecap="square" stroke-linejoin="bevel" points="2303.95,486.733 2315.95,516.733"/>
<polyline class="PedalSegment" fill="none" stroke="#000000" stroke-width="3.75" stroke-linecap="square" stroke-linejoin="bevel" points="2315.95,516.733 2745.16,516.733"/>
<polyline class="PedalSegment" fill="none" stroke="#000000" stroke-width="3.75" stroke-linecap="square" stroke-linejoin="bevel" points="2745.16,516.733 2757.16,486.733"/>
<polyline class="PedalSegment" fill="none" stroke="#000000" stroke-width="3.75" stroke-linecap="square" stroke-linejoin="bevel" points="1670.67,486.733 1682.67,516.733"/>
<polyline class="PedalSegment" fill="none" stroke="#000000" stroke-width="3.75" stroke-linecap="square" stroke-linejoin="bevel" points="1682.67,516.733 2111.88,516.733"/>
<polyline class="PedalSegment" fill="none" stroke="#000000" stroke-width="3.75" stroke-linecap="square" stroke-linejoin="bevel" points="2111.88,516.733 2123.88,486.733"/>
<polyline class="PedalSegment" fill="none" stroke="#000000" stroke-width="3.75" stroke-linecap="square" stroke-linejoin="bevel" points="1037.4,486.733 1049.4,516.733"/>
<polyline class="PedalSegment" fill="none" stroke="#000000" stroke-width="3.75" stroke-linecap="square" stroke-linejoin="bevel" points="1049.4,516.733 1478.6,516.733"/>
<polyline class="PedalSegment" fill="none" stroke="#000000" stroke-width="3.75" stroke-linecap="square" stroke-linejoin="bevel" points="1478.6,516.733 1490.6,486.733"/>
<polyline class="PedalSegment" fill="none" stroke="#000000" stroke-width="3.75" stroke-linecap="square" stroke-linejoin="bevel" points="404.119,486.733 416.119,516.733"/>
<polyline class="PedalSegment" fill="none" stroke="#000000" stroke-width="3.75" stroke-linecap="square" stroke-linejoin="bevel" points="416.119,516.733 845.326,516.733"/>
<polyline class="PedalSegment" fill="none" stroke="#000000" stroke-width="3.75" stroke-linecap="square" stroke-linejoin="bevel" points="845.326,516.733 857.326,486.733"/>
</svg>
