<?xml version="1.0" encoding="UTF-8" standalone="no"?>
<svg
   xmlns:dc="http://purl.org/dc/elements/1.1/"
   xmlns:cc="http://creativecommons.org/ns#"
   xmlns:rdf="http://www.w3.org/1999/02/22-rdf-syntax-ns#"
   xmlns:svg="http://www.w3.org/2000/svg"
   xmlns="http://www.w3.org/2000/svg"
   xmlns:sodipodi="http://sodipodi.sourceforge.net/DTD/sodipodi-0.dtd"
   xmlns:inkscape="http://www.inkscape.org/namespaces/inkscape"
   width="1612.0081"
   height="364.39322"
   viewBox="0 0 1612.0081 364.39322"
   version="1.2"
   id="svg70"
   sodipodi:docname="notes-and-rests.svg"
   inkscape:version="0.92.4 (5da689c313, 2019-01-14)">
  <metadata
     id="metadata76">
    <rdf:RDF>
      <cc:Work
         rdf:about="">
        <dc:format>image/svg+xml</dc:format>
        <dc:type
           rdf:resource="http://purl.org/dc/dcmitype/StillImage" />
        <dc:title>notes-and-rests</dc:title>
      </cc:Work>
    </rdf:RDF>
  </metadata>
  <defs
     id="defs74">
    <marker
       inkscape:stockid="Arrow1Mend"
       orient="auto"
       refY="0"
       refX="0"
       id="Arrow1Mend"
       style="overflow:visible"
       inkscape:isstock="true">
      <path
         id="path897"
         d="M 0,0 5,-5 -12.5,0 5,5 Z"
         style="fill:#cc2727;fill-opacity:1;fill-rule:evenodd;stroke:#cc2727;stroke-width:1.00000003pt;stroke-opacity:1"
         transform="matrix(-0.4,0,0,-0.4,-4,0)"
         inkscape:connector-curvature="0" />
    </marker>
    <marker
       inkscape:stockid="Arrow2Lend"
       orient="auto"
       refY="0"
       refX="0"
       id="Arrow2Lend"
       style="overflow:visible"
       inkscape:isstock="true">
      <path
         id="path909"
         style="fill:#000000;fill-opacity:1;fill-rule:evenodd;stroke:#000000;stroke-width:0.625;stroke-linejoin:round;stroke-opacity:1"
         d="M 8.7185878,4.0337352 -2.2072895,0.01601326 8.7185884,-4.0017078 c -1.7454984,2.3720609 -1.7354408,5.6174519 -6e-7,8.035443 z"
         transform="matrix(-1.1,0,0,-1.1,-1.1,0)"
         inkscape:connector-curvature="0" />
    </marker>
    <marker
       inkscape:stockid="Arrow1Mend"
       orient="auto"
       refY="0"
       refX="0"
       id="Arrow1Mend-6"
       style="overflow:visible"
       inkscape:isstock="true">
      <path
         inkscape:connector-curvature="0"
         id="path897-4"
         d="M 0,0 5,-5 -12.5,0 5,5 Z"
         style="fill:#cc2727;fill-opacity:1;fill-rule:evenodd;stroke:#cc2727;stroke-width:1.00000003pt;stroke-opacity:1"
         transform="matrix(-0.4,0,0,-0.4,-4,0)" />
    </marker>
    <marker
       inkscape:stockid="Arrow1Mend"
       orient="auto"
       refY="0"
       refX="0"
       id="Arrow1Mend-1"
       style="overflow:visible"
       inkscape:isstock="true">
      <path
         inkscape:connector-curvature="0"
         id="path897-7"
         d="M 0,0 5,-5 -12.5,0 5,5 Z"
         style="fill:#cc2727;fill-opacity:1;fill-rule:evenodd;stroke:#cc2727;stroke-width:1.00000003pt;stroke-opacity:1"
         transform="matrix(-0.4,0,0,-0.4,-4,0)" />
    </marker>
    <marker
       inkscape:stockid="Arrow1Mend"
       orient="auto"
       refY="0"
       refX="0"
       id="Arrow1Mend-18"
       style="overflow:visible"
       inkscape:isstock="true">
      <path
         inkscape:connector-curvature="0"
         id="path897-2"
         d="M 0,0 5,-5 -12.5,0 5,5 Z"
         style="fill:#cc2727;fill-opacity:1;fill-rule:evenodd;stroke:#cc2727;stroke-width:1.00000003pt;stroke-opacity:1"
         transform="matrix(-0.4,0,0,-0.4,-4,0)" />
    </marker>
    <marker
       inkscape:stockid="Arrow1Mend"
       orient="auto"
       refY="0"
       refX="0"
       id="Arrow1Mend-15"
       style="overflow:visible"
       inkscape:isstock="true">
      <path
         inkscape:connector-curvature="0"
         id="path897-6"
         d="M 0,0 5,-5 -12.5,0 5,5 Z"
         style="fill:#cc2727;fill-opacity:1;fill-rule:evenodd;stroke:#cc2727;stroke-width:1.00000003pt;stroke-opacity:1"
         transform="matrix(-0.4,0,0,-0.4,-4,0)" />
    </marker>
  </defs>
  <sodipodi:namedview
     pagecolor="#ffffff"
     bordercolor="#666666"
     borderopacity="1"
     objecttolerance="10"
     gridtolerance="10"
     guidetolerance="10"
     inkscape:pageopacity="0"
     inkscape:pageshadow="2"
     inkscape:window-width="1920"
     inkscape:window-height="1017"
     id="namedview72"
     showgrid="false"
     inkscape:zoom="0.47676768"
     inkscape:cx="-66.330016"
     inkscape:cy="229.56036"
     inkscape:window-x="-8"
     inkscape:window-y="-8"
     inkscape:window-maximized="1"
     inkscape:current-layer="svg70"
     fit-margin-top="0"
     fit-margin-left="0"
     fit-margin-right="0"
     fit-margin-bottom="0" />
  <title
     id="title2">notes-and-rests</title>
  <desc
     id="desc4">Generated by MuseScore 3.0.5</desc>
  <polyline
     class="StaffLines"
     points="141.732,316.732 1753.74,316.732"
     id="polyline6"
     style="fill:none;stroke:#000000;stroke-width:2;stroke-linejoin:bevel"
     transform="translate(-141.732,-189.1292)" />
  <polyline
     class="StaffLines"
     points="141.732,341.732 1753.74,341.732"
     id="polyline8"
     style="fill:none;stroke:#000000;stroke-width:2;stroke-linejoin:bevel"
     transform="translate(-141.732,-189.1292)" />
  <polyline
     class="StaffLines"
     points="141.732,366.732 1753.74,366.732"
     id="polyline10"
     style="fill:none;stroke:#000000;stroke-width:2;stroke-linejoin:bevel"
     transform="translate(-141.732,-189.1292)" />
  <polyline
     class="StaffLines"
     points="141.732,391.732 1753.74,391.732"
     id="polyline12"
     style="fill:none;stroke:#000000;stroke-width:2;stroke-linejoin:bevel"
     transform="translate(-141.732,-189.1292)" />
  <polyline
     class="StaffLines"
     points="141.732,416.732 1753.74,416.732"
     id="polyline14"
     style="fill:none;stroke:#000000;stroke-width:2;stroke-linejoin:bevel"
     transform="translate(-141.732,-189.1292)" />
  <polyline
     class="BarLine"
     points="1729.24,315.732 1729.24,417.732"
     id="polyline16"
     style="fill:none;stroke:#000000;stroke-width:4;stroke-linejoin:bevel"
     transform="translate(-141.732,-189.1292)" />
  <polyline
     class="BarLine"
     points="1747.49,315.732 1747.49,417.732"
     id="polyline18"
     style="fill:none;stroke:#000000;stroke-width:12.5;stroke-linejoin:bevel"
     transform="translate(-141.732,-189.1292)" />
  <polyline
     class="BarLine"
     points="1229.85,315.732 1229.85,417.732"
     id="polyline20"
     style="fill:none;stroke:#000000;stroke-width:4;stroke-linejoin:bevel"
     transform="translate(-141.732,-189.1292)" />
  <polyline
     class="BarLine"
     points="817.704,315.732 817.704,417.732"
     id="polyline22"
     style="fill:none;stroke:#000000;stroke-width:4;stroke-linejoin:bevel"
     transform="translate(-141.732,-189.1292)" />
  <polyline
     class="Stem"
     points="1584.13,346.428 1584.13,426.107"
     id="polyline24"
     style="fill:none;stroke:#000000;stroke-width:3.25;stroke-linecap:round;stroke-linejoin:bevel"
     transform="translate(-141.732,-189.1292)" />
  <polyline
     class="Stem"
     points="1439.4,333.928 1439.4,416.732"
     id="polyline26"
     style="fill:none;stroke:#000000;stroke-width:3.25;stroke-linecap:round;stroke-linejoin:bevel"
     transform="translate(-141.732,-189.1292)" />
  <polyline
     class="Stem"
     points="1258.48,333.928 1258.48,416.732"
     id="polyline28"
     style="fill:none;stroke:#000000;stroke-width:3.25;stroke-linecap:round;stroke-linejoin:bevel"
     transform="translate(-141.732,-189.1292)" />
  <polyline
     class="Stem"
     points="1082.81,346.428 1082.81,426.107"
     id="polyline30"
     style="fill:none;stroke:#000000;stroke-width:3.25;stroke-linecap:round;stroke-linejoin:bevel"
     transform="translate(-141.732,-189.1292)" />
  <polyline
     class="Stem"
     points="847.231,370.652 847.231,444.857"
     id="polyline32"
     style="fill:none;stroke:#000000;stroke-width:3.25;stroke-linecap:round;stroke-linejoin:bevel"
     transform="translate(-141.732,-189.1292)" />
  <polyline
     class="Stem"
     points="561.632,387.037 561.632,307.357"
     id="polyline34"
     style="fill:none;stroke:#000000;stroke-width:3.25;stroke-linecap:round;stroke-linejoin:bevel"
     transform="translate(-141.732,-189.1292)" />
  <polyline
     class="Stem"
     points="418.951,399.537 418.951,316.732"
     id="polyline36"
     style="fill:none;stroke:#000000;stroke-width:3.25;stroke-linecap:round;stroke-linejoin:bevel"
     transform="translate(-141.732,-189.1292)" />
  <path
     class="Note"
     d="m 1462.738,138.8378 c 3.13,0 5.77,0.812 7.93,2.437 2.01,1.761 3.01,3.974 3.01,6.641 0,4.489 -2.31,8.687 -6.92,12.594 -4.69,3.906 -9.7,5.859 -15.05,5.859 -3.12,0 -5.76,-0.812 -7.9,-2.437 -2.02,-1.761 -3.03,-3.974 -3.03,-6.641 0,-4.49 2.34,-8.688 7.03,-12.594 4.56,-3.906 9.54,-5.859 14.93,-5.859"
     id="path38"
     inkscape:connector-curvature="0" />
  <path
     class="Note"
     d="m 1318.008,126.3378 c 3.13,0 5.77,0.812 7.92,2.437 2.01,1.761 3.02,3.974 3.02,6.641 0,4.489 -2.31,8.687 -6.92,12.594 -4.69,3.906 -9.71,5.859 -15.05,5.859 -3.13,0 -5.76,-0.812 -7.91,-2.437 -2.02,-1.761 -3.03,-3.974 -3.03,-6.641 0,-4.49 2.35,-8.688 7.03,-12.594 4.57,-3.906 9.54,-5.859 14.94,-5.859"
     id="path40"
     inkscape:connector-curvature="0" />
  <path
     class="Note"
     d="m 1137.088,126.3378 c 3.13,0 5.77,0.812 7.92,2.437 2.02,1.761 3.02,3.974 3.02,6.641 0,4.489 -2.31,8.687 -6.92,12.594 -4.69,3.906 -9.7,5.859 -15.05,5.859 -3.12,0 -5.76,-0.812 -7.9,-2.437 -2.03,-1.761 -3.04,-3.974 -3.04,-6.641 0,-4.49 2.35,-8.688 7.04,-12.594 4.56,-3.906 9.54,-5.859 14.93,-5.859"
     id="path42"
     inkscape:connector-curvature="0" />
  <path
     class="Note"
     d="m 961.418,138.8378 c 3.13,0 5.77,0.812 7.92,2.437 2.01,1.761 3.02,3.974 3.02,6.641 0,4.489 -2.31,8.687 -6.92,12.594 -4.69,3.906 -9.71,5.859 -15.05,5.859 -3.12,0 -5.76,-0.812 -7.91,-2.437 -2.02,-1.761 -3.03,-3.974 -3.03,-6.641 0,-4.49 2.35,-8.688 7.03,-12.594 4.57,-3.906 9.55,-5.859 14.94,-5.859"
     id="path44"
     inkscape:connector-curvature="0" />
  <path
     class="Note"
     d="m 735.421,171.0568 c 0,-1.105 -0.422,-2.047 -1.266,-2.829 -0.854,-0.843 -1.833,-1.265 -2.937,-1.265 -1.948,0 -5.885,1.953 -11.813,5.859 -6.125,3.969 -9.869,6.802 -11.234,8.5 -0.719,0.906 -1.078,1.849 -1.078,2.828 0,1.104 0.427,2.047 1.281,2.828 0.781,0.844 1.755,1.266 2.922,1.266 1.886,0 5.859,-1.953 11.922,-5.859 5.99,-3.907 9.698,-6.74 11.125,-8.5 0.719,-0.844 1.078,-1.787 1.078,-2.828 m -5.172,-7.219 c 5.594,0 8.391,2.406 8.391,7.219 0,2.343 -0.682,5.078 -2.047,8.203 -1.365,3.062 -3.188,5.406 -5.469,7.031 -5.01,3.385 -11.291,5.078 -18.844,5.078 -5.604,0 -8.406,-2.406 -8.406,-7.219 0,-2.146 0.683,-4.849 2.047,-8.109 1.302,-3.125 3.125,-5.5 5.469,-7.125 5.021,-3.385 11.307,-5.078 18.859,-5.078"
     id="path46"
     inkscape:connector-curvature="0" />
  <path
     class="Note"
     d="m 410.579,188.8378 c 3.125,0 5.766,0.812 7.922,2.437 2.011,1.761 3.016,3.974 3.016,6.641 0,4.49 -2.307,8.687 -6.922,12.594 -4.687,3.906 -9.703,5.859 -15.047,5.859 -3.125,0 -5.76,-0.812 -7.906,-2.437 -2.021,-1.761 -3.031,-3.974 -3.031,-6.641 0,-4.49 2.343,-8.688 7.031,-12.594 4.562,-3.906 9.542,-5.859 14.937,-5.859"
     id="path48"
     inkscape:connector-curvature="0" />
  <path
     class="Note"
     d="m 267.899,201.3378 c 3.125,0 5.766,0.812 7.922,2.437 2.01,1.761 3.015,3.974 3.015,6.641 0,4.49 -2.307,8.687 -6.921,12.594 -4.688,3.906 -9.704,5.859 -15.047,5.859 -3.125,0 -5.761,-0.812 -7.907,-2.437 -2.02,-1.761 -3.031,-3.974 -3.031,-6.641 0,-4.49 2.344,-8.688 7.031,-12.594 4.563,-3.906 9.542,-5.859 14.938,-5.859"
     id="path50"
     inkscape:connector-curvature="0" />
  <path
     class="Clef"
     d="m 56.719,177.0098 c 0,0 0.198,0 0.594,0 0.26,-0.063 0.484,-0.094 0.672,-0.094 7.291,0 13.281,2.573 17.968,7.719 4.688,5.073 7.032,10.994 7.032,17.765 0,8.407 -3.479,15.245 -10.438,20.516 -1.823,1.437 -4.203,2.609 -7.14,3.516 0.333,4.229 0.5,7.645 0.5,10.25 0,0.52 -0.068,2.411 -0.204,5.671 -0.26,6.053 -2.343,11.292 -6.25,15.719 -3.77,4.365 -8.458,6.547 -14.062,6.547 -5.271,0 -9.76,-1.854 -13.469,-5.562 -3.719,-3.782 -5.578,-8.339 -5.578,-13.672 0,-2.802 1.078,-5.183 3.234,-7.141 2.209,-1.948 4.776,-2.922 7.704,-2.922 2.604,0 4.786,1.011 6.546,3.031 1.823,1.886 2.735,4.23 2.735,7.032 0,2.531 -0.912,4.708 -2.735,6.531 -1.822,1.823 -4.005,2.734 -6.546,2.734 -1.042,0 -2.047,-0.192 -3.016,-0.578 2.865,4.229 6.672,6.344 11.422,6.344 4.489,0 8.166,-1.823 11.031,-5.469 3,-3.771 4.63,-8.166 4.891,-13.187 0.125,-3.125 0.187,-4.912 0.187,-5.36 0,-3.646 -0.13,-6.64 -0.39,-8.984 -3.25,0.521 -6.146,0.781 -8.688,0.781 -9.052,0 -16.766,-3.583 -23.141,-10.75 -6.25,-7.229 -9.375,-15.823 -9.375,-25.781 0,-2.083 0.193,-4.198 0.579,-6.344 0.395,-1.76 0.885,-3.682 1.468,-5.765 0.323,-1.178 1.203,-3.068 2.641,-5.672 0.521,-0.782 1.107,-1.758 1.758,-2.93 0.651,-1.172 1.107,-1.951 1.367,-2.336 0.646,-1.302 1.911,-3.062 3.797,-5.281 0.521,-0.584 1.06,-1.232 1.617,-1.945 0.557,-0.714 1.031,-1.3 1.422,-1.758 0.39,-0.459 0.682,-0.818 0.875,-1.078 0.193,-0.261 1.659,-1.985 4.398,-5.172 0.646,-0.657 1.279,-1.357 1.899,-2.102 0.62,-0.745 1.125,-1.331 1.515,-1.758 0.391,-0.427 0.685,-0.734 0.883,-0.922 -2.344,-7.75 -3.812,-13.937 -4.406,-18.562 -0.448,-3.708 -0.672,-8.787 -0.672,-15.234 0,-5.667 1.302,-10.974 3.906,-15.922 2.532,-5.136 6.078,-9.334 10.641,-12.594 0.26,-0.198 0.583,-0.297 0.969,-0.297 0.458,0 0.786,0.099 0.984,0.297 3.51,4.229 6.537,9.729 9.078,16.5 2.604,6.771 3.906,12.927 3.906,18.469 0,6.25 -1.494,12.109 -4.484,17.578 -3.385,5.791 -7.75,11.781 -13.094,17.969 1.365,4.291 3.188,11.026 5.469,20.203 m 8.297,45.422 c 3.385,-1.24 6.026,-3.355 7.922,-6.344 2.083,-2.865 3.125,-6.089 3.125,-9.672 0,-4.625 -1.563,-8.729 -4.688,-12.313 -3.198,-3.708 -7.271,-5.791 -12.218,-6.25 2.802,13.74 4.755,25.266 5.859,34.579 m -37.781,-22.563 c 0,6.448 2.604,12.115 7.812,17 5.334,4.75 11.323,7.125 17.969,7.125 2.729,0 5.396,-0.198 8,-0.594 -1.042,-9.896 -3.094,-21.744 -6.156,-35.547 -3.709,0.396 -6.667,1.698 -8.875,3.907 -2.157,2.281 -3.235,4.854 -3.235,7.718 0,4.948 2.641,8.954 7.922,12.016 0.448,0.458 0.672,0.948 0.672,1.469 0,0.521 -0.224,1.005 -0.672,1.453 -0.396,0.458 -0.885,0.687 -1.469,0.687 -0.062,0 -0.354,-0.062 -0.875,-0.187 -3.718,-2.021 -6.583,-4.625 -8.593,-7.813 -1.896,-3.395 -2.844,-6.817 -2.844,-10.265 0,-4.49 1.401,-8.557 4.203,-12.203 2.927,-3.646 6.734,-5.99 11.422,-7.032 -1.823,-7.291 -3.318,-12.989 -4.484,-17.093 -1.042,1.177 -2.295,2.593 -3.758,4.25 -1.464,1.656 -2.326,2.651 -2.586,2.984 -2.344,3.052 -4.136,5.427 -5.375,7.125 -2.219,3.063 -3.849,5.698 -4.891,7.906 -1.104,2.479 -2.078,5.183 -2.922,8.11 -0.843,2.802 -1.265,5.797 -1.265,8.984 m 32.609,-99.312 c -4.885,2.406 -8.724,5.854 -11.516,10.343 -2.864,4.625 -4.296,9.604 -4.296,14.938 0,4.687 1.171,11.005 3.515,18.953 4.688,-5.667 8.203,-10.906 10.547,-15.719 2.469,-5.083 3.703,-10.39 3.703,-15.922 0,-4.166 -0.651,-8.364 -1.953,-12.593"
     id="path52"
     inkscape:connector-curvature="0" />
  <path
     class="KeySig"
     d="m 113.118,173.4938 v 7.719 c 0,2.739 0.13,4.922 0.39,6.547 2.146,-1.823 3.677,-3.188 4.594,-4.094 1.042,-1.042 2.083,-2.477 3.125,-4.305 1.042,-1.828 1.562,-3.653 1.562,-5.476 0,-1.823 -0.39,-3.386 -1.171,-4.688 -0.782,-1.302 -1.823,-1.953 -3.125,-1.953 -1.563,0 -2.865,0.589 -3.907,1.766 -0.979,1.302 -1.468,2.797 -1.468,4.484 m -4.11,17.875 -1.265,-59.469 c 0.916,-0.521 1.83,-0.781 2.742,-0.781 0.911,0 1.82,0.26 2.726,0.781 l -0.781,34.469 c 2.667,-2.281 5.729,-3.422 9.188,-3.422 2.531,0 4.643,1.042 6.335,3.125 1.693,2.084 2.54,4.464 2.54,7.141 0,1.687 -0.553,3.479 -1.657,5.375 -1.041,1.75 -2.146,3.114 -3.312,4.094 -0.656,0.52 -2.318,1.822 -4.985,3.906 -0.781,0.583 -1.708,1.265 -2.781,2.047 -1.073,0.781 -1.739,1.271 -2,1.468 -0.458,0.261 -0.885,0.782 -1.281,1.563 -0.448,0.656 -0.969,1.208 -1.563,1.656 -0.448,0.396 -0.997,0.594 -1.648,0.594 -0.651,0 -1.175,-0.229 -1.57,-0.688 -0.459,-0.458 -0.688,-1.078 -0.688,-1.859"
     id="path54"
     inkscape:connector-curvature="0" />
  <path
     class="TimeSig"
     d="m 185.711,151.1348 c 0,0.656 0.36,1.276 1.078,1.859 1.042,0.781 1.855,1.37 2.438,1.766 0.781,0.448 1.599,1.489 2.453,3.125 0.708,1.562 1.063,3.479 1.063,5.75 0,4.5 -1.657,7.953 -4.969,10.359 -3.386,2.406 -7.682,3.609 -12.891,3.609 -4.239,0 -7.823,-1.041 -10.75,-3.125 -3.125,-1.948 -4.687,-4.682 -4.687,-8.203 0,-1.687 0.651,-3.25 1.953,-4.687 1.364,-1.24 2.927,-1.86 4.687,-1.86 1.823,0 3.323,0.651 4.5,1.954 1.302,1.239 1.953,2.77 1.953,4.593 0,0.844 -0.651,1.755 -1.953,2.735 -1.375,0.916 -2.062,1.797 -2.062,2.64 0,1.24 0.62,2.151 1.859,2.735 1.24,0.583 2.74,0.875 4.5,0.875 2.271,0 3.896,-1.105 4.875,-3.313 0.917,-2.417 1.375,-5.187 1.375,-8.312 v -1.657 c 0,-1.885 -0.068,-3.546 -0.203,-4.984 -0.125,-1.104 -0.578,-2.109 -1.359,-3.016 -0.719,-0.916 -1.86,-1.375 -3.422,-1.375 h -8.016 c -0.906,0 -1.359,-0.489 -1.359,-1.468 0,-0.844 0.453,-1.334 1.359,-1.469 h 8.016 c 1.823,0 3.125,-0.583 3.906,-1.75 0.646,-0.917 1.005,-2.547 1.078,-4.891 v -3.218 -0.782 c 0,-6.052 -2.213,-9.078 -6.64,-9.078 -3.907,0 -5.896,1.073 -5.969,3.219 0,0.719 0.62,1.5 1.859,2.344 1.177,0.843 1.766,1.625 1.766,2.343 0,1.625 -0.589,3.026 -1.766,4.204 -1.104,1.104 -2.469,1.656 -4.094,1.656 -1.562,0 -2.901,-0.552 -4.015,-1.656 -1.104,-1.24 -1.656,-2.641 -1.656,-4.204 0,-3.062 1.369,-5.567 4.109,-7.515 2.865,-1.823 6.12,-2.735 9.766,-2.735 4.875,0 8.911,0.943 12.109,2.829 3.187,1.822 4.781,4.687 4.781,8.593 0,2.802 -0.291,4.917 -0.875,6.344 -0.594,1.5 -1.245,2.411 -1.953,2.734 -0.781,0.334 -1.432,0.724 -1.953,1.172 -0.594,0.459 -0.891,1.078 -0.891,1.86"
     id="path56"
     inkscape:connector-curvature="0" />
  <path
     class="TimeSig"
     d="m 178.493,178.9548 c 1.947,0 3.606,-0.227 4.976,-0.68 1.37,-0.453 2.248,-0.679 2.633,-0.679 0.458,0 0.818,0.13 1.078,0.39 0.198,0.188 0.328,0.412 0.391,0.672 0,0.136 -0.068,0.333 -0.203,0.594 l -28.407,33.016 h 16.688 v -13.094 c 0,-0.844 0.229,-1.563 0.687,-2.156 0.782,-0.646 1.433,-1.037 1.953,-1.172 0.844,-0.386 1.886,-1.297 3.125,-2.735 1.042,-1.166 2.282,-3.213 3.719,-6.14 0.188,-0.396 0.479,-0.594 0.875,-0.594 0.781,0 1.235,0.458 1.36,1.375 v 24.516 h 7.14 c 0.906,0 1.427,0.484 1.563,1.453 0,0.979 -0.521,1.468 -1.563,1.468 h -7.14 v 0.782 c 0,2.604 0.651,4.817 1.953,6.64 1.5,1.823 3.26,2.735 5.281,2.735 0.781,0 1.172,0.39 1.172,1.172 0,0.781 -0.391,1.171 -1.172,1.171 -1.365,0 -3.578,-0.192 -6.641,-0.578 -2.802,-0.458 -4.984,-0.687 -6.547,-0.687 -1.625,0 -3.807,0.229 -6.546,0.687 -2.928,0.386 -5.105,0.578 -6.532,0.578 -0.781,0 -1.172,-0.39 -1.172,-1.171 0,-0.782 0.391,-1.172 1.172,-1.172 2.011,0 3.766,-0.912 5.266,-2.735 1.365,-1.885 2.047,-4.099 2.047,-6.64 v -0.782 h -16.688 c -1.114,0 -1.896,-0.26 -2.343,-0.781 -0.532,-0.385 -0.797,-0.906 -0.797,-1.562 0,-0.198 0.489,-0.881 1.468,-2.047 1.115,-1.302 2.287,-2.896 3.516,-4.781 1.438,-2.219 2.807,-4.5 4.109,-6.844 1.428,-2.667 2.568,-5.729 3.422,-9.188 0.969,-3.51 1.453,-7.088 1.453,-10.734 0,-1.042 0.459,-1.563 1.375,-1.563 0.198,0 0.62,0.099 1.266,0.297 0.198,0.063 0.607,0.159 1.227,0.289 0.619,0.131 1.122,0.258 1.507,0.383 1.178,0.198 2.287,0.297 3.329,0.297"
     id="path58"
     inkscape:connector-curvature="0" />
  <path
     class="Rest"
     d="m 1212.608,157.0878 c 1.89,0 3.32,0.521 4.3,1.562 0.98,1.177 1.5,2.287 1.56,3.328 0.14,0.98 0.47,2.084 0.99,3.313 0.58,1.042 1.33,1.562 2.23,1.562 0.72,0 1.8,-0.812 3.24,-2.437 1.3,-1.427 2.24,-2.698 2.82,-3.813 0.33,-0.645 0.78,-0.968 1.36,-0.968 h 0.11 c 0.65,0.062 1.1,0.385 1.36,0.968 l -12.29,42 c -0.66,0.657 -1.57,0.985 -2.75,0.985 -1.17,0 -2.08,-0.328 -2.72,-0.985 l 11.72,-32.625 c -4.17,1.5 -7.69,2.25 -10.55,2.25 -2.34,0 -4.37,-0.75 -6.06,-2.25 -1.76,-1.427 -2.64,-3.312 -2.64,-5.656 0,-2.021 0.71,-3.713 2.15,-5.078 1.43,-1.437 3.15,-2.156 5.17,-2.156"
     id="path60"
     inkscape:connector-curvature="0" />
  <path
     class="Rest"
     d="m 530.698,169.7908 c 0,-1.177 0.656,-2.479 1.968,-3.906 0.969,-1.042 2.401,-2.282 4.297,-3.719 1.427,-0.969 2.823,-2.432 4.188,-4.391 1.302,-1.885 1.953,-3.937 1.953,-6.156 0,-2.604 -0.844,-4.911 -2.531,-6.922 l -3.516,-4.203 c -0.261,-0.26 -0.391,-0.586 -0.391,-0.977 0,-0.39 0.193,-0.747 0.578,-1.07 0.459,-0.333 0.849,-0.5 1.172,-0.5 0.459,0 0.818,0.198 1.078,0.594 l 15.141,17.969 c 0.646,0.843 0.969,1.687 0.969,2.531 0,1.177 -0.651,2.479 -1.953,3.906 -0.844,0.917 -2.24,2.156 -4.188,3.719 -1.5,0.906 -2.932,2.37 -4.297,4.391 -1.302,1.885 -1.953,3.937 -1.953,6.156 0,2.739 0.781,5.052 2.344,6.937 l 8.391,9.86 c 0.197,0.198 0.359,0.526 0.484,0.984 0,0.448 -0.162,0.839 -0.484,1.172 -0.459,0.323 -0.849,0.484 -1.172,0.484 -0.125,0 -0.646,-0.359 -1.563,-1.078 -0.979,-0.781 -2.281,-1.531 -3.906,-2.25 -1.823,-0.708 -3.615,-1.062 -5.375,-1.062 -1.625,0 -2.958,0.453 -4,1.359 -0.906,0.917 -1.359,2.677 -1.359,5.281 0,3.969 0.942,7.094 2.828,9.375 0.198,0.261 0.229,0.584 0.093,0.969 -0.125,0.26 -0.354,0.391 -0.687,0.391 -0.448,0 -1.453,-1.172 -3.016,-3.516 -1.635,-2.469 -3.166,-5.302 -4.593,-8.5 -1.5,-3.385 -2.25,-6.182 -2.25,-8.391 0,-2.802 1.333,-4.203 4,-4.203 3.062,0 7.036,1.042 11.921,3.125 l -13.187,-15.828 c -0.656,-0.844 -0.984,-1.687 -0.984,-2.531"
     id="path62"
     inkscape:connector-curvature="0" />
  <path
     class="Hook"
     d="m 1137.868,155.2438 c 1.5,0 3.1,2.438 4.8,7.313 1.63,4.822 2.44,9.416 2.44,13.781 0,3.708 -0.91,7.385 -2.74,11.031 -1.88,3.906 -4.13,7.292 -6.73,10.156 l -8.02,8.985 c -2.46,2.864 -4.68,6.182 -6.64,9.953 -1.82,3.646 -2.73,7.359 -2.73,11.14 h -3.13 v -25 h 3.13 c 1.76,-1.104 4.36,-2.864 7.81,-5.281 1.56,-1.166 3.91,-3.12 7.03,-5.859 2.54,-2.344 4.47,-4.75 5.77,-7.219 1.36,-2.604 2.05,-5.24 2.05,-7.906 0,-6.188 -1.8,-12.344 -5.38,-18.469 0,0 0,-0.13 0,-0.391 0,-0.583 0.2,-1.067 0.59,-1.453 0.52,-0.521 1.11,-0.781 1.75,-0.781"
     id="path64"
     inkscape:connector-curvature="0" />
  <path
     class="StaffText"
     d="m 1070.2174,0 c 1.438,0 2.805,0.117 4.102,0.352 1.297,0.234 2.638,0.645 4.023,1.234 1.386,0.588 2.495,1.5 3.328,2.734 0.834,1.235 1.25,2.737 1.25,4.508 0,4.427 -2.932,7.188 -8.797,8.281 -0.104,0.032 -0.187,0.047 -0.25,0.047 l 10.297,12.656 c 0.698,0.834 1.357,1.417 1.977,1.75 0.62,0.334 1.414,0.532 2.383,0.594 v 0.953 h -8.063 l -11.89,-15.406 -2.813,0.109 v 9.844 c 0,1.802 0.268,2.969 0.805,3.5 0.536,0.531 1.768,0.865 3.695,1 v 0.953 h -13.844 v -0.953 c 1.865,-0.135 3.039,-0.495 3.524,-1.078 0.484,-0.583 0.726,-1.906 0.726,-3.969 V 5.453 c 0,-1.76 -0.242,-2.901 -0.726,-3.422 -0.485,-0.521 -1.659,-0.88 -3.524,-1.078 V 0 h 13.797 m -4.453,15.953 c 4.042,-0.062 7.003,-0.591 8.883,-1.586 1.88,-0.995 2.82,-2.872 2.82,-5.633 0,-2.323 -0.742,-4.041 -2.226,-5.156 -1.485,-1.114 -3.789,-1.672 -6.914,-1.672 -1,0 -1.678,0.125 -2.032,0.375 -0.354,0.25 -0.531,0.724 -0.531,1.422 v 12.25 m 27.7499,3.313 c 0.073,2.093 0.359,3.898 0.859,5.414 0.5,1.515 1.149,2.648 1.946,3.398 0.797,0.75 1.604,1.284 2.422,1.602 0.817,0.317 1.679,0.476 2.586,0.476 1.593,0 2.981,-0.398 4.164,-1.195 1.182,-0.797 2.377,-2.149 3.586,-4.055 l 0.796,0.36 c -1.031,2.698 -2.463,4.763 -4.296,6.195 -1.834,1.432 -3.938,2.148 -6.313,2.148 -2.865,0 -5.138,-1.007 -6.82,-3.023 -1.683,-2.016 -2.524,-4.742 -2.524,-8.18 0,-3.698 0.974,-6.672 2.922,-8.922 1.948,-2.25 4.458,-3.375 7.531,-3.375 2.532,0 4.498,0.758 5.899,2.274 1.401,1.515 2.284,3.81 2.648,6.883 h -15.406 m 0.109,-1.5 h 10.204 c -0.334,-2.167 -0.852,-3.667 -1.555,-4.5 -0.703,-0.834 -1.82,-1.25 -3.352,-1.25 -3,0 -4.765,1.916 -5.297,5.75 m 30.454,-6.657 c 0.031,0 0.296,-0.166 0.796,-0.5 h 0.547 l 0.203,6.797 h -0.75 c -0.573,-2.229 -1.276,-3.81 -2.109,-4.742 -0.833,-0.932 -1.964,-1.398 -3.391,-1.398 -1.135,0 -2.062,0.315 -2.781,0.945 -0.719,0.63 -1.078,1.445 -1.078,2.445 0,1.438 0.719,2.573 2.156,3.406 l 5.407,3.204 c 1.5,0.895 2.572,1.802 3.218,2.718 0.646,0.917 0.969,1.99 0.969,3.219 0,1.74 -0.69,3.242 -2.07,4.508 -1.38,1.266 -3.039,1.898 -4.977,1.898 -0.833,0 -1.95,-0.151 -3.351,-0.453 -1.401,-0.302 -2.269,-0.453 -2.602,-0.453 -0.5,0 -0.88,0.203 -1.141,0.609 h -0.656 v -7.796 h 0.797 c 0.542,2.333 1.177,3.979 1.906,4.937 1.063,1.375 2.547,2.063 4.453,2.063 1.261,0 2.266,-0.326 3.016,-0.977 0.75,-0.651 1.125,-1.529 1.125,-2.633 0,-1.5 -0.865,-2.75 -2.594,-3.75 l -2.906,-1.64 c -2.125,-1.209 -3.63,-2.362 -4.516,-3.461 -0.885,-1.099 -1.328,-2.347 -1.328,-3.743 0,-1.802 0.641,-3.278 1.922,-4.429 1.281,-1.151 2.906,-1.727 4.875,-1.727 1.104,0 2.138,0.159 3.102,0.477 0.963,0.318 1.549,0.476 1.758,0.476 m 17.546,-0.5 v 1.5 h -5.046 v 14.297 c 0,1.573 0.197,2.716 0.593,3.43 0.396,0.713 1.063,1.07 2,1.07 1.032,0 2.032,-0.583 3,-1.75 l 0.657,0.547 c -1.605,2.604 -3.605,3.906 -6,3.906 -2.969,0 -4.454,-2.125 -4.454,-6.375 V 12.109 h -2.656 c -0.135,-0.093 -0.203,-0.203 -0.203,-0.328 0,-0.156 0.052,-0.281 0.156,-0.375 0.104,-0.094 0.297,-0.226 0.578,-0.398 0.282,-0.172 0.623,-0.419 1.024,-0.742 0.401,-0.323 0.95,-0.907 1.648,-1.75 0.698,-0.844 1.464,-1.855 2.297,-3.032 0.531,-0.781 0.865,-1.255 1,-1.422 0.24,0 0.36,0.219 0.36,0.657 v 5.89 h 5.046 m 14.454,0.5 c 0.031,0 0.296,-0.166 0.796,-0.5 h 0.547 l 0.203,6.797 h -0.75 c -0.573,-2.229 -1.276,-3.81 -2.109,-4.742 -0.833,-0.932 -1.964,-1.398 -3.391,-1.398 -1.135,0 -2.062,0.315 -2.781,0.945 -0.719,0.63 -1.078,1.445 -1.078,2.445 0,1.438 0.719,2.573 2.156,3.406 l 5.407,3.204 c 1.5,0.895 2.572,1.802 3.218,2.718 0.646,0.917 0.969,1.99 0.969,3.219 0,1.74 -0.69,3.242 -2.07,4.508 -1.38,1.266 -3.039,1.898 -4.977,1.898 -0.833,0 -1.95,-0.151 -3.351,-0.453 -1.401,-0.302 -2.269,-0.453 -2.602,-0.453 -0.5,0 -0.88,0.203 -1.141,0.609 h -0.656 v -7.796 h 0.797 c 0.542,2.333 1.177,3.979 1.906,4.937 1.063,1.375 2.547,2.063 4.453,2.063 1.261,0 2.266,-0.326 3.016,-0.977 0.75,-0.651 1.125,-1.529 1.125,-2.633 0,-1.5 -0.865,-2.75 -2.594,-3.75 l -2.906,-1.64 c -2.125,-1.209 -3.63,-2.362 -4.516,-3.461 -0.885,-1.099 -1.328,-2.347 -1.328,-3.743 0,-1.802 0.641,-3.278 1.922,-4.429 1.281,-1.151 2.906,-1.727 4.875,-1.727 1.104,0 2.138,0.159 3.102,0.477 0.963,0.318 1.549,0.476 1.758,0.476"
     id="path66"
     inkscape:connector-curvature="0" />
  <path
     class="StaffText"
     d="m 521.6965,331.69022 c -0.927,0.104 -1.617,0.214 -2.07,0.328 -0.453,0.115 -0.922,0.373 -1.406,0.774 -0.485,0.401 -0.818,1.026 -1,1.875 -0.183,0.849 -0.274,1.992 -0.274,3.429 v 26.297 h -0.844 l -22.109,-27.5 v 19.61 c 0,2.531 0.299,4.205 0.898,5.023 0.599,0.818 1.868,1.273 3.805,1.367 v 0.953 h -11.75 v -0.953 c 2.063,-0.135 3.386,-0.594 3.969,-1.375 0.583,-0.781 0.875,-2.453 0.875,-5.015 v -22.063 c -1,-1.167 -1.792,-1.917 -2.375,-2.25 -0.583,-0.333 -1.406,-0.5 -2.469,-0.5 v -0.953 h 8.547 l 19.25,24.203 v -16.844 c 0,-2.531 -0.307,-4.19 -0.922,-4.976 -0.614,-0.787 -1.906,-1.263 -3.875,-1.43 v -0.953 h 11.75 v 0.953 m 12.797,9.156 c 3.198,0 5.831,1.068 7.898,3.203 2.068,2.136 3.102,4.834 3.102,8.094 0,3.469 -1.065,6.37 -3.195,8.703 -2.131,2.334 -4.763,3.5 -7.899,3.5 -3.135,0 -5.745,-1.125 -7.828,-3.375 -2.083,-2.25 -3.125,-5.057 -3.125,-8.422 0,-3.437 1.026,-6.247 3.078,-8.429 2.052,-2.182 4.709,-3.274 7.969,-3.274 m -6.547,9.266 c 0,3.542 0.651,6.549 1.953,9.023 1.302,2.474 3,3.711 5.094,3.711 1.865,0 3.331,-0.791 4.398,-2.375 1.068,-1.583 1.602,-3.781 1.602,-6.593 0,-3.396 -0.667,-6.167 -2,-8.313 -1.333,-2.146 -3.047,-3.219 -5.141,-3.219 -1.77,0 -3.198,0.709 -4.281,2.125 -1.083,1.417 -1.625,3.297 -1.625,5.641 m 32.203,-8.766 v 1.5 h -5.047 v 14.297 c 0,1.573 0.198,2.716 0.594,3.43 0.396,0.713 1.063,1.07 2,1.07 1.031,0 2.031,-0.583 3,-1.75 l 0.656,0.547 c -1.604,2.604 -3.604,3.906 -6,3.906 -2.968,0 -4.453,-2.125 -4.453,-6.375 v -15.125 h -2.656 c -0.135,-0.093 -0.203,-0.203 -0.203,-0.328 0,-0.156 0.052,-0.281 0.156,-0.375 0.104,-0.094 0.297,-0.226 0.578,-0.398 0.282,-0.172 0.623,-0.419 1.024,-0.742 0.401,-0.323 0.95,-0.907 1.648,-1.75 0.698,-0.844 1.464,-1.855 2.297,-3.032 0.531,-0.781 0.865,-1.255 1,-1.422 0.24,0 0.359,0.219 0.359,0.657 v 5.89 h 5.047 m 5.891,8.657 c 0.073,2.093 0.359,3.898 0.859,5.414 0.5,1.515 1.149,2.648 1.946,3.398 0.796,0.75 1.604,1.284 2.421,1.602 0.818,0.317 1.68,0.476 2.586,0.476 1.594,0 2.982,-0.398 4.164,-1.195 1.183,-0.797 2.378,-2.149 3.586,-4.055 l 0.797,0.36 c -1.031,2.698 -2.463,4.763 -4.297,6.195 -1.833,1.432 -3.937,2.148 -6.312,2.148 -2.865,0 -5.138,-1.007 -6.82,-3.023 -1.683,-2.016 -2.524,-4.742 -2.524,-8.18 0,-3.698 0.974,-6.672 2.922,-8.922 1.948,-2.25 4.458,-3.375 7.531,-3.375 2.532,0 4.498,0.758 5.899,2.274 1.401,1.515 2.284,3.81 2.648,6.883 h -15.406 m 0.109,-1.5 h 10.203 c -0.333,-2.167 -0.851,-3.667 -1.554,-4.5 -0.703,-0.834 -1.821,-1.25 -3.352,-1.25 -3,0 -4.765,1.916 -5.297,5.75 m 30.453,-6.657 c 0.032,0 0.297,-0.166 0.797,-0.5 h 0.547 l 0.203,6.797 h -0.75 c -0.573,-2.229 -1.276,-3.81 -2.109,-4.742 -0.833,-0.932 -1.964,-1.398 -3.391,-1.398 -1.135,0 -2.062,0.315 -2.781,0.945 -0.719,0.63 -1.078,1.445 -1.078,2.445 0,1.438 0.719,2.573 2.156,3.406 l 5.406,3.204 c 1.5,0.895 2.573,1.802 3.219,2.718 0.646,0.917 0.969,1.99 0.969,3.219 0,1.74 -0.69,3.242 -2.07,4.508 -1.381,1.266 -3.039,1.898 -4.977,1.898 -0.833,0 -1.951,-0.151 -3.352,-0.453 -1.401,-0.302 -2.268,-0.453 -2.601,-0.453 -0.5,0 -0.88,0.203 -1.141,0.609 h -0.656 v -7.796 h 0.797 c 0.542,2.333 1.177,3.979 1.906,4.937 1.063,1.375 2.547,2.063 4.453,2.063 1.261,0 2.266,-0.326 3.016,-0.977 0.75,-0.651 1.125,-1.529 1.125,-2.633 0,-1.5 -0.865,-2.75 -2.594,-3.75 l -2.906,-1.64 c -2.125,-1.209 -3.63,-2.362 -4.516,-3.461 -0.885,-1.099 -1.328,-2.347 -1.328,-3.743 0,-1.802 0.641,-3.278 1.922,-4.429 1.281,-1.151 2.906,-1.727 4.875,-1.727 1.104,0 2.138,0.159 3.102,0.477 0.963,0.318 1.549,0.476 1.757,0.476"
     id="path68"
     inkscape:connector-curvature="0" />
  <path
     style="fill:none;stroke:#cc2727;stroke-width:3;stroke-linecap:butt;stroke-linejoin:miter;stroke-miterlimit:4;stroke-dasharray:none;stroke-opacity:1;marker-end:url(#Arrow1Mend)"
     d="M 474.21534,330.84242 281.48342,234.28749"
     id="path886"
     inkscape:connector-curvature="0"
     sodipodi:nodetypes="cc" />
  <path
     style="fill:none;stroke:#cc2727;stroke-width:3;stroke-linecap:butt;stroke-linejoin:miter;stroke-miterlimit:4;stroke-dasharray:none;stroke-opacity:1;marker-end:url(#Arrow1Mend-6)"
     d="M 576.49906,327.74657 686.40478,195.85106"
     id="path886-3"
     inkscape:connector-curvature="0"
     sodipodi:nodetypes="cc" />
  <path
     style="fill:none;stroke:#cc2727;stroke-width:3;stroke-linecap:butt;stroke-linejoin:miter;stroke-miterlimit:4;stroke-dasharray:none;stroke-opacity:1;marker-end:url(#Arrow1Mend-1)"
     d="M 616.47909,345.28962 1100.7171,166.3839"
     id="path886-9"
     inkscape:connector-curvature="0"
     sodipodi:nodetypes="cc" />
  <path
     style="fill:none;stroke:#cc2727;stroke-width:3;stroke-linecap:butt;stroke-linejoin:miter;stroke-miterlimit:4;stroke-dasharray:none;stroke-opacity:1;marker-end:url(#Arrow1Mend-18)"
     d="m 1160.6767,43.197086 44.5902,98.159784"
     id="path886-8"
     inkscape:connector-curvature="0"
     sodipodi:nodetypes="cc" />
  <path
     style="fill:none;stroke:#cc2727;stroke-width:3;stroke-linecap:butt;stroke-linejoin:miter;stroke-miterlimit:4;stroke-dasharray:none;stroke-opacity:1;marker-end:url(#Arrow1Mend-15)"
     d="M 1040.0345,30.252467 570.45631,164.48446"
     id="path886-7"
     inkscape:connector-curvature="0"
     sodipodi:nodetypes="cc" />
</svg>
