<?xml version="1.0" encoding="UTF-8" standalone="no"?>
<svg
   xmlns:dc="http://purl.org/dc/elements/1.1/"
   xmlns:cc="http://creativecommons.org/ns#"
   xmlns:rdf="http://www.w3.org/1999/02/22-rdf-syntax-ns#"
   xmlns:svg="http://www.w3.org/2000/svg"
   xmlns="http://www.w3.org/2000/svg"
   xmlns:sodipodi="http://sodipodi.sourceforge.net/DTD/sodipodi-0.dtd"
   xmlns:inkscape="http://www.inkscape.org/namespaces/inkscape"
   width="26.657"
   height="71.688004"
   viewBox="0 0 26.657 71.688004"
   version="1.2"
   id="svg4141"
   sodipodi:docname="quarter-rest.svg"
   inkscape:version="0.92.4 (5da689c313, 2019-01-14)">
  <metadata
     id="metadata4147">
    <rdf:RDF>
      <cc:Work
         rdf:about="">
        <dc:format>image/svg+xml</dc:format>
        <dc:type
           rdf:resource="http://purl.org/dc/dcmitype/StillImage" />
        <dc:title>Untitled-2</dc:title>
      </cc:Work>
    </rdf:RDF>
  </metadata>
  <defs
     id="defs4145" />
  <sodipodi:namedview
     pagecolor="#ffffff"
     bordercolor="#666666"
     borderopacity="1"
     objecttolerance="10"
     gridtolerance="10"
     guidetolerance="10"
     inkscape:pageopacity="0"
     inkscape:pageshadow="2"
     inkscape:window-width="1920"
     inkscape:window-height="1017"
     id="namedview4143"
     showgrid="false"
     inkscape:zoom="0.85656566"
     inkscape:cx="-384.32742"
     inkscape:cy="36.94646"
     inkscape:window-x="-8"
     inkscape:window-y="-8"
     inkscape:window-maximized="1"
     inkscape:current-layer="svg4141"
     fit-margin-top="0"
     fit-margin-left="0"
     fit-margin-right="0"
     fit-margin-bottom="0" />
  <title
     id="title3931">Untitled-2</title>
  <desc
     id="desc3933">Generated by MuseScore 3.0.5</desc>
  <path
     class="Rest"
     d="m 1.75,31.844 c 0,-1.177 0.657,-2.479 1.969,-3.906 0.969,-1.042 2.401,-2.282 4.297,-3.719 1.427,-0.969 2.823,-2.432 4.188,-4.391 1.302,-1.885 1.953,-3.937 1.953,-6.156 0,-2.604 -0.844,-4.911 -2.532,-6.922 L 8.11,2.547 C 7.849,2.287 7.719,1.961 7.719,1.57 7.719,1.18 7.912,0.823 8.297,0.5 8.756,0.167 9.146,0 9.469,0 c 0.458,0 0.818,0.198 1.078,0.594 l 15.141,17.969 c 0.646,0.843 0.969,1.687 0.969,2.531 0,1.177 -0.651,2.479 -1.953,3.906 -0.844,0.917 -2.24,2.156 -4.188,3.719 -1.5,0.906 -2.932,2.37 -4.297,4.391 -1.302,1.885 -1.953,3.937 -1.953,6.156 0,2.739 0.781,5.052 2.344,6.937 l 8.39,9.86 c 0.198,0.198 0.36,0.526 0.485,0.984 0,0.448 -0.162,0.839 -0.485,1.172 -0.458,0.323 -0.849,0.484 -1.171,0.484 -0.125,0 -0.646,-0.359 -1.563,-1.078 -0.979,-0.781 -2.281,-1.531 -3.906,-2.25 -1.823,-0.708 -3.615,-1.062 -5.375,-1.062 -1.625,0 -2.959,0.453 -4,1.359 -0.906,0.917 -1.36,2.677 -1.36,5.281 0,3.969 0.943,7.094 2.829,9.375 0.197,0.261 0.229,0.584 0.093,0.969 -0.125,0.26 -0.354,0.391 -0.687,0.391 -0.448,0 -1.453,-1.172 -3.016,-3.516 C 5.209,65.703 3.677,62.87 2.25,59.672 0.75,56.287 0,53.49 0,51.281 c 0,-2.802 1.334,-4.203 4,-4.203 3.063,0 7.037,1.042 11.922,3.125 L 2.735,34.375 C 2.079,33.531 1.75,32.688 1.75,31.844"
     id="path4129"
     inkscape:connector-curvature="0" />
</svg>
