<?xml version="1.0" encoding="UTF-8" standalone="no"?>
<svg
   xmlns:dc="http://purl.org/dc/elements/1.1/"
   xmlns:cc="http://creativecommons.org/ns#"
   xmlns:rdf="http://www.w3.org/1999/02/22-rdf-syntax-ns#"
   xmlns:svg="http://www.w3.org/2000/svg"
   xmlns="http://www.w3.org/2000/svg"
   xmlns:sodipodi="http://sodipodi.sourceforge.net/DTD/sodipodi-0.dtd"
   xmlns:inkscape="http://www.inkscape.org/namespaces/inkscape"
   width="32.630001"
   height="71.5"
   viewBox="0 0 32.630001 71.5"
   version="1.2"
   id="svg4141"
   sodipodi:docname="sixteenth-rest.svg"
   inkscape:version="0.92.4 (5da689c313, 2019-01-14)">
  <metadata
     id="metadata4147">
    <rdf:RDF>
      <cc:Work
         rdf:about="">
        <dc:format>image/svg+xml</dc:format>
        <dc:type
           rdf:resource="http://purl.org/dc/dcmitype/StillImage" />
        <dc:title>Untitled-2</dc:title>
      </cc:Work>
    </rdf:RDF>
  </metadata>
  <defs
     id="defs4145" />
  <sodipodi:namedview
     pagecolor="#ffffff"
     bordercolor="#666666"
     borderopacity="1"
     objecttolerance="10"
     gridtolerance="10"
     guidetolerance="10"
     inkscape:pageopacity="0"
     inkscape:pageshadow="2"
     inkscape:window-width="1920"
     inkscape:window-height="1017"
     id="namedview4143"
     showgrid="false"
     inkscape:zoom="0.60568339"
     inkscape:cx="-505.15619"
     inkscape:cy="8.0900355"
     inkscape:window-x="-8"
     inkscape:window-y="-8"
     inkscape:window-maximized="1"
     inkscape:current-layer="svg4141"
     fit-margin-top="0"
     fit-margin-left="0"
     fit-margin-right="0"
     fit-margin-bottom="0" />
  <title
     id="title3931">Untitled-2</title>
  <desc
     id="desc3933">Generated by MuseScore 3.0.5</desc>
  <path
     class="Rest"
     d="m 15.14,0 c 1.96,0 3.36,0.521 4.2,1.562 0.91,1.115 1.46,2.224 1.66,3.328 0.06,1.105 0.39,2.209 0.98,3.313 0.39,1.042 1.1,1.562 2.15,1.562 0.65,0 1.63,-0.781 2.93,-2.343 1.49,-1.823 2.43,-3.125 2.83,-3.907 0.32,-0.645 0.78,-0.968 1.36,-0.968 0,0 0.04,0 0.11,0 0.58,0.062 1,0.385 1.27,0.968 l -17.88,67 C 14.1,71.172 13.2,71.5 12.02,71.5 10.85,71.5 9.94,71.172 9.28,70.515 L 19.34,37.797 C 14.98,39.359 11.43,40.14 8.7,40.14 6.36,40.14 4.34,39.396 2.64,37.906 0.88,36.469 0,34.578 0,32.234 c 0,-2.021 0.68,-3.713 2.05,-5.078 1.43,-1.427 3.16,-2.141 5.18,-2.141 1.95,0 3.35,0.521 4.21,1.563 0.97,1.104 1.55,2.208 1.75,3.312 0.2,1.303 0.52,2.412 0.98,3.329 0.45,1.041 1.16,1.562 2.14,1.562 0.78,0 1.89,-0.911 3.33,-2.734 1.49,-1.698 2.4,-3.037 2.74,-4.016 L 26.95,12.89 c -4.16,1.5 -7.64,2.25 -10.43,2.25 -2.35,0 -4.37,-0.75 -6.07,-2.25 C 8.69,11.463 7.81,9.578 7.81,7.234 7.81,5.213 8.53,3.521 9.97,2.156 11.4,0.719 13.12,0 15.14,0"
     id="path4119"
     inkscape:connector-curvature="0" />
</svg>
