<?xml version="1.0" encoding="UTF-8" standalone="no"?>
<svg
   xmlns:dc="http://purl.org/dc/elements/1.1/"
   xmlns:cc="http://creativecommons.org/ns#"
   xmlns:rdf="http://www.w3.org/1999/02/22-rdf-syntax-ns#"
   xmlns:svg="http://www.w3.org/2000/svg"
   xmlns="http://www.w3.org/2000/svg"
   xmlns:sodipodi="http://sodipodi.sourceforge.net/DTD/sodipodi-0.dtd"
   xmlns:inkscape="http://www.inkscape.org/namespaces/inkscape"
   width="53.700001"
   height="102.91415"
   viewBox="0 0 53.700001 102.91415"
   version="1.2"
   id="svg4141"
   sodipodi:docname="sixteenth-note.svg"
   inkscape:version="0.92.4 (5da689c313, 2019-01-14)">
  <metadata
     id="metadata4147">
    <rdf:RDF>
      <cc:Work
         rdf:about="">
        <dc:format>image/svg+xml</dc:format>
        <dc:type
           rdf:resource="http://purl.org/dc/dcmitype/StillImage" />
        <dc:title>Untitled-2</dc:title>
      </cc:Work>
    </rdf:RDF>
  </metadata>
  <defs
     id="defs4145" />
  <sodipodi:namedview
     pagecolor="#ffffff"
     bordercolor="#666666"
     borderopacity="1"
     objecttolerance="10"
     gridtolerance="10"
     guidetolerance="10"
     inkscape:pageopacity="0"
     inkscape:pageshadow="2"
     inkscape:window-width="1920"
     inkscape:window-height="1017"
     id="namedview4143"
     showgrid="false"
     inkscape:zoom="0.42828283"
     inkscape:cx="-1107.3065"
     inkscape:cy="-209.36181"
     inkscape:window-x="-8"
     inkscape:window-y="-8"
     inkscape:window-maximized="1"
     inkscape:current-layer="svg4141"
     fit-margin-top="0"
     fit-margin-left="0"
     fit-margin-right="0"
     fit-margin-bottom="0" />
  <title
     id="title3931">Untitled-2</title>
  <desc
     id="desc3933">Generated by MuseScore 3.0.5</desc>
  <polyline
     class="Stem"
     points="1280.97,374.537 1280.97,291.732"
     id="polyline4025"
     transform="translate(-1249.68,-290.08386)"
     style="fill:none;stroke:#000000;stroke-width:3.25;stroke-linecap:round;stroke-linejoin:bevel" />
  <path
     class="Note"
     d="m 21.97,75.383144 c 3.12,0 5.76,0.812 7.92,2.437 2.01,1.761 3.02,3.974 3.02,6.641 0,4.49 -2.31,8.687 -6.93,12.594 -4.68,3.905996 -9.7,5.858996 -15.04,5.858996 -3.13,0 -5.76,-0.812 -7.91,-2.437 C 1.01,98.716144 0,96.503144 0,93.836144 c 0,-4.49 2.34,-8.688 7.03,-12.594 4.56,-3.906 9.54,-5.859 14.94,-5.859"
     id="path4035"
     inkscape:connector-curvature="0" />
  <path
     class="Hook"
     d="m 32.79,1.64814 c 0,3.323 0.72,6.646 2.16,9.969 1.36,3.25 3.05,6.339 5.07,9.266 l 5.86,8.594 c 1.95,2.677 3.64,5.77 5.08,9.281 1.43,3.26 2.14,6.547 2.14,9.859 0,3.063004 -0.78,6.255004 -2.34,9.578004 1.96,3.969 2.94,7.844 2.94,11.625 0,5.99 -1.41,12.11 -4.21,18.36 -0.52,0.781 -1.14,1.172 -1.86,1.172 -0.64,0 -1.23,-0.261 -1.75,-0.782 -0.39,-0.396 -0.59,-0.885 -0.59,-1.468 0,0 0,-0.162 0,-0.485 2.8,-5.542 4.2,-11.14 4.2,-16.797 0,-2.541 -0.49,-4.885 -1.47,-7.031 -1.16,-2.542 -2.59,-4.885 -4.29,-7.031 -2.15,-2.802 -3.84,-4.823004 -5.08,-6.063004 -1.69,-1.687 -3.64,-3.541 -5.86,-5.562 v 7.515004 H 29.66 V 1.64814 h 3.13 m 15.33,51.657004 c 0.46,-1.365 0.69,-2.927004 0.69,-4.688004 0,-2.271 -0.46,-4.578 -1.36,-6.922 -0.98,-2.343 -2.35,-4.724 -4.11,-7.14 -1.63,-2.011 -3.29,-3.995 -4.99,-5.953 -1.3,-1.428 -3.15,-3.313 -5.56,-5.657 0,2.667 0.55,5.495 1.66,8.485 1.17,2.802 2.38,5.244 3.62,7.328 1.43,2.219 3.18,4.726 5.27,7.523 2.08,2.797 3.67,5.138004 4.78,7.024004"
     id="path4137"
     inkscape:connector-curvature="0" />
</svg>
