<?xml version="1.0" encoding="UTF-8" standalone="no"?>
<svg
   xmlns:dc="http://purl.org/dc/elements/1.1/"
   xmlns:cc="http://creativecommons.org/ns#"
   xmlns:rdf="http://www.w3.org/1999/02/22-rdf-syntax-ns#"
   xmlns:svg="http://www.w3.org/2000/svg"
   xmlns="http://www.w3.org/2000/svg"
   xmlns:sodipodi="http://sodipodi.sourceforge.net/DTD/sodipodi-0.dtd"
   xmlns:inkscape="http://www.inkscape.org/namespaces/inkscape"
   width="1600.928"
   height="277.51599"
   viewBox="0 0 1600.928 277.51599"
   version="1.2"
   id="svg70"
   sodipodi:docname="time-signature.svg"
   inkscape:version="0.92.4 (5da689c313, 2019-01-14)">
  <metadata
     id="metadata76">
    <rdf:RDF>
      <cc:Work
         rdf:about="">
        <dc:format>image/svg+xml</dc:format>
        <dc:type
           rdf:resource="http://purl.org/dc/dcmitype/StillImage" />
        <dc:title>measures</dc:title>
      </cc:Work>
    </rdf:RDF>
  </metadata>
  <defs
     id="defs74">
    <marker
       inkscape:stockid="Arrow1Mend"
       orient="auto"
       refY="0"
       refX="0"
       id="Arrow1Mend"
       style="overflow:visible"
       inkscape:isstock="true">
      <path
         id="path894"
         d="M 0,0 5,-5 -12.5,0 5,5 Z"
         style="fill:#000000;fill-opacity:1;fill-rule:evenodd;stroke:#000000;stroke-width:1.00000003pt;stroke-opacity:1"
         transform="matrix(-0.4,0,0,-0.4,-4,0)"
         inkscape:connector-curvature="0" />
    </marker>
    <marker
       inkscape:stockid="Arrow1Lend"
       orient="auto"
       refY="0"
       refX="0"
       id="Arrow1Lend"
       style="overflow:visible"
       inkscape:isstock="true">
      <path
         id="path888"
         d="M 0,0 5,-5 -12.5,0 5,5 Z"
         style="fill:#000000;fill-opacity:1;fill-rule:evenodd;stroke:#000000;stroke-width:1.00000003pt;stroke-opacity:1"
         transform="matrix(-0.8,0,0,-0.8,-10,0)"
         inkscape:connector-curvature="0" />
    </marker>
    <marker
       inkscape:stockid="Arrow2Lend"
       orient="auto"
       refY="0"
       refX="0"
       id="Arrow2Lend"
       style="overflow:visible"
       inkscape:isstock="true">
      <path
         id="path906"
         style="fill:#000000;fill-opacity:1;fill-rule:evenodd;stroke:#000000;stroke-width:0.625;stroke-linejoin:round;stroke-opacity:1"
         d="M 8.7185878,4.0337352 -2.2072895,0.01601326 8.7185884,-4.0017078 c -1.7454984,2.3720609 -1.7354408,5.6174519 -6e-7,8.035443 z"
         transform="matrix(-1.1,0,0,-1.1,-1.1,0)"
         inkscape:connector-curvature="0" />
    </marker>
  </defs>
  <sodipodi:namedview
     pagecolor="#ffffff"
     bordercolor="#666666"
     borderopacity="1"
     objecttolerance="10"
     gridtolerance="10"
     guidetolerance="10"
     inkscape:pageopacity="0"
     inkscape:pageshadow="2"
     inkscape:window-width="1920"
     inkscape:window-height="1017"
     id="namedview72"
     showgrid="false"
     fit-margin-top="0"
     fit-margin-left="0"
     fit-margin-right="0"
     fit-margin-bottom="0"
     inkscape:zoom="0.33712566"
     inkscape:cx="776.69971"
     inkscape:cy="106.00765"
     inkscape:window-x="-8"
     inkscape:window-y="-8"
     inkscape:window-maximized="1"
     inkscape:current-layer="svg70" />
  <title
     id="title2">measures</title>
  <desc
     id="desc4">Generated by MuseScore 3.0.5</desc>
  <polyline
     class="StaffLines"
     points="141.732,316.732 1742.66,316.732"
     id="polyline6"
     style="fill:none;stroke:#000000;stroke-width:2;stroke-linejoin:bevel"
     transform="translate(-141.732,-275.123)" />
  <polyline
     class="StaffLines"
     points="141.732,341.732 1742.66,341.732"
     id="polyline8"
     style="fill:none;stroke:#000000;stroke-width:2;stroke-linejoin:bevel"
     transform="translate(-141.732,-275.123)" />
  <polyline
     class="StaffLines"
     points="141.732,366.732 1742.66,366.732"
     id="polyline10"
     style="fill:none;stroke:#000000;stroke-width:2;stroke-linejoin:bevel"
     transform="translate(-141.732,-275.123)" />
  <polyline
     class="StaffLines"
     points="141.732,391.732 1742.66,391.732"
     id="polyline12"
     style="fill:none;stroke:#000000;stroke-width:2;stroke-linejoin:bevel"
     transform="translate(-141.732,-275.123)" />
  <polyline
     class="StaffLines"
     points="141.732,416.732 1742.66,416.732"
     id="polyline14"
     style="fill:none;stroke:#000000;stroke-width:2;stroke-linejoin:bevel"
     transform="translate(-141.732,-275.123)" />
  <polyline
     class="BarLine"
     points="1718.16,315.732 1718.16,417.732"
     id="polyline16"
     style="fill:none;stroke:#000000;stroke-width:4;stroke-linejoin:bevel"
     transform="translate(-141.732,-275.123)" />
  <polyline
     class="BarLine"
     points="1736.41,315.732 1736.41,417.732"
     id="polyline18"
     style="fill:none;stroke:#000000;stroke-width:12.5;stroke-linejoin:bevel"
     transform="translate(-141.732,-275.123)" />
  <polyline
     class="BarLine"
     points="1265.66,315.732 1265.66,417.732"
     id="polyline20"
     style="fill:none;stroke:#000000;stroke-width:4;stroke-linejoin:bevel"
     transform="translate(-141.732,-275.123)" />
  <polyline
     class="BarLine"
     points="813.163,315.732 813.163,417.732"
     id="polyline22"
     style="fill:none;stroke:#000000;stroke-width:4;stroke-linejoin:bevel"
     transform="translate(-141.732,-275.123)" />
  <polyline
     class="Stem"
     points="1576.62,333.928 1576.62,416.732"
     id="polyline24"
     style="fill:none;stroke:#000000;stroke-width:3.25;stroke-linecap:round;stroke-linejoin:bevel"
     transform="translate(-141.732,-275.123)" />
  <polyline
     class="Stem"
     points="1435.46,321.428 1435.46,404.232"
     id="polyline26"
     style="fill:none;stroke:#000000;stroke-width:3.25;stroke-linecap:round;stroke-linejoin:bevel"
     transform="translate(-141.732,-275.123)" />
  <polyline
     class="Stem"
     points="1294.29,333.928 1294.29,416.732"
     id="polyline28"
     style="fill:none;stroke:#000000;stroke-width:3.25;stroke-linecap:round;stroke-linejoin:bevel"
     transform="translate(-141.732,-275.123)" />
  <polyline
     class="Stem"
     points="1124.12,346.428 1124.12,426.107"
     id="polyline30"
     style="fill:none;stroke:#000000;stroke-width:3.25;stroke-linecap:round;stroke-linejoin:bevel"
     transform="translate(-141.732,-275.123)" />
  <polyline
     class="Stem"
     points="982.955,358.928 982.955,435.482"
     id="polyline32"
     style="fill:none;stroke:#000000;stroke-width:3.25;stroke-linecap:round;stroke-linejoin:bevel"
     transform="translate(-141.732,-275.123)" />
  <polyline
     class="Stem"
     points="841.788,371.428 841.788,444.857"
     id="polyline34"
     style="fill:none;stroke:#000000;stroke-width:3.25;stroke-linecap:round;stroke-linejoin:bevel"
     transform="translate(-141.732,-275.123)" />
  <polyline
     class="Stem"
     points="701.285,374.537 701.285,297.982"
     id="polyline36"
     style="fill:none;stroke:#000000;stroke-width:3.25;stroke-linecap:round;stroke-linejoin:bevel"
     transform="translate(-141.732,-275.123)" />
  <polyline
     class="Stem"
     points="560.118,387.037 560.118,307.357"
     id="polyline38"
     style="fill:none;stroke:#000000;stroke-width:3.25;stroke-linecap:round;stroke-linejoin:bevel"
     transform="translate(-141.732,-275.123)" />
  <polyline
     class="Stem"
     points="418.951,399.537 418.951,316.732"
     id="polyline40"
     style="fill:none;stroke:#000000;stroke-width:3.25;stroke-linecap:round;stroke-linejoin:bevel"
     transform="translate(-141.732,-275.123)" />
  <path
     class="Note"
     d="m 1455.238,40.344 c 3.12,0 5.76,0.812 7.92,2.437 2.01,1.761 3.01,3.974 3.01,6.641 0,4.489 -2.3,8.687 -6.92,12.594 -4.69,3.906 -9.7,5.859 -15.05,5.859 -3.12,0 -5.76,-0.812 -7.9,-2.437 -2.02,-1.761 -3.03,-3.974 -3.03,-6.641 0,-4.49 2.34,-8.688 7.03,-12.594 4.56,-3.906 9.54,-5.859 14.94,-5.859"
     id="path42"
     inkscape:connector-curvature="0" />
  <path
     class="Note"
     d="m 1314.068,27.844 c 3.12,0 5.76,0.812 7.92,2.437 2.01,1.761 3.02,3.974 3.02,6.641 0,4.489 -2.31,8.687 -6.93,12.594 -4.68,3.906 -9.7,5.859 -15.04,5.859 -3.13,0 -5.76,-0.812 -7.91,-2.437 -2.02,-1.761 -3.03,-3.974 -3.03,-6.641 0,-4.49 2.34,-8.688 7.03,-12.594 4.56,-3.906 9.54,-5.859 14.94,-5.859"
     id="path44"
     inkscape:connector-curvature="0" />
  <path
     class="Note"
     d="m 1172.898,40.344 c 3.13,0 5.77,0.812 7.92,2.437 2.01,1.761 3.02,3.974 3.02,6.641 0,4.489 -2.31,8.687 -6.92,12.594 -4.69,3.906 -9.71,5.859 -15.05,5.859 -3.12,0 -5.76,-0.812 -7.91,-2.437 -2.02,-1.761 -3.03,-3.974 -3.03,-6.641 0,-4.49 2.35,-8.688 7.03,-12.594 4.57,-3.906 9.55,-5.859 14.94,-5.859"
     id="path46"
     inkscape:connector-curvature="0" />
  <path
     class="Note"
     d="m 1002.738,52.844 c 3.12,0 5.76,0.812 7.92,2.437 2.01,1.761 3.01,3.974 3.01,6.641 0,4.489 -2.3,8.687 -6.92,12.594 -4.69,3.906 -9.7,5.859 -15.05,5.859 -3.12,0 -5.76,-0.812 -7.9,-2.437 -2.02,-1.761 -3.03,-3.974 -3.03,-6.641 0,-4.49 2.34,-8.688 7.03,-12.594 4.56,-3.906 9.54,-5.859 14.94,-5.859"
     id="path48"
     inkscape:connector-curvature="0" />
  <path
     class="Note"
     d="m 861.568,65.344 c 3.12,0 5.76,0.812 7.92,2.437 2.01,1.761 3.02,3.974 3.02,6.641 0,4.49 -2.31,8.687 -6.93,12.594 -4.68,3.906 -9.699,5.859 -15.043,5.859 -3.125,0 -5.76,-0.812 -7.906,-2.437 -2.021,-1.761 -3.031,-3.974 -3.031,-6.641 0,-4.49 2.343,-8.688 7.031,-12.594 4.562,-3.906 9.541,-5.859 14.939,-5.859"
     id="path50"
     inkscape:connector-curvature="0" />
  <path
     class="Note"
     d="m 720.399,77.844 c 3.125,0 5.766,0.812 7.922,2.437 2.011,1.761 3.016,3.974 3.016,6.641 0,4.49 -2.307,8.687 -6.922,12.594 -4.687,3.906 -9.703,5.859 -15.047,5.859 -3.125,0 -5.76,-0.812 -7.906,-2.437 -2.021,-1.761 -3.031,-3.974 -3.031,-6.641 0,-4.49 2.343,-8.688 7.031,-12.594 4.562,-3.906 9.542,-5.859 14.937,-5.859"
     id="path52"
     inkscape:connector-curvature="0" />
  <path
     class="Note"
     d="m 550.233,90.344 c 3.125,0 5.765,0.812 7.921,2.437 2.011,1.761 3.016,3.974 3.016,6.641 0,4.49 -2.307,8.687 -6.922,12.594 -4.687,3.906 -9.703,5.859 -15.047,5.859 -3.125,0 -5.76,-0.812 -7.906,-2.437 -2.021,-1.761 -3.031,-3.974 -3.031,-6.641 0,-4.49 2.344,-8.688 7.031,-12.594 4.563,-3.906 9.542,-5.859 14.938,-5.859"
     id="path54"
     inkscape:connector-curvature="0" />
  <path
     class="Note"
     d="m 409.066,102.844 c 3.125,0 5.765,0.812 7.922,2.437 2.01,1.761 3.015,3.974 3.015,6.641 0,4.49 -2.307,8.687 -6.922,12.594 -4.687,3.906 -9.703,5.859 -15.047,5.859 -3.125,0 -5.76,-0.812 -7.906,-2.437 -2.021,-1.761 -3.031,-3.974 -3.031,-6.641 0,-4.49 2.344,-8.688 7.031,-12.594 4.563,-3.906 9.542,-5.859 14.938,-5.859"
     id="path56"
     inkscape:connector-curvature="0" />
  <path
     class="Note"
     d="m 267.899,115.344 c 3.125,0 5.766,0.812 7.922,2.437 2.01,1.761 3.015,3.974 3.015,6.641 0,4.49 -2.307,8.687 -6.921,12.594 -4.688,3.906 -9.704,5.859 -15.047,5.859 -3.125,0 -5.761,-0.812 -7.907,-2.437 -2.02,-1.761 -3.031,-3.974 -3.031,-6.641 0,-4.49 2.344,-8.688 7.031,-12.594 4.563,-3.906 9.542,-5.859 14.938,-5.859"
     id="path58"
     inkscape:connector-curvature="0" />
  <path
     class="Clef"
     d="m 56.719,91.016 c 0,0 0.198,0 0.594,0 0.26,-0.063 0.484,-0.094 0.672,-0.094 7.291,0 13.281,2.573 17.968,7.719 4.688,5.073 7.032,10.994 7.032,17.765 0,8.407 -3.479,15.245 -10.438,20.516 -1.823,1.437 -4.203,2.609 -7.14,3.516 0.333,4.229 0.5,7.645 0.5,10.25 0,0.52 -0.068,2.411 -0.204,5.671 -0.26,6.053 -2.343,11.292 -6.25,15.719 -3.77,4.365 -8.458,6.547 -14.062,6.547 -5.271,0 -9.76,-1.854 -13.469,-5.562 -3.719,-3.782 -5.578,-8.339 -5.578,-13.672 0,-2.802 1.078,-5.183 3.234,-7.141 2.209,-1.948 4.776,-2.922 7.704,-2.922 2.604,0 4.786,1.011 6.546,3.031 1.823,1.886 2.735,4.23 2.735,7.032 0,2.531 -0.912,4.708 -2.735,6.531 -1.822,1.823 -4.005,2.734 -6.546,2.734 -1.042,0 -2.047,-0.192 -3.016,-0.578 2.865,4.229 6.672,6.344 11.422,6.344 4.489,0 8.166,-1.823 11.031,-5.469 3,-3.771 4.63,-8.166 4.891,-13.187 0.125,-3.125 0.187,-4.912 0.187,-5.36 0,-3.646 -0.13,-6.64 -0.39,-8.984 -3.25,0.521 -6.146,0.781 -8.688,0.781 -9.052,0 -16.766,-3.583 -23.141,-10.75 -6.25,-7.229 -9.375,-15.823 -9.375,-25.781 0,-2.083 0.193,-4.198 0.579,-6.344 0.395,-1.76 0.885,-3.682 1.468,-5.765 0.323,-1.178 1.203,-3.068 2.641,-5.672 0.521,-0.782 1.107,-1.758 1.758,-2.93 0.651,-1.172 1.107,-1.951 1.367,-2.336 0.646,-1.302 1.911,-3.062 3.797,-5.281 0.521,-0.584 1.06,-1.232 1.617,-1.945 0.557,-0.714 1.031,-1.3 1.422,-1.758 0.39,-0.459 0.682,-0.818 0.875,-1.078 0.193,-0.261 1.659,-1.985 4.398,-5.172 0.646,-0.657 1.279,-1.357 1.899,-2.102 0.62,-0.745 1.125,-1.331 1.515,-1.758 0.391,-0.427 0.685,-0.734 0.883,-0.922 C 42.078,54.859 40.61,48.672 40.016,44.047 39.568,40.339 39.344,35.26 39.344,28.813 39.344,23.146 40.646,17.839 43.25,12.891 45.782,7.755 49.328,3.557 53.891,0.297 54.151,0.099 54.474,0 54.86,0 c 0.458,0 0.786,0.099 0.984,0.297 3.51,4.229 6.537,9.729 9.078,16.5 2.604,6.771 3.906,12.927 3.906,18.469 0,6.25 -1.494,12.109 -4.484,17.578 -3.385,5.791 -7.75,11.781 -13.094,17.969 1.365,4.291 3.188,11.026 5.469,20.203 m 8.297,45.422 c 3.385,-1.24 6.026,-3.355 7.922,-6.344 2.083,-2.865 3.125,-6.089 3.125,-9.672 0,-4.625 -1.563,-8.729 -4.688,-12.313 -3.198,-3.708 -7.271,-5.791 -12.218,-6.25 2.802,13.74 4.755,25.266 5.859,34.579 M 27.235,113.875 c 0,6.448 2.604,12.115 7.812,17 5.334,4.75 11.323,7.125 17.969,7.125 2.729,0 5.396,-0.198 8,-0.594 -1.042,-9.896 -3.094,-21.744 -6.156,-35.547 -3.709,0.396 -6.667,1.698 -8.875,3.907 -2.157,2.281 -3.235,4.854 -3.235,7.718 0,4.948 2.641,8.954 7.922,12.016 0.448,0.458 0.672,0.948 0.672,1.469 0,0.521 -0.224,1.005 -0.672,1.453 -0.396,0.458 -0.885,0.687 -1.469,0.687 -0.062,0 -0.354,-0.062 -0.875,-0.187 -3.718,-2.021 -6.583,-4.625 -8.593,-7.813 -1.896,-3.395 -2.844,-6.817 -2.844,-10.265 0,-4.49 1.401,-8.557 4.203,-12.203 2.927,-3.646 6.734,-5.99 11.422,-7.032 -1.823,-7.291 -3.318,-12.989 -4.484,-17.093 -1.042,1.177 -2.295,2.593 -3.758,4.25 -1.464,1.656 -2.326,2.651 -2.586,2.984 -2.344,3.052 -4.136,5.427 -5.375,7.125 -2.219,3.063 -3.849,5.698 -4.891,7.906 -1.104,2.479 -2.078,5.183 -2.922,8.11 -0.843,2.802 -1.265,5.797 -1.265,8.984 M 59.844,14.563 c -4.885,2.406 -8.724,5.854 -11.516,10.343 -2.864,4.625 -4.296,9.604 -4.296,14.938 0,4.687 1.171,11.005 3.515,18.953 4.688,-5.667 8.203,-10.906 10.547,-15.719 2.469,-5.083 3.703,-10.39 3.703,-15.922 0,-4.166 -0.651,-8.364 -1.953,-12.593"
     id="path60"
     inkscape:connector-curvature="0" />
  <path
     class="KeySig"
     d="m 113.118,87.5 v 7.719 c 0,2.739 0.13,4.922 0.39,6.547 2.146,-1.823 3.677,-3.188 4.594,-4.094 1.042,-1.042 2.083,-2.477 3.125,-4.305 1.042,-1.828 1.562,-3.653 1.562,-5.476 0,-1.823 -0.39,-3.386 -1.171,-4.688 -0.782,-1.302 -1.823,-1.953 -3.125,-1.953 -1.563,0 -2.865,0.589 -3.907,1.766 -0.979,1.302 -1.468,2.797 -1.468,4.484 m -4.11,17.875 -1.265,-59.469 c 0.916,-0.521 1.83,-0.781 2.742,-0.781 0.911,0 1.82,0.26 2.726,0.781 l -0.781,34.469 c 2.667,-2.281 5.729,-3.422 9.188,-3.422 2.531,0 4.643,1.042 6.335,3.125 1.693,2.084 2.54,4.464 2.54,7.141 0,1.687 -0.553,3.479 -1.657,5.375 -1.041,1.75 -2.146,3.114 -3.312,4.094 -0.656,0.52 -2.318,1.822 -4.985,3.906 -0.781,0.583 -1.708,1.265 -2.781,2.047 -1.073,0.781 -1.739,1.271 -2,1.468 -0.458,0.261 -0.885,0.782 -1.281,1.563 -0.448,0.656 -0.969,1.208 -1.563,1.656 -0.448,0.396 -0.997,0.594 -1.648,0.594 -0.651,0 -1.175,-0.229 -1.57,-0.688 -0.459,-0.458 -0.688,-1.078 -0.688,-1.859"
     id="path62"
     inkscape:connector-curvature="0" />
  <path
     class="TimeSig"
     d="m 185.711,65.141 c 0,0.656 0.36,1.276 1.078,1.859 1.042,0.781 1.855,1.37 2.438,1.766 0.781,0.448 1.599,1.489 2.453,3.125 0.708,1.562 1.063,3.479 1.063,5.75 0,4.5 -1.657,7.953 -4.969,10.359 -3.386,2.406 -7.682,3.609 -12.891,3.609 -4.239,0 -7.823,-1.041 -10.75,-3.125 -3.125,-1.948 -4.687,-4.682 -4.687,-8.203 0,-1.687 0.651,-3.25 1.953,-4.687 1.364,-1.24 2.927,-1.86 4.687,-1.86 1.823,0 3.323,0.651 4.5,1.954 1.302,1.239 1.953,2.77 1.953,4.593 0,0.844 -0.651,1.755 -1.953,2.735 -1.375,0.916 -2.062,1.797 -2.062,2.64 0,1.24 0.62,2.151 1.859,2.735 1.24,0.583 2.74,0.875 4.5,0.875 2.271,0 3.896,-1.105 4.875,-3.313 0.917,-2.417 1.375,-5.187 1.375,-8.312 v -1.657 c 0,-1.885 -0.068,-3.546 -0.203,-4.984 -0.125,-1.104 -0.578,-2.109 -1.359,-3.016 -0.719,-0.916 -1.86,-1.375 -3.422,-1.375 h -8.016 c -0.906,0 -1.359,-0.489 -1.359,-1.468 0,-0.844 0.453,-1.334 1.359,-1.469 h 8.016 c 1.823,0 3.125,-0.583 3.906,-1.75 0.646,-0.917 1.005,-2.547 1.078,-4.891 v -3.218 -0.782 c 0,-6.052 -2.213,-9.078 -6.64,-9.078 -3.907,0 -5.896,1.073 -5.969,3.219 0,0.719 0.62,1.5 1.859,2.344 1.177,0.843 1.766,1.625 1.766,2.343 0,1.625 -0.589,3.026 -1.766,4.204 -1.104,1.104 -2.469,1.656 -4.094,1.656 -1.562,0 -2.901,-0.552 -4.015,-1.656 -1.104,-1.24 -1.656,-2.641 -1.656,-4.204 0,-3.062 1.369,-5.567 4.109,-7.515 2.865,-1.823 6.12,-2.735 9.766,-2.735 4.875,0 8.911,0.943 12.109,2.829 3.187,1.822 4.781,4.687 4.781,8.593 0,2.802 -0.291,4.917 -0.875,6.344 -0.594,1.5 -1.245,2.411 -1.953,2.734 -0.781,0.334 -1.432,0.724 -1.953,1.172 -0.594,0.459 -0.891,1.078 -0.891,1.86"
     id="path64"
     inkscape:connector-curvature="0" />
  <path
     class="TimeSig"
     d="m 178.493,92.961 c 1.947,0 3.606,-0.227 4.976,-0.68 1.37,-0.453 2.248,-0.679 2.633,-0.679 0.458,0 0.818,0.13 1.078,0.39 0.198,0.188 0.328,0.412 0.391,0.672 0,0.136 -0.068,0.333 -0.203,0.594 l -28.407,33.016 h 16.688 V 113.18 c 0,-0.844 0.229,-1.563 0.687,-2.156 0.782,-0.646 1.433,-1.037 1.953,-1.172 0.844,-0.386 1.886,-1.297 3.125,-2.735 1.042,-1.166 2.282,-3.213 3.719,-6.14 0.188,-0.396 0.479,-0.594 0.875,-0.594 0.781,0 1.235,0.458 1.36,1.375 v 24.516 h 7.14 c 0.906,0 1.427,0.484 1.563,1.453 0,0.979 -0.521,1.468 -1.563,1.468 h -7.14 v 0.782 c 0,2.604 0.651,4.817 1.953,6.64 1.5,1.823 3.26,2.735 5.281,2.735 0.781,0 1.172,0.39 1.172,1.172 0,0.781 -0.391,1.171 -1.172,1.171 -1.365,0 -3.578,-0.192 -6.641,-0.578 -2.802,-0.458 -4.984,-0.687 -6.547,-0.687 -1.625,0 -3.807,0.229 -6.546,0.687 -2.928,0.386 -5.105,0.578 -6.532,0.578 -0.781,0 -1.172,-0.39 -1.172,-1.171 0,-0.782 0.391,-1.172 1.172,-1.172 2.011,0 3.766,-0.912 5.266,-2.735 1.365,-1.885 2.047,-4.099 2.047,-6.64 v -0.782 h -16.688 c -1.114,0 -1.896,-0.26 -2.343,-0.781 -0.532,-0.385 -0.797,-0.906 -0.797,-1.562 0,-0.198 0.489,-0.881 1.468,-2.047 1.115,-1.302 2.287,-2.896 3.516,-4.781 1.438,-2.219 2.807,-4.5 4.109,-6.844 1.428,-2.667 2.568,-5.729 3.422,-9.188 0.969,-3.51 1.453,-7.088 1.453,-10.734 0,-1.042 0.459,-1.563 1.375,-1.563 0.198,0 0.62,0.099 1.266,0.297 0.198,0.063 0.607,0.159 1.227,0.289 0.619,0.131 1.122,0.258 1.507,0.383 1.178,0.198 2.287,0.297 3.329,0.297"
     id="path66"
     inkscape:connector-curvature="0" />
  <path
     class="StaffText"
     d="m 36.0635,235.703 h -2.688 c -2.802,0 -4.679,0.378 -5.632,1.133 -0.954,0.755 -1.727,2.482 -2.321,5.18 h -1.203 l 0.297,-8.516 h 28.203 l 0.297,8.516 h -1.188 c -0.572,-2.729 -1.333,-4.464 -2.281,-5.203 -0.948,-0.74 -2.838,-1.11 -5.672,-1.11 h -2.703 v 25.469 c 0,1.833 0.284,3.016 0.852,3.547 0.567,0.531 1.883,0.844 3.945,0.937 v 0.954 h -14.594 v -0.954 c 2.063,-0.135 3.36,-0.476 3.891,-1.023 0.531,-0.547 0.797,-1.883 0.797,-4.008 v -24.922 m 20.5,11.25 c -0.729,0 -1.427,0.052 -2.094,0.157 v -0.75 c 2.333,-0.667 4.917,-1.584 7.75,-2.75 l 0.203,0.156 v 17.75 c 0,1.791 0.209,2.929 0.625,3.414 0.417,0.484 1.443,0.794 3.078,0.93 v 0.75 h -11.859 v -0.75 c 1.74,-0.105 2.833,-0.407 3.281,-0.907 0.448,-0.5 0.672,-1.646 0.672,-3.437 v -11.61 c 0,-1.093 -0.125,-1.859 -0.375,-2.296 -0.25,-0.438 -0.677,-0.657 -1.281,-0.657 m 3.312,-14.5 c 0.73,0 1.344,0.25 1.844,0.75 0.5,0.5 0.75,1.099 0.75,1.797 0,0.74 -0.25,1.352 -0.75,1.836 -0.5,0.484 -1.114,0.727 -1.844,0.727 -0.708,0 -1.302,-0.25 -1.781,-0.75 -0.479,-0.5 -0.719,-1.102 -0.719,-1.805 0,-0.703 0.25,-1.305 0.75,-1.805 0.5,-0.5 1.084,-0.75 1.75,-0.75 m 8.25,14.36 v -0.86 c 2.396,-0.698 4.73,-1.479 7,-2.343 l 0.344,0.093 v 3.844 c 2.063,-1.604 3.594,-2.661 4.594,-3.172 1,-0.51 2.052,-0.765 3.156,-0.765 2.636,0 4.401,1.432 5.297,4.296 2.604,-2.864 5.323,-4.296 8.156,-4.296 3.865,0 5.797,2.989 5.797,8.968 v 10.25 c 0,1.854 0.719,2.834 2.156,2.938 l 1.297,0.094 v 0.75 h -10.953 v -0.75 c 1.469,-0.167 2.386,-0.448 2.75,-0.844 0.365,-0.396 0.547,-1.308 0.547,-2.735 v -10.5 c 0,-2.052 -0.266,-3.476 -0.797,-4.273 -0.531,-0.797 -1.516,-1.195 -2.953,-1.195 -2.198,0 -4.016,1.01 -5.453,3.031 v 12.531 c 0,1.563 0.242,2.61 0.726,3.141 0.485,0.531 1.446,0.812 2.883,0.844 v 0.75 h -11.203 v -0.75 c 1.438,-0.105 2.365,-0.37 2.781,-0.797 0.417,-0.427 0.625,-1.339 0.625,-2.735 v -10.797 c 0,-3.479 -1.104,-5.218 -3.312,-5.218 -0.927,0 -1.966,0.231 -3.117,0.695 -1.151,0.464 -2.076,1.211 -2.774,2.242 v 14.016 c 0,0.969 0.232,1.627 0.696,1.976 0.463,0.349 1.362,0.555 2.695,0.618 v 0.75 h -11.094 v -0.75 c 1.396,-0.032 2.328,-0.279 2.797,-0.743 0.469,-0.463 0.703,-1.377 0.703,-2.742 v -12.578 c 0,-1.198 -0.125,-2.029 -0.375,-2.492 -0.25,-0.464 -0.708,-0.695 -1.375,-0.695 -0.5,0 -1.031,0.067 -1.594,0.203 m 43.188,5.953 c 0.073,2.094 0.359,3.898 0.859,5.414 0.5,1.515 1.149,2.648 1.946,3.398 0.796,0.75 1.604,1.284 2.421,1.602 0.818,0.318 1.68,0.476 2.586,0.476 1.594,0 2.982,-0.398 4.164,-1.195 1.183,-0.797 2.378,-2.148 3.586,-4.055 l 0.797,0.36 c -1.031,2.698 -2.463,4.763 -4.297,6.195 -1.833,1.432 -3.937,2.149 -6.312,2.149 -2.865,0 -5.138,-1.008 -6.82,-3.024 -1.683,-2.016 -2.524,-4.742 -2.524,-8.18 0,-3.698 0.974,-6.671 2.922,-8.921 1.948,-2.25 4.458,-3.375 7.531,-3.375 2.531,0 4.498,0.757 5.899,2.273 1.401,1.516 2.284,3.81 2.648,6.883 h -15.406 m 0.109,-1.5 h 10.203 c -0.333,-2.167 -0.851,-3.667 -1.554,-4.5 -0.703,-0.834 -1.821,-1.25 -3.352,-1.25 -3,0 -4.766,1.916 -5.297,5.75 m 48.953,8.594 c 0,-1.563 -0.552,-2.954 -1.656,-4.172 -1.104,-1.219 -2.437,-2.261 -4,-3.125 -1.562,-0.865 -3.12,-1.756 -4.672,-2.672 -1.552,-0.917 -2.877,-2.094 -3.976,-3.531 -1.099,-1.438 -1.649,-3.105 -1.649,-5 0,-2.532 0.857,-4.589 2.571,-6.172 1.713,-1.584 3.737,-2.375 6.07,-2.375 1.406,0 2.924,0.281 4.555,0.843 1.63,0.563 2.612,0.844 2.945,0.844 0.875,0 1.411,-0.562 1.609,-1.687 h 1.047 l 1.094,10.64 h -1.25 c -0.792,-2.927 -2.013,-5.091 -3.664,-6.492 -1.651,-1.401 -3.477,-2.101 -5.477,-2.101 -1.531,0 -2.781,0.432 -3.75,1.296 -0.969,0.865 -1.453,1.98 -1.453,3.344 0,1.344 0.568,2.615 1.703,3.813 1.136,1.198 3.016,2.531 5.641,4 3.302,1.76 5.687,3.5 7.156,5.218 1.469,1.719 2.203,3.61 2.203,5.672 0,2.573 -0.984,4.735 -2.953,6.485 -1.969,1.75 -4.385,2.625 -7.25,2.625 -1.667,0 -3.359,-0.284 -5.078,-0.852 -1.719,-0.568 -2.776,-0.851 -3.172,-0.851 -0.364,0 -0.68,0.158 -0.945,0.476 -0.266,0.318 -0.419,0.711 -0.461,1.18 h -1.094 l -1.5,-10.61 h 1.156 c 1.23,3.032 2.662,5.266 4.297,6.704 1.636,1.437 3.568,2.156 5.797,2.156 1.833,0 3.318,-0.526 4.453,-1.578 1.136,-1.052 1.703,-2.412 1.703,-4.078 m 10.188,-12.907 c -0.729,0 -1.427,0.052 -2.094,0.157 v -0.75 c 2.333,-0.667 4.917,-1.584 7.75,-2.75 l 0.203,0.156 v 17.75 c 0,1.791 0.209,2.929 0.625,3.414 0.417,0.484 1.443,0.794 3.078,0.93 v 0.75 h -11.859 v -0.75 c 1.74,-0.105 2.833,-0.407 3.281,-0.907 0.448,-0.5 0.672,-1.646 0.672,-3.437 v -11.61 c 0,-1.093 -0.125,-1.859 -0.375,-2.296 -0.25,-0.438 -0.677,-0.657 -1.281,-0.657 m 3.312,-14.5 c 0.73,0 1.344,0.25 1.844,0.75 0.5,0.5 0.75,1.099 0.75,1.797 0,0.74 -0.25,1.352 -0.75,1.836 -0.5,0.484 -1.114,0.727 -1.844,0.727 -0.708,0 -1.302,-0.25 -1.781,-0.75 -0.479,-0.5 -0.719,-1.102 -0.719,-1.805 0,-0.703 0.25,-1.305 0.75,-1.805 0.5,-0.5 1.084,-0.75 1.75,-0.75 m 10.594,31.453 c 0,-0.635 0.224,-1.218 0.672,-1.75 0.448,-0.531 1.708,-1.765 3.781,-3.703 -1.666,-0.833 -2.859,-1.768 -3.578,-2.804 -0.719,-1.037 -1.078,-2.342 -1.078,-3.914 0,-2.261 0.81,-4.18 2.43,-5.758 1.619,-1.578 3.596,-2.367 5.929,-2.367 1.292,0 2.68,0.276 4.164,0.828 1.485,0.552 2.711,0.828 3.68,0.828 h 3.844 v 1.89 h -4.141 c 0.636,1.438 0.953,2.844 0.953,4.219 0,2.313 -0.776,4.188 -2.328,5.625 -1.552,1.438 -3.38,2.156 -5.484,2.156 -0.396,0 -1.344,-0.083 -2.844,-0.25 -0.667,0.198 -1.333,0.649 -2,1.352 -0.667,0.703 -1,1.305 -1,1.805 0,0.802 1.302,1.25 3.906,1.343 l 6.438,0.297 c 1.833,0.073 3.302,0.591 4.406,1.555 1.104,0.964 1.656,2.232 1.656,3.805 0,2.395 -1.375,4.403 -4.125,6.023 -2.75,1.62 -5.708,2.43 -8.875,2.43 -2.375,0 -4.411,-0.477 -6.109,-1.43 -1.698,-0.953 -2.547,-2.096 -2.547,-3.43 0,-0.927 0.375,-1.849 1.125,-2.765 0.75,-0.917 2.011,-2.026 3.781,-3.328 -1.041,-0.5 -1.744,-0.935 -2.109,-1.305 -0.365,-0.37 -0.547,-0.82 -0.547,-1.352 m 3.703,2.797 c -1.031,1.24 -1.698,2.125 -2,2.657 -0.302,0.531 -0.453,1.083 -0.453,1.656 0,1.094 0.667,1.974 2,2.64 1.333,0.667 3.099,1 5.297,1 2.833,0 5.117,-0.45 6.852,-1.351 1.734,-0.901 2.601,-2.065 2.601,-3.492 0,-0.907 -0.466,-1.542 -1.398,-1.907 -0.933,-0.364 -2.534,-0.546 -4.805,-0.546 -3.365,0 -6.063,-0.219 -8.094,-0.657 m 9.094,-13.359 c 0,-0.563 -0.065,-1.237 -0.195,-2.024 -0.131,-0.786 -0.362,-1.682 -0.696,-2.687 -0.333,-1.005 -0.867,-1.844 -1.601,-2.516 -0.735,-0.672 -1.617,-1.007 -2.649,-1.007 -1.166,0 -2.075,0.403 -2.726,1.21 -0.651,0.808 -0.977,1.925 -0.977,3.352 0,2.875 0.534,4.966 1.602,6.273 1.067,1.308 2.232,1.961 3.492,1.961 1.167,0 2.083,-0.408 2.75,-1.226 0.667,-0.818 1,-1.93 1,-3.336 m 7.703,-6.688 v -0.843 c 2.469,-0.719 4.771,-1.453 6.906,-2.203 l 0.344,0.093 v 3.907 c 1.698,-1.584 3.039,-2.646 4.024,-3.188 0.984,-0.542 2.059,-0.812 3.226,-0.812 1.833,0 3.276,0.653 4.328,1.96 1.052,1.308 1.578,3.138 1.578,5.493 v 11.484 c 0,1.24 0.198,2.068 0.594,2.484 0.396,0.417 1.214,0.693 2.453,0.829 v 0.75 h -10.406 v -0.75 c 1.271,-0.105 2.115,-0.441 2.531,-1.008 0.417,-0.568 0.625,-1.638 0.625,-3.211 v -10.469 c 0,-3.24 -1.219,-4.859 -3.656,-4.859 -0.833,0 -1.599,0.19 -2.297,0.57 -0.698,0.38 -1.646,1.143 -2.844,2.289 v 14.078 c 0,0.906 0.232,1.542 0.696,1.906 0.463,0.365 1.33,0.599 2.601,0.704 v 0.75 h -10.609 v -0.75 c 1.271,-0.105 2.107,-0.399 2.508,-0.883 0.401,-0.485 0.601,-1.446 0.601,-2.883 v -12.422 c 0,-1.24 -0.133,-2.086 -0.398,-2.539 -0.266,-0.453 -0.753,-0.68 -1.461,-0.68 -0.625,0 -1.073,0.068 -1.344,0.203 m 24.75,15.016 c 0,-0.594 0.068,-1.148 0.203,-1.664 0.136,-0.516 0.37,-0.997 0.703,-1.445 0.334,-0.448 0.649,-0.855 0.946,-1.219 0.297,-0.365 0.744,-0.737 1.343,-1.117 0.599,-0.38 1.099,-0.696 1.5,-0.946 0.401,-0.25 1.011,-0.549 1.829,-0.898 0.817,-0.349 1.442,-0.615 1.875,-0.797 0.432,-0.182 1.114,-0.456 2.046,-0.82 0.933,-0.365 1.618,-0.63 2.055,-0.797 v -3.031 c 0,-2.75 -1.266,-4.125 -3.797,-4.125 -1,0 -1.851,0.242 -2.554,0.726 -0.704,0.485 -1.055,1.06 -1.055,1.727 0,0.26 0.042,0.625 0.125,1.094 0.083,0.468 0.125,0.77 0.125,0.906 0,0.562 -0.224,1.052 -0.672,1.469 -0.448,0.416 -0.974,0.625 -1.578,0.625 -0.563,0 -1.06,-0.217 -1.492,-0.649 -0.433,-0.432 -0.649,-0.935 -0.649,-1.508 0,-1.562 0.808,-2.885 2.422,-3.968 1.615,-1.084 3.604,-1.625 5.969,-1.625 2.739,0 4.625,0.656 5.656,1.968 1.031,1.313 1.547,3.313 1.547,6 v 9.703 c 0,1.094 0.109,1.847 0.328,2.258 0.219,0.412 0.609,0.617 1.172,0.617 0.698,0 1.432,-0.312 2.203,-0.937 v 1.297 c -0.864,1 -1.622,1.682 -2.273,2.047 -0.651,0.364 -1.394,0.547 -2.227,0.547 -1.031,0 -1.789,-0.292 -2.273,-0.875 -0.485,-0.584 -0.795,-1.542 -0.93,-2.875 -2.865,2.5 -5.297,3.75 -7.297,3.75 -1.531,0 -2.789,-0.508 -3.773,-1.524 -0.985,-1.016 -1.477,-2.32 -1.477,-3.914 m 12.5,-1.297 v -7.203 c -3,1.094 -5.099,2.154 -6.297,3.18 -1.198,1.026 -1.797,2.268 -1.797,3.726 0,1.365 0.334,2.378 1,3.039 0.667,0.662 1.381,0.993 2.141,0.993 1.135,0 2.354,-0.381 3.656,-1.141 0.531,-0.302 0.88,-0.62 1.047,-0.953 0.167,-0.334 0.25,-0.88 0.25,-1.641 m 21.203,-16.265 v 1.5 h -5.047 v 14.296 c 0,1.573 0.198,2.717 0.594,3.43 0.396,0.714 1.063,1.07 2,1.07 1.031,0 2.031,-0.583 3,-1.75 l 0.656,0.547 c -1.604,2.604 -3.604,3.907 -6,3.907 -2.968,0 -4.453,-2.125 -4.453,-6.375 V 245.61 h -2.656 c -0.135,-0.094 -0.203,-0.204 -0.203,-0.329 0,-0.156 0.052,-0.281 0.156,-0.375 0.104,-0.093 0.297,-0.226 0.578,-0.398 0.281,-0.172 0.623,-0.419 1.024,-0.742 0.401,-0.323 0.95,-0.906 1.648,-1.75 0.698,-0.844 1.464,-1.854 2.297,-3.031 0.531,-0.782 0.865,-1.256 1,-1.422 0.24,0 0.359,0.218 0.359,0.656 v 5.891 h 5.047 m 25.047,19.906 v 0.687 c -2.604,0.74 -4.885,1.526 -6.844,2.36 l -0.203,-0.11 v -4.234 c -0.104,0.094 -0.398,0.391 -0.883,0.891 -0.484,0.5 -0.825,0.846 -1.023,1.039 -0.198,0.192 -0.539,0.487 -1.023,0.882 -0.485,0.396 -0.909,0.68 -1.274,0.852 -0.364,0.172 -0.831,0.336 -1.398,0.492 -0.568,0.156 -1.133,0.235 -1.696,0.235 -1.833,0 -3.302,-0.599 -4.406,-1.797 -1.104,-1.198 -1.656,-2.792 -1.656,-4.782 v -12.546 c 0,-1.157 -0.216,-1.959 -0.649,-2.407 -0.432,-0.448 -1.247,-0.703 -2.445,-0.765 v -0.703 h 7.297 v 16.218 c 0,1.032 0.352,1.92 1.055,2.664 0.703,0.745 1.534,1.118 2.492,1.118 0.375,0 0.812,-0.05 1.312,-0.149 0.5,-0.099 1.073,-0.289 1.719,-0.57 0.646,-0.281 1.195,-0.729 1.649,-1.344 0.453,-0.615 0.679,-1.37 0.679,-2.266 v -11.687 c 0,-1.229 -0.226,-2.042 -0.679,-2.438 -0.454,-0.395 -1.461,-0.63 -3.024,-0.703 v -0.843 h 7.906 v 17.062 c 0,1.167 0.183,1.932 0.547,2.297 0.365,0.364 1.13,0.547 2.297,0.547 h 0.25 m 16.047,-15.5 c -0.5,0 -1.117,-0.292 -1.852,-0.875 -0.734,-0.584 -1.216,-0.875 -1.445,-0.875 -0.667,0 -1.417,0.482 -2.25,1.445 -0.833,0.964 -1.25,1.846 -1.25,2.649 v 11.25 c 0,1.437 0.284,2.406 0.852,2.906 0.567,0.5 1.7,0.781 3.398,0.844 v 0.75 h -12 v -0.75 c 1.604,-0.303 2.596,-0.636 2.977,-1 0.38,-0.365 0.57,-1.183 0.57,-2.454 v -12.5 c 0,-1.093 -0.125,-1.867 -0.375,-2.32 -0.25,-0.453 -0.693,-0.68 -1.328,-0.68 -0.531,0 -1.115,0.068 -1.75,0.204 v -0.797 c 2.667,-0.865 5.135,-1.766 7.406,-2.703 l 0.25,0.093 v 4.61 c 1.229,-1.771 2.279,-2.998 3.149,-3.68 0.869,-0.682 1.82,-1.023 2.851,-1.023 0.865,0 1.539,0.234 2.024,0.703 0.484,0.468 0.726,1.119 0.726,1.953 0,0.698 -0.174,1.247 -0.523,1.648 -0.349,0.401 -0.826,0.602 -1.43,0.602 m 6.797,4.25 c 0.073,2.094 0.359,3.898 0.859,5.414 0.5,1.515 1.149,2.648 1.946,3.398 0.796,0.75 1.604,1.284 2.421,1.602 0.818,0.318 1.68,0.476 2.586,0.476 1.594,0 2.982,-0.398 4.164,-1.195 1.183,-0.797 2.378,-2.148 3.586,-4.055 l 0.797,0.36 c -1.031,2.698 -2.463,4.763 -4.297,6.195 -1.833,1.432 -3.937,2.149 -6.312,2.149 -2.865,0 -5.138,-1.008 -6.82,-3.024 -1.683,-2.016 -2.524,-4.742 -2.524,-8.18 0,-3.698 0.974,-6.671 2.922,-8.921 1.948,-2.25 4.458,-3.375 7.531,-3.375 2.531,0 4.498,0.757 5.899,2.273 1.401,1.516 2.284,3.81 2.648,6.883 h -15.406 m 0.109,-1.5 h 10.203 c -0.333,-2.167 -0.851,-3.667 -1.554,-4.5 -0.703,-0.834 -1.821,-1.25 -3.352,-1.25 -3,0 -4.766,1.916 -5.297,5.75"
     id="path68"
     inkscape:connector-curvature="0" />
  <path
     style="fill:none;stroke:#000000;stroke-width:3;stroke-linecap:butt;stroke-linejoin:miter;stroke-miterlimit:4;stroke-dasharray:none;stroke-opacity:1;marker-end:url(#Arrow1Mend)"
     d="M 175.99885,224.89573 V 149.87434"
     id="path78"
     inkscape:connector-curvature="0"
     sodipodi:nodetypes="cc" />
</svg>
