<?xml version="1.0" encoding="UTF-8" standalone="no"?>
<svg
   xmlns:dc="http://purl.org/dc/elements/1.1/"
   xmlns:cc="http://creativecommons.org/ns#"
   xmlns:rdf="http://www.w3.org/1999/02/22-rdf-syntax-ns#"
   xmlns:svg="http://www.w3.org/2000/svg"
   xmlns="http://www.w3.org/2000/svg"
   xmlns:sodipodi="http://sodipodi.sourceforge.net/DTD/sodipodi-0.dtd"
   xmlns:inkscape="http://www.inkscape.org/namespaces/inkscape"
   width="40.25"
   height="100.086"
   viewBox="0 0 40.250001 100.086"
   version="1.2"
   id="svg92"
   sodipodi:docname="time-signature-3-4.svg"
   inkscape:version="0.92.4 (5da689c313, 2019-01-14)">
  <metadata
     id="metadata98">
    <rdf:RDF>
      <cc:Work
         rdf:about="">
        <dc:format>image/svg+xml</dc:format>
        <dc:type
           rdf:resource="http://purl.org/dc/dcmitype/StillImage" />
        <dc:title>measures</dc:title>
      </cc:Work>
    </rdf:RDF>
  </metadata>
  <defs
     id="defs96" />
  <sodipodi:namedview
     pagecolor="#ffffff"
     bordercolor="#666666"
     borderopacity="1"
     objecttolerance="10"
     gridtolerance="10"
     guidetolerance="10"
     inkscape:pageopacity="0"
     inkscape:pageshadow="2"
     inkscape:window-width="1920"
     inkscape:window-height="1017"
     id="namedview94"
     showgrid="false"
     fit-margin-top="0"
     fit-margin-left="0"
     fit-margin-right="0"
     fit-margin-bottom="0"
     inkscape:zoom="0.47676768"
     inkscape:cx="254.12123"
     inkscape:cy="-392.52507"
     inkscape:window-x="-8"
     inkscape:window-y="-8"
     inkscape:window-maximized="1"
     inkscape:current-layer="svg92" />
  <title
     id="title2">measures</title>
  <desc
     id="desc4">Generated by MuseScore 3.0.5</desc>
  <path
     class="TimeSig"
     d="m 29.89,23.532 c 0,0.656 0.36,1.276 1.078,1.859 1.042,0.781 1.855,1.37 2.438,1.766 0.781,0.448 1.599,1.489 2.453,3.125 0.708,1.562 1.063,3.479 1.063,5.75 0,4.5 -1.657,7.953 -4.969,10.359 C 28.567,48.797 24.271,50 19.062,50 14.823,50 11.239,48.959 8.312,46.875 5.187,44.927 3.625,42.193 3.625,38.672 c 0,-1.687 0.651,-3.25 1.953,-4.687 1.364,-1.24 2.927,-1.86 4.687,-1.86 1.823,0 3.323,0.651 4.5,1.954 1.302,1.239 1.953,2.77 1.953,4.593 0,0.844 -0.651,1.755 -1.953,2.735 -1.375,0.916 -2.062,1.797 -2.062,2.64 0,1.24 0.62,2.151 1.859,2.735 1.24,0.583 2.74,0.875 4.5,0.875 2.271,0 3.896,-1.105 4.875,-3.313 0.917,-2.417 1.375,-5.187 1.375,-8.312 v -1.657 c 0,-1.885 -0.068,-3.546 -0.203,-4.984 C 24.984,28.287 24.531,27.282 23.75,26.375 23.031,25.459 21.89,25 20.328,25 h -8.016 c -0.906,0 -1.359,-0.489 -1.359,-1.468 0,-0.844 0.453,-1.334 1.359,-1.469 h 8.016 c 1.823,0 3.125,-0.583 3.906,-1.75 0.646,-0.917 1.005,-2.547 1.078,-4.891 v -3.218 -0.782 c 0,-6.052 -2.213,-9.078 -6.64,-9.078 -3.907,0 -5.896,1.073 -5.969,3.219 0,0.719 0.62,1.5 1.859,2.344 1.177,0.843 1.766,1.625 1.766,2.343 0,1.625 -0.589,3.026 -1.766,4.204 -1.104,1.104 -2.469,1.656 -4.094,1.656 -1.562,0 -2.901,-0.552 -4.015,-1.656 C 5.349,13.214 4.797,11.813 4.797,10.25 4.797,7.188 6.166,4.683 8.906,2.735 11.771,0.912 15.026,0 18.672,0 c 4.875,0 8.911,0.943 12.109,2.829 3.187,1.822 4.781,4.687 4.781,8.593 0,2.802 -0.291,4.917 -0.875,6.344 -0.594,1.5 -1.245,2.411 -1.953,2.734 -0.781,0.334 -1.432,0.724 -1.953,1.172 -0.594,0.459 -0.891,1.078 -0.891,1.86"
     id="path64"
     inkscape:connector-curvature="0" />
  <path
     class="TimeSig"
     d="m 22.672,51.352 c 1.947,0 3.606,-0.227 4.976,-0.68 1.37,-0.453 2.248,-0.679 2.633,-0.679 0.458,0 0.818,0.13 1.078,0.39 0.198,0.188 0.328,0.412 0.391,0.672 0,0.136 -0.068,0.333 -0.203,0.594 L 3.14,84.665 H 19.828 V 71.571 c 0,-0.844 0.229,-1.563 0.687,-2.156 0.782,-0.646 1.433,-1.037 1.953,-1.172 0.844,-0.386 1.886,-1.297 3.125,-2.735 1.042,-1.166 2.282,-3.213 3.719,-6.14 0.188,-0.396 0.479,-0.594 0.875,-0.594 0.781,0 1.235,0.458 1.36,1.375 v 24.516 h 7.14 c 0.906,0 1.427,0.484 1.563,1.453 0,0.979 -0.521,1.468 -1.563,1.468 h -7.14 v 0.782 c 0,2.604 0.651,4.817 1.953,6.64 1.5,1.823 3.26,2.735 5.281,2.735 0.781,0 1.172,0.39 1.172,1.172 0,0.781 -0.391,1.171 -1.172,1.171 -1.365,0 -3.578,-0.192 -6.641,-0.578 -2.802,-0.458 -4.984,-0.687 -6.547,-0.687 -1.625,0 -3.807,0.229 -6.546,0.687 -2.928,0.386 -5.105,0.578 -6.532,0.578 -0.781,0 -1.172,-0.39 -1.172,-1.171 0,-0.782 0.391,-1.172 1.172,-1.172 2.011,0 3.766,-0.912 5.266,-2.735 1.365,-1.885 2.047,-4.099 2.047,-6.64 V 87.586 H 3.14 c -1.114,0 -1.896,-0.26 -2.343,-0.781 C 0.265,86.42 0,85.899 0,85.243 0,85.045 0.489,84.362 1.468,83.196 2.583,81.894 3.755,80.3 4.984,78.415 c 1.438,-2.219 2.807,-4.5 4.109,-6.844 1.428,-2.667 2.568,-5.729 3.422,-9.188 0.969,-3.51 1.453,-7.088 1.453,-10.734 0,-1.042 0.459,-1.563 1.375,-1.563 0.198,0 0.62,0.099 1.266,0.297 0.198,0.063 0.607,0.159 1.227,0.289 0.619,0.131 1.122,0.258 1.507,0.383 1.178,0.198 2.287,0.297 3.329,0.297"
     id="path66"
     inkscape:connector-curvature="0" />
</svg>
