<?xml version="1.0" encoding="UTF-8" standalone="no"?>
<svg
   xmlns:dc="http://purl.org/dc/elements/1.1/"
   xmlns:cc="http://creativecommons.org/ns#"
   xmlns:rdf="http://www.w3.org/1999/02/22-rdf-syntax-ns#"
   xmlns:svg="http://www.w3.org/2000/svg"
   xmlns="http://www.w3.org/2000/svg"
   xmlns:sodipodi="http://sodipodi.sourceforge.net/DTD/sodipodi-0.dtd"
   xmlns:inkscape="http://www.inkscape.org/namespaces/inkscape"
   width="40.25"
   height="100.265"
   viewBox="0 0 40.25 100.265"
   version="1.2"
   id="svg96"
   sodipodi:docname="time-signature-4-4.svg"
   inkscape:version="0.92.4 (5da689c313, 2019-01-14)">
  <metadata
     id="metadata102">
    <rdf:RDF>
      <cc:Work
         rdf:about="">
        <dc:format>image/svg+xml</dc:format>
        <dc:type
           rdf:resource="http://purl.org/dc/dcmitype/StillImage" />
        <dc:title>measures</dc:title>
      </cc:Work>
    </rdf:RDF>
  </metadata>
  <defs
     id="defs100" />
  <sodipodi:namedview
     pagecolor="#ffffff"
     bordercolor="#666666"
     borderopacity="1"
     objecttolerance="10"
     gridtolerance="10"
     guidetolerance="10"
     inkscape:pageopacity="0"
     inkscape:pageshadow="2"
     inkscape:window-width="1920"
     inkscape:window-height="1017"
     id="namedview98"
     showgrid="false"
     fit-margin-top="0"
     fit-margin-left="0"
     fit-margin-right="0"
     fit-margin-bottom="0"
     inkscape:zoom="0.95353535"
     inkscape:cx="70.20657"
     inkscape:cy="272.6658"
     inkscape:window-x="-8"
     inkscape:window-y="-8"
     inkscape:window-maximized="1"
     inkscape:current-layer="svg96" />
  <title
     id="title2">measures</title>
  <desc
     id="desc4">Generated by MuseScore 3.0.5</desc>
  <path
     class="TimeSig"
     d="m 22.672,1.359 c 1.947,0 3.606,-0.226 4.976,-0.68 C 29.018,0.226 29.896,0 30.281,0 c 0.458,0 0.818,0.13 1.078,0.39 0.198,0.188 0.328,0.412 0.391,0.672 0,0.136 -0.068,0.334 -0.203,0.594 L 3.14,34.672 H 19.828 V 21.578 c 0,-0.844 0.229,-1.563 0.687,-2.156 0.782,-0.646 1.433,-1.037 1.953,-1.172 0.844,-0.386 1.886,-1.297 3.125,-2.735 1.042,-1.166 2.282,-3.213 3.719,-6.14 0.188,-0.396 0.479,-0.594 0.875,-0.594 0.781,0 1.235,0.458 1.36,1.375 v 24.516 h 7.14 c 0.906,0 1.427,0.484 1.563,1.453 0,0.979 -0.521,1.468 -1.563,1.468 h -7.14 v 0.782 c 0,2.604 0.651,4.817 1.953,6.64 1.5,1.823 3.26,2.735 5.281,2.735 0.781,0 1.172,0.39 1.172,1.172 0,0.781 -0.391,1.171 -1.172,1.171 -1.365,0 -3.578,-0.192 -6.641,-0.578 -2.802,-0.458 -4.984,-0.687 -6.547,-0.687 -1.625,0 -3.807,0.229 -6.546,0.687 -2.928,0.386 -5.105,0.578 -6.532,0.578 -0.781,0 -1.172,-0.39 -1.172,-1.171 0,-0.782 0.391,-1.172 1.172,-1.172 2.011,0 3.766,-0.912 5.266,-2.735 1.365,-1.885 2.047,-4.099 2.047,-6.64 V 37.593 H 3.14 c -1.114,0 -1.896,-0.26 -2.343,-0.781 C 0.265,36.427 0,35.906 0,35.25 c 0,-0.198 0.489,-0.88 1.468,-2.047 1.115,-1.302 2.287,-2.896 3.516,-4.781 1.438,-2.219 2.807,-4.5 4.109,-6.844 1.428,-2.667 2.568,-5.729 3.422,-9.188 0.969,-3.51 1.453,-7.088 1.453,-10.734 0,-1.042 0.459,-1.563 1.375,-1.563 0.198,0 0.62,0.099 1.266,0.297 0.198,0.063 0.607,0.159 1.227,0.289 0.619,0.131 1.122,0.258 1.507,0.383 1.178,0.198 2.287,0.297 3.329,0.297"
     id="path64"
     inkscape:connector-curvature="0" />
  <path
     class="TimeSig"
     d="m 22.672,51.531 c 1.947,0 3.606,-0.227 4.976,-0.68 1.37,-0.453 2.248,-0.679 2.633,-0.679 0.458,0 0.818,0.13 1.078,0.39 0.198,0.188 0.328,0.412 0.391,0.672 0,0.136 -0.068,0.333 -0.203,0.594 L 3.14,84.844 H 19.828 V 71.75 c 0,-0.844 0.229,-1.563 0.687,-2.156 0.782,-0.646 1.433,-1.037 1.953,-1.172 0.844,-0.386 1.886,-1.297 3.125,-2.735 1.042,-1.166 2.282,-3.213 3.719,-6.14 0.188,-0.396 0.479,-0.594 0.875,-0.594 0.781,0 1.235,0.458 1.36,1.375 v 24.516 h 7.14 c 0.906,0 1.427,0.484 1.563,1.453 0,0.979 -0.521,1.468 -1.563,1.468 h -7.14 v 0.782 c 0,2.604 0.651,4.817 1.953,6.64 1.5,1.823 3.26,2.735 5.281,2.735 0.781,0 1.172,0.39 1.172,1.172 0,0.781 -0.391,1.171 -1.172,1.171 -1.365,0 -3.578,-0.192 -6.641,-0.578 C 29.338,99.229 27.156,99 25.593,99 c -1.625,0 -3.807,0.229 -6.546,0.687 -2.928,0.386 -5.105,0.578 -6.532,0.578 -0.781,0 -1.172,-0.39 -1.172,-1.171 0,-0.782 0.391,-1.172 1.172,-1.172 2.011,0 3.766,-0.912 5.266,-2.735 1.365,-1.885 2.047,-4.099 2.047,-6.64 V 87.765 H 3.14 c -1.114,0 -1.896,-0.26 -2.343,-0.781 C 0.265,86.599 0,86.078 0,85.422 c 0,-0.198 0.489,-0.881 1.468,-2.047 1.115,-1.302 2.287,-2.896 3.516,-4.781 1.438,-2.219 2.807,-4.5 4.109,-6.844 1.428,-2.667 2.568,-5.729 3.422,-9.188 0.969,-3.51 1.453,-7.088 1.453,-10.734 0,-1.042 0.459,-1.563 1.375,-1.563 0.198,0 0.62,0.099 1.266,0.297 0.198,0.063 0.607,0.159 1.227,0.289 0.619,0.131 1.122,0.258 1.507,0.383 1.178,0.198 2.287,0.297 3.329,0.297"
     id="path66"
     inkscape:connector-curvature="0" />
</svg>
