<?xml version="1.0" encoding="UTF-8" standalone="no"?>
<svg
   xmlns:dc="http://purl.org/dc/elements/1.1/"
   xmlns:cc="http://creativecommons.org/ns#"
   xmlns:rdf="http://www.w3.org/1999/02/22-rdf-syntax-ns#"
   xmlns:svg="http://www.w3.org/2000/svg"
   xmlns="http://www.w3.org/2000/svg"
   xmlns:sodipodi="http://sodipodi.sourceforge.net/DTD/sodipodi-0.dtd"
   xmlns:inkscape="http://www.inkscape.org/namespaces/inkscape"
   width="49.515999"
   height="27.531"
   viewBox="0 0 49.515999 27.531"
   version="1.2"
   id="svg4141"
   sodipodi:docname="whole-note.svg"
   inkscape:version="0.92.4 (5da689c313, 2019-01-14)">
  <metadata
     id="metadata4147">
    <rdf:RDF>
      <cc:Work
         rdf:about="">
        <dc:format>image/svg+xml</dc:format>
        <dc:type
           rdf:resource="http://purl.org/dc/dcmitype/StillImage" />
        <dc:title>Untitled-2</dc:title>
      </cc:Work>
    </rdf:RDF>
  </metadata>
  <defs
     id="defs4145" />
  <sodipodi:namedview
     pagecolor="#ffffff"
     bordercolor="#666666"
     borderopacity="1"
     objecttolerance="10"
     gridtolerance="10"
     guidetolerance="10"
     inkscape:pageopacity="0"
     inkscape:pageshadow="2"
     inkscape:window-width="1920"
     inkscape:window-height="1017"
     id="namedview4143"
     showgrid="false"
     inkscape:zoom="0.42828283"
     inkscape:cx="-88.081541"
     inkscape:cy="-189.50088"
     inkscape:window-x="-8"
     inkscape:window-y="-8"
     inkscape:window-maximized="1"
     inkscape:current-layer="svg4141"
     fit-margin-top="0"
     fit-margin-left="0"
     fit-margin-right="0"
     fit-margin-bottom="0" />
  <title
     id="title3931">Untitled-2</title>
  <desc
     id="desc3933">Generated by MuseScore 3.0.5</desc>
  <path
     class="Note"
     d="m 21.485,2.531 c -2.344,0 -4.037,0.813 -5.078,2.438 -1.167,1.562 -1.75,3.682 -1.75,6.359 0,3.062 0.812,5.698 2.437,7.906 1.625,2.146 3.417,3.646 5.375,4.5 1.75,0.844 3.604,1.266 5.563,1.266 2.281,0 4.005,-0.813 5.171,-2.438 1.105,-1.635 1.657,-3.755 1.657,-6.359 0,-3.063 -0.813,-5.698 -2.438,-7.906 C 30.797,6.213 29.042,4.713 27.157,3.797 25.261,2.953 23.37,2.531 21.485,2.531 M 24.813,0 c 7.031,0 12.89,1.364 17.578,4.094 4.75,2.739 7.125,5.963 7.125,9.671 0,3.969 -2.443,7.224 -7.328,9.766 -4.886,2.667 -10.677,4 -17.375,4 -6.906,0 -12.766,-1.365 -17.578,-4.094 C 2.412,20.698 0,17.474 0,13.765 0,9.797 2.474,6.541 7.422,4 12.308,1.333 18.104,0 24.813,0"
     id="path4043"
     inkscape:connector-curvature="0" />
</svg>
